<svg xmlns="http://www.w3.org/2000/svg" width="25" height="20" viewBox="0 0 25 20"><path fill="#fff" d="M24.588 2.42c-.877.38-1.818.64-2.803.76l-.023-.053c1.043-.61 1.85-1.582 2.246-2.744-.303.186-1.76 1.007-3.182 1.272C19.898.64 18.564 0 17.08 0c-3.14 0-5.07 2.575-5.07 5.07 0 .195.092 1 .108 1.046-4.216-.092-7.953-2.12-10.36-5.23-1.726 3.137.08 5.86 1.32 6.83-.72-.012-1.405-.167-2.027-.438.132 2.415 1.878 4.398 4.178 4.892-.92.26-2.026.06-2.452-.05.68 2.02 2.54 3.496 4.763 3.604C4.137 18.222.47 17.967.41 17.966 2.567 19.258 5.09 20.02 7.784 20c9.876-.062 14.948-8.83 14.345-15.12 1.08-.504 1.954-1.378 2.458-2.46"/></svg>