<svg version="1.1" id="Layer_1" xmlns="http://www.w3.org/2000/svg" xmlns:xlink="http://www.w3.org/1999/xlink" x="0" y="0" width="20" height="20" viewBox="0 0 20 20" xml:space="preserve" enable-background="new 0 0 20 20"><path d="M17.7,8.5H16c0.1,0.5,0.2,1,0.2,1.5c0,3.4-2.8,6.2-6.2,6.2S3.8,13.4,3.8,10c0-0.5,0.1-1,0.2-1.5H2.3	v8.5c0,0.4,0.3,0.8,0.8,0.8h13.8c0.4,0,0.8-0.3,0.8-0.8L17.7,8.5L17.7,8.5z M17.7,3.1c0-0.4-0.3-0.8-0.8-0.8h-2.3	c-0.4,0-0.8,0.3-0.8,0.8v2.3c0,0.4,0.3,0.8,0.8,0.8h2.3c0.4,0,0.8-0.3,0.8-0.8V3.1L17.7,3.1z M10,6.2c-2.1,0-3.8,1.7-3.8,3.8	s1.7,3.8,3.8,3.8s3.8-1.7,3.8-3.8S12.1,6.2,10,6.2 M17.7,20H2.3C1,20,0,19,0,17.7V2.3C0,1,1,0,2.3,0h15.4C19,0,20,1,20,2.3v15.4	C20,19,19,20,17.7,20" fill="#FFFFFF"/></svg>