<svg version="1.1" id="Layer_1" xmlns="http://www.w3.org/2000/svg" xmlns:xlink="http://www.w3.org/1999/xlink" x="0" y="0" width="108.8" height="20.5" viewBox="0 0 108.8 20.5" xml:space="preserve" enable-background="new 0 0 108.8 20.5"><path d="M95.8,0.2v19.9h13v-2.9h-9.2v-5.6h8.7V8.4h-8.7V3.3h9v-3L95.8,0.2L95.8,0.2z M56.2,0.2l8.2,20.1h1.2L72,5.6l6.3,14.7h1.2	l8.2-20.1h-3.9L79,12.6L73.6,0.2h-3.3l-5.2,12.4L60.3,0.2H56.2L56.2,0.2z M32.3,6.6c0.6-1,1.5-1.9,2.6-2.4c1.1-0.4,2.2-0.9,3.6-0.9	c1.3,0,2.6,0.2,3.6,0.9c0.9,0.6,1.8,1.3,2.5,2.4c0.7,1,0.9,2.2,0.9,3.6c0,2-0.7,3.7-2,4.9c-1.2,1.2-2.9,1.9-4.9,1.9	c-1.3,0-2.5-0.2-3.6-0.9c-1.1-0.6-1.9-1.5-2.5-2.5c-0.7-1-0.9-2.2-0.9-3.6C31.4,8.9,31.7,7.8,32.3,6.6 M32.7,1.3	c-1.6,0.9-2.9,2.1-3.8,3.8c-1,1.6-1.5,3.4-1.5,5.2c0,1.9,0.4,3.6,1.5,5.2c0.9,1.6,2.2,2.8,3.9,3.7s3.6,1.3,5.6,1.3s3.9-0.4,5.6-1.3	c1.7-0.9,2.9-2,3.9-3.7s1.5-3.4,1.5-5.2S49,6.6,48,5.1c-1-1.6-2.2-2.8-3.9-3.7c-1.7-1-3.6-1.4-5.6-1.4C36.3,0,34.4,0.4,32.7,1.3 M0,0.2v19.9h3.8v-8.4h10.3V20H18V0.2h-3.8v8.3H3.9V0.2H0z"/></svg>