<svg xmlns="http://www.w3.org/2000/svg" width="141" height="2"><path d="M138.2 1.9c1 .1 1.4.3 2.1-.4l.2-.6c-.7-1-3.1-1-2.3 1m-2.7-.1c.6.1 1.2.2 1.8.1 0-.5.2-.6.3-1.4-.7-.2-1.4-.2-2.2-.1 0 .4 0 .9.1 1.4m-.9.2c0-.5 0-1 .1-1.4-.6-.2-1.3-.3-2-.1-.1.4-.1.8-.1 1.3.5.5 1.2-.2 2 .2M126.3.6c-.7-.2-1.3-.2-2-.1.1.4 0 .9-.1 1.3.9.3 2.1-.1 2.1-1.2M121.6 2c.5-.4 1.3 0 1.6-.2-.1-.6.3-.5.1-1.1-.6-.4-1.4-.4-2-.1 0 .4.1.9.3 1.4m-1.3-.2c.1-.4.2-.8.1-1.3-.6-.3-1.4-.3-2 .1-.1 1.6.7 1.2 1.9 1.2m-2.9-.2c-.4-.1.3-.5.2-.9-.6-.2-1.3-.3-2-.1v1.3c.5-.3 1.5.1 1.8-.3m-10.2.2h1.6c-.1-.5.3-.5.1-1.1-.6-.3-1.3-.3-2-.1 0 .4.1.9.3 1.2m-1.3.1c-.2-.6.2-.7.1-1.3-.4-.3-1.2-.1-1.8-.1-.3.5.2.8-.1 1.3.7.2 1-.2 1.8.1m-4.5-.1h1.8V.5c-.8.2-1.4-.3-1.8 0s.1.7 0 1.3m-1.3 0c-.4-.7.2-.5.1-1.3-.5-.1-1.1-.2-1.6-.1-.2.4-.2.8-.1 1.3.7 0 1.1.4 1.6.1m-4.8-.4c-.7-.5-1-1.4-2.5-1-.2.5.4 1 0 1.1-.1 0-.2 0-.2.2.9.2 1.8.1 2.7-.3m-5.3.3c.6.4 1-.2 1.4.1.2-.4.3-.8.3-1.3-.4-.3-1.8-.3-2 .2.4.3.5.7.3 1m-4 .1c-.1-.4-.1-.9 0-1.3-.6-.3-1.2-.3-1.8 0 .1.4.1.9 0 1.3H86m-3-.1c-.2-.6.3-.6.3-.9-.6-.5-1.4-.6-2-.1-.1.6.4.7 0 1.1l1.7-.1m-4.6 0c.6.1 1.2.1 1.8.1.2-.4.2-.8.1-1.3-.6-.2-2.2-.3-2.1.2.5.3.7.8.2 1m-6.8.2c.2-.4.3-.8.3-1.3-.5-.2-1.1-.2-1.6-.1-.2.4-.2.8-.1 1.3.4-.1.9 0 1.4.1m-4.1-.1h1.6c.1-.4.1-.8 0-1.3h-1.6c-.1.5-.1.9 0 1.3m-1.3 0c.2-.3.3-.7.3-1.1-.6-.4-1.4-.4-2-.1v1.1c.9 0 1 0 1.7.1m-4.3-.1h1.4c.2-.2.2-.7.3-.9-.8-.8-3-.4-1.7.9m-3.1 0c.9 0 .6.1 1.6.1.2-.3.4-.7.5-1.1-.7-.3-1.9-.5-2.3.2.3 0 .2.5.2.8m-.9-.2c0-.4-.1-.7-.2-1.1h-1.6c-.1.5-.6.6-.7 1.1.8.4 1.7.4 2.5 0m-4.5.3c.4-.4 1.2.3 1.6-.2-.3 0 .2-.6 0-1.1-.6-.1-1.2-.1-1.8 0 0 .4 0 .8.2 1.3m-1.2-.2c-.2-.6.3-.6.1-1.1-.6-.2-1.2-.2-1.8-.1-.2.4-.2.8-.1 1.3l1.8-.1m-2.9.1c.2-.3.3-.7.3-1.1-.6-.3-1.2-.3-1.8 0-.1 1 .5 1.2 1.5 1.1m-2.2-1c-.6-.5-1.4-.4-1.9.2-.1.1-.1.1-.1.2.2 0 .1.2 0 .4.7.4 2.2.6 2-.8m-3 1c.2-.2.1-.9.3-1.1-.6-.2-1.4-.2-2 .1-.2 1.2.7 1.1 1.7 1m-2.9.1c.3-.3.4-.8.3-1.3l-2 .1c-.1 1.1.7 1.2 1.7 1.2M38.8.9c-.3-.8-1.7-.2-2.2-.5.4 1.1-.1.8-.5 1.4 1.1-.4 2.5.5 2.7-.9M36 .7c-.4-.3-1.3-.1-2-.1-.4 2 2.4 1.4 2 .1m-5.6.4c-.5-.5-1.3-.7-2-.5-.4.5-.3 1.2.2 1.6.5.4 1.2.3 1.6-.2.2-.3.3-.6.2-.9M27.5.8c-.6-.2-1.3-.3-2-.3-1.2 1.7 2.4 2 2 .3m-3 1.2c.2-.4.2-.9 0-1.3-.6-.2-1.2-.2-1.8-.1-.6 1.4.8 1.4 1.8 1.4m-5.7 0c.3-.2 0-1 .3-1.3-.7-.2-1.4-.2-2.2-.1-.2.5-.2 1-.1 1.4.7-.1 1.4-.1 2 0m-4.5.1h1.4c.3-.4.4-.9.3-1.3-.3-.3-1.8.1-1.1-.7-.7.2-1.1.9-.9 1.6.1.1.2.2.3.4m-6.8 0c-.2-.7.4-.7.3-1.3C7.2.4 6.4.3 5.7.5c.2.5.1 1-.1 1.4.8.2 1 0 1.9.2M4.8 2V.4c-.7.2-1.3 0-2 .2V2c.8-.1 1.7.2 2 0M2.1 2C2 1.6 2 1.1 2.1.6 1.4.4.7.5.1.7-.2 2.4 1.2 2 2.1 2m127-.3c-.4-.2.4-.6 0-1.1-.6-.3-1.4-.2-2 .1.2.5.1 1.1.2 1.2.1-.1 1.5.4 1.8-.2m-14.3.2c-.2-.6.3-1 0-1.3-.6-.4-.9.1-1.6-.1-.3.6.1.8-.1 1.4h1.7M78 1.6c-.4-.1.3-.5.2-.9-.4-.3-1.2-.1-1.8-.1-.2.3-.3.7-.3 1.1.6.2 1.3.1 1.8-.2m-2.9.3c-.4-.1.2-.7.1-1.1-.6-.2-1.3-.3-2-.1v1.3c1-.2 1.5.1 1.9-.1m56.5.1c0-.5.6-.4.3-1.1-.3-.1-.9.2-.9-.2.3 0 .7 0 .7-.2-.3-.2-1 .2-1.8 0-.2.5.4 1 0 1.1-.1 0-.2 0-.2.2.7.1 1.3.1 1.9.2m-19.7-.2c-.2-.5.2-.5.2-.9-.5-.4-1.2-.5-1.8-.3v1.3c.8-.1 1 .2 1.6-.1M97.4 2c-.2-.6.2-.7.1-1.3-.6-.2-1.2-.3-1.8-.1v1.3c.7.1.9 0 1.7.1m-8.7-.1c.2-.4.3-.8.3-1.3-.6-.2-1.2-.2-1.8 0v1.3c.8.1 1.1-.5 1.5 0m-55.8-.1c.1-.4.1-.7.1-1.1-.7-.2-1.4-.2-2 .1v1.1l1.9-.1M20.2 2c1 .2 1.4 0 1.4-1.1-.4-.4-1.4-.2-2-.1v1.3c.5-.2 1.2-.8.6-.1M13 2c-.1-.6.3-.6.1-1.3-.7-.1-1.3-.2-2-.1-.1.5-.1 1-.1 1.4.7.2 1.4.2 2 0M8.2 2c0-.4.1-.8.1-1.3.7-.3 1.6-.2 2.2.3-.2.3-.3.7-.3 1.1-.7.1-1.4.1-2-.1" fill="#8c8c8c"/></svg>