<svg version="1.1" id="Layer_1" xmlns="http://www.w3.org/2000/svg" xmlns:xlink="http://www.w3.org/1999/xlink" x="0" y="0" viewBox="0 0 531.4 29" xml:space="preserve" enable-background="new 0 0 531.4 29"><g><path d="M132.2,0.4v27.5h18v-4.1h-12.7V16h11.9v-4.2h-11.9V4.6h12.4V0.4H132.2z M77.5,0.4l11.3,27.8h1.7l8.7-20.4l8.7,20.4h1.8 L121,0.4h-5.4l-6.8,17l-7.2-17h-4.5l-7.2,16.9L83,0.4H77.5z M44.5,9.2c0.8-1.4,1.9-2.6,3.4-3.4s3.2-1.2,5-1.2c1.9,0,3.5,0.4,5,1.2 s2.6,1.9,3.5,3.4c0.8,1.5,1.2,3.1,1.2,4.9c0,2.8-0.9,5.1-2.7,6.8c-1.8,1.8-4.1,2.7-6.9,2.7c-1.9,0-3.5-0.4-5-1.2s-2.6-1.9-3.5-3.4 c-0.8-1.5-1.2-3.1-1.2-4.9S43.7,10.6,44.5,9.2 M45.1,1.9c-2.3,1.2-4.1,2.9-5.4,5.2c-1.3,2.2-1.9,4.6-1.9,7.1c0,2.6,0.6,5,1.9,7.1 c1.3,2.2,3.1,3.8,5.4,5.1c2.3,1.2,4.9,1.8,7.8,1.8s5.5-0.6,7.8-1.8s4.1-2.9,5.4-5.1s2-4.6,2-7.1c0-2.6-0.7-5.1-2-7.3 S62.9,3,60.7,1.8C58.4,0.6,55.9,0,53,0C50,0,47.4,0.6,45.1,1.9 M0,0.4v27.5h5.3V16.2h14.3v11.6h5.3V0.4h-5.3V12H5.3V0.4H0z"/><path d="M175.1,12.7c-0.2,0.3-0.2,0.5-0.4,0.9v-0.1c0,0.5-0.4,0.5-0.4,1v-0.1c-0.1,0.2-0.1,0.4-0.2,0.5l0,0 c-0.1,0.3-0.3,0.4-0.3,0.6c-0.1,0-0.1,0.2-0.2,0.1c0,0.1,0,0.1,0,0.2c-0.4,0-0.3,0.5-0.6,0.6v0.2c-0.5,0.2-0.9,1-1.4,1 c-0.1,0,0,0.1,0,0.1c-0.3,0-0.3,0.1-0.5-0.1c0,0,0,0.1-0.1,0.1c0,0,0-0.1,0-0.2v0.1c-0.4-0.4-0.3-0.9-0.3-1.5 c0.3-0.2,0.1-0.6,0.1-0.9s0.3-0.5,0.3-0.9c0.1,0,0.1-0.1,0.1-0.1c0-0.2-0.1-0.4,0-0.6s0.2-0.4,0.2-0.5c0,0,0.1,0.1,0.1,0 c0,0,0-0.2,0-0.3h0.1c0.1-0.2,0-0.4,0.2-0.5c0.1,0,0.2,0,0.2-0.2c0.3,0,0.7-0.1,0.9-0.4c0.4,0.1,0.6-0.2,1-0.2c0.1,0,0-0.2,0.2-0.2 c0,0.1-0.1,0.1-0.1,0.1c0,0.1,0.1,0.1,0.1,0.1c0-0.1,0.3-0.1,0.4,0c0,0-0.1,0.1,0,0.1c0.2,0,0.4-0.2,0.4,0.1c0.1-0.2,0.1,0.1,0.4,0 c0,0.2,0.1,0.1,0.1,0.2C175.2,12.1,175.1,12.6,175.1,12.7 M183.9,11.1c0-0.1-0.1-0.1-0.1-0.2c0,0.1-0.2,0.1-0.3,0.1 c0-0.2-0.3,0.1-0.4-0.2c0.1-0.2,0.2-0.4,0.1-0.7c0.2-0.2,0.2-0.6,0.3-0.9c0.1,0.1,0.1,0,0.2,0c0-0.1,0.1-0.3,0-0.4 c0,0.2,0-0.1-0.1,0c-0.1,0,0,0.1-0.1,0.1c-0.1-0.2-0.2,0-0.3,0.1V8.9c-0.1,0-0.1,0.1-0.2,0.2c0.1-0.3-0.1,0-0.1-0.2 c-0.2,0.2-0.3,0-0.5-0.1c0,0.1-0.1,0.2-0.3,0.1c-0.1,0.2-0.2,0.6-0.3,0.7c0,0.1,0,0.6-0.2,0.5c0.1,0.3-0.3,0.6-0.1,0.7 c-0.2,0-0.1,0.1-0.1,0.1c0-0.1,0,0-0.1,0c-0.3,0-0.7,0-0.9,0.2c0,0-0.2-0.2-0.2-0.1c0,0-0.2,0.2-0.3,0.2c0.1,0.3-0.3,0.3-0.1,0.4 c0-0.2,0.1,0.1,0.2,0c0.1-0.1,0.5-0.1,0.7-0.2c0.1,0.1,0.3,0.2,0.4,0c0,0.1,0.1,0.1,0.1,0.1c0.1,0.2-0.2,0.5-0.2,0.5 c-0.1,0.3-0.1,0.9-0.2,1.1c-0.2,0.4-0.7,0.7-0.9,1.1c-0.5,0.7-1,1.4-1.5,2c-0.1,0-0.1,0.1-0.2,0c-0.5,0.8-1.4,1.6-2.6,1.6 c0.1-0.1,0-0.2,0.1-0.3c-0.1,0-0.1,0-0.1,0c0.3-0.4,0-1.1,0.3-1.4c0-0.5,0.2-0.9,0.3-1.5c0.1-0.4,0.1-0.8,0.1-1.2 c0-0.2,0.2-0.5,0.3-0.8s0-0.7,0.2-0.8c-0.1,0-0.1,0-0.1-0.1c0.1-0.1,0.4-0.4,0.2-0.4c0.1-0.1,0.1-0.1,0.2-0.2c-0.1,0,0-0.1,0-0.2 c-0.1,0-0.1,0.1-0.1,0.1c0-0.3-0.3-0.2-0.5-0.5c0,0.1-0.4,0.2-0.4-0.1c-0.1,0.1-0.3-0.1-0.5,0.1c-0.1-0.2-0.3,0-0.5-0.1 c0,0.1,0,0.1-0.1,0.1c0-0.1-0.5-0.1-0.5,0.1c-0.1-0.1,0.1-0.2,0-0.2c0.1,0.2-0.2,0.2-0.2,0c-0.1,0-0.2,0.2-0.3,0 c-0.1,0.1,0,0.2-0.1,0.2c0-0.1,0-0.1,0-0.1c-0.1,0.2-0.3,0.1-0.3,0.2c-0.3-0.1-0.5,0.3-0.8,0.2c-0.1,0.2-0.3,0.2-0.4,0.4 c-0.2,0-0.2,0-0.3,0c0,0.2-0.3,0.3-0.3,0.2c-0.4,0.3-0.6,0.6-0.7,1v-0.2c-0.4,0.1-0.5,0.8-0.8,0.8c-0.1,0.3-0.5,0.5-0.4,0.8h-0.1 c0,0.4-0.2,0.5-0.1,0.8h-0.1c-0.1,0.4-0.3,0.7-0.3,1c0,0.2,0.1,0.6,0,0.7c0,0.1-0.1,0.1-0.1,0.2c-0.1,0.4,0,0.9,0.1,1.3 c0.1,0,0.1,0,0.1,0c0,0.3,0.4,0.5,0.6,0.7c0.3,0,0.4,0,0.6,0.1c0.1-0.1,0.4-0.2,0.5-0.2c0.2-0.1,0.3-0.4,0.6-0.4 c0.1-0.3,0.3-0.4,0.4-0.6c0,0.1,0.1,0.1,0.1,0.1c0.2-0.3,0.3-0.3,0.3-0.6c0,0.3,0.4-0.1,0.2-0.2c0.1,0,0.1,0.1,0.2,0 c0.2-0.2,0.1-0.6,0.5-0.5c0-0.2,0.2-0.4,0.4-0.4c0-0.3,0.3-0.2,0.2-0.4c0.1-0.1,0.1,0,0.2,0c0.1-0.3,0.4-0.6,0.6-0.8 c-0.2-0.1,0.1,0,0-0.3c0.1,0,0.1,0.1,0.1,0.1c0-0.3,0.2-0.2,0.2-0.4c0.1,0.2,0.1,0.8-0.1,0.8c-0.1,0.6-0.1,1.1-0.3,1.6 c0.1,0.7-0.6,2.3,0.5,2.4c0.1,0,0.2-0.1,0.4-0.1c0.1,0,0.1,0.1,0.2,0.1c0-0.1,0-0.1,0-0.1c0.1,0.2,0.5-0.2,0.6-0.3 c0.1-0.1,0.3-0.1,0.5-0.1c0.5-0.2,0.8-0.7,1.2-0.9v-0.1c1-0.8,1.7-1.9,2.6-2.8c-0.1,0.4-0.2,0.7-0.1,1c-0.1,0-0.1,0-0.1,0 c0,0.6-0.3,0.8-0.1,1.5c-0.2,0.3-0.1,0.6-0.1,1.1c0.4,0.4,0.6,0.4,1,0.8c0.2,0,0.2,0,0.4,0.1c0-0.2,0.3,0,0.5-0.1 c-0.1,0-0.1,0-0.1,0c0.6,0,0.7-0.5,1.3-0.4c0.2-0.5,0.9-0.7,1.1-1.3c0,0.1,0.1-0.1,0.3-0.1c-0.1-0.3,0.5-0.4,0.3-0.7 c0,0.1,0,0-0.1,0c-0.5,0.8-1.3,1.4-1.9,2c-0.1,0-0.5-0.2-0.6-0.1l0,0c-0.1-0.1-0.1-0.3-0.2-0.4c0.1-0.5,0-0.7,0-1.1 c0.2,0-0.1-0.3,0.1-0.1c-0.2-0.6,0.2-1.1,0.3-2c0.2-0.2,0.3-0.6,0.3-0.9c0.3-0.2,0.2-0.8,0.3-1.1h0.1c0-0.6,0.2-0.9,0.1-1.4 c0.1,0,0.5-0.1,0.3-0.2c0.6-0.1,1-0.1,1.5,0.1c0.1-0.2,0.5,0,0.7,0c0-0.3,0.3-0.5,0.4-0.8C185.1,10.8,184.3,10.8,183.9,11.1"/><g><path d="M260.6,5.1c0.1-0.5-0.4-0.8-0.5-1.2c-0.1,0-0.1,0-0.2,0.1c0-0.2-0.2-0.2-0.2-0.5c-0.1,0-0.2,0-0.3,0 c0-0.3-0.3-0.2-0.3-0.2c-0.1,0.1-0.4-0.4-0.7-0.3c0-0.1,0-0.1-0.1-0.2c-0.2,0.2-0.4-0.1-0.5-0.2c-0.1,0-0.7,0-0.7-0.2 c-0.4,0.1-0.6-0.1-0.8-0.2c-0.1,0.1-0.9,0.1-1,0c-0.1,0.1-0.3,0.2-0.5,0.1c0,0.1,0,0.1-0.1,0.2c-0.1-0.3-0.1,0.1-0.3-0.1 c-0.3,0.4-0.2,0.7-0.5,1.1c0.1,0,0.1,0.5,0.1,0.6s-0.2,0.1-0.2,0.2c0,0.4,0.1,0.8,0.1,1.1c0,0.2,0,0.4,0,0.6 c0,0.9,0.1,1.9,0.1,2.5c-0.1,1.3-0.1,2.7-0.1,4c0.2,0.1,0.4,0.2,0.7,0.1c0,0.3,0.2,0,0.2,0.2c0.6-0.3,1.3,0,1.8-0.3 c0,0.1,0,0.1,0.1,0.2c0-0.2,0.3-0.3,0.4-0.1c0-0.1,0-0.1,0.1-0.2c0.5-0.1,0.8-0.2,1.3-0.3c-0.1,0-0.1-0.1-0.1-0.1 c0.2,0,1-0.2,0.6-0.4c0.5,0.2,0.6-0.6,1.1-0.4c0-0.3,0.1-0.4,0.3-0.5c-0.1-0.1,0-0.4,0.2-0.4C261.2,9,261.4,6.9,260.6,5.1 M254.1,21.5c-0.1,1.1,0.1,2.9,0,4.3c0.2,0.1,0.7,0.3,0.7,0.1c0.1,0.1,0.2,0.2,0.4,0.2c0.1,0,0-0.2,0.2-0.2c0,0.1,0.1,0.1,0,0.2 c0.2-0.1,0.3,0,0.4-0.2c0,0.2,0.3,0.1,0.3,0.2c0-0.2,0-0.1,0.1-0.1c0-0.1,0-0.2,0.1-0.2c0.3,0.2,0.8,0.1,1.1-0.1 c0,0.1,0,0.2,0,0.2c0.1,0,0.4-0.2,0.5-0.2c0.1,0.1-0.1,0.3,0,0c0,0,0.3,0,0.2-0.1c0.3,0.2,0.3-0.3,0.7,0c0.2-0.2,0.6-0.5,0.9-0.4 c0-0.2,0.4-0.3,0.4-0.2c0-0.2,0.2-0.2,0.2-0.4c0.3,0,0.3-0.4,0.5-0.3c0-0.2,0.1-0.2,0-0.4l0.1,0.1c0.1-0.2,0.3-0.5,0.5-0.8 c0.1-0.1,0.1-0.4,0.2-0.6c0.1-0.1,0.2-0.1,0.3-0.2c0-0.1,0-0.2,0-0.3c0.1-0.3,0.3-0.6,0.2-0.9c0.1,0.1,0.2-1.2,0-1.3 c0.2,0,0-0.2,0-0.4c0-0.3,0.1-0.8,0-1.1c0-0.2-0.4-0.4-0.2-0.6c-0.3-0.2-0.2-0.8-0.5-1.1c0,0,0.1,0,0.1-0.1 c-0.3-0.3-0.3-0.5-0.4-0.9c-0.5-0.1-0.5-0.8-1.1-0.9c0-0.1-0.1-0.1-0.1-0.3c-0.3,0-0.5-0.4-0.5-0.4c-0.3-0.2-0.7-0.1-1.1-0.2 c-0.2,0-0.2-0.2-0.3-0.3v0.2c-0.1,0-0.2-0.2-0.4-0.2c-0.2,0-0.8-0.1-1.2,0c-0.1,0-0.2,0.2-0.3,0.2c-0.4,0-0.8-0.1-0.9-0.1 c-0.2,0.2-0.5,0.1-1,0.2C254,16.8,254.1,19.2,254.1,21.5 M257.6,27.2c-0.1,0,0.1-0.1-0.1-0.2c-0.2,0.3-0.7-0.3-0.7,0.1 c-0.3-0.4-0.9,0.2-1.2-0.2c-0.1,0-0.1,0.1-0.1,0.2c-0.1-0.1-0.3-0.1-0.4-0.2c-0.1,0.3-0.4-0.1-0.6,0.1c-0.2-0.2-0.3,0-0.4-0.2 c0,0.3-0.2,0-0.5,0s-0.6,0.1-0.8,0.1c0-0.2-0.4-0.2-0.5,0c-0.5-0.1-1,0.1-1.4-0.1c-0.8,0-2.3,0.3-2.8,0c-0.3,0.1-0.7,0-0.8,0.2 c-0.1,0-0.2-0.2-0.3,0c-0.5-0.2-0.8,0-1.2-0.2c0.1-0.1,0.1-0.2,0-0.4c0.1,0,0.1,0.1,0.2,0.1c-0.1-0.2,0-0.4,0-0.6 c0.2,0.1,0.6,0,0.8,0.3c0,0,0.3-0.2,0.3,0c0-0.2,0.3,0,0.3-0.2c0.3,0.2,0.4-0.1,0.7-0.1c0-0.1,0.5-0.2,0.7-0.4c0,0,0-0.1,0-0.2 c0.5-0.4,0.7-0.7,0.9-1.4c0.1-1.6,0.2-4,0-5.9c0.1,0,0.1-0.1,0.1-0.3c-0.1-1.7-0.2-4.8-0.1-6.8c0.1-1.2,0.1-2.2,0-3.4 c0-1.1,0.2-2.2-0.1-3.1c0-0.1-0.2,0,0-0.2c-0.2-0.3-0.1-0.6-0.4-0.8c0-1.1-1.1-1.2-1.5-1.6c-0.2,0.1-0.4,0.1-0.5-0.1 c-0.1,0,0,0.1,0,0.2c-0.1-0.2-0.3,0-0.4-0.2c-0.5,0.4-1-0.4-0.5-0.7c0.2-0.1,0.4,0.1,0.6-0.1c0,0.2,0.3-0.1,0.3,0.2 c0.1-0.1,0.3-0.1,0.4,0c0.1,0,0.1-0.1,0.1-0.2c0.1,0.1,0.4,0,0.5,0.2c0.5,0,1-0.1,1.5,0c0.1,0,0-0.1,0.1-0.2 c0.4,0.3,0.8-0.1,1.2,0.3c0.1,0,0.2-0.1,0.2-0.2c0.9,0.3,1.5-0.3,2.4,0c0.3-0.3,0.7,0,1,0c0.1,0,0,0.1,0,0.2c0.1,0,0-0.2,0.1-0.2 c0.2,0,0.4,0.2,0.5,0c0.1,0.1,0.2,0,0.2,0.2c0.1,0,0.1-0.1,0.1-0.2c0.1,0.1,0.2,0,0.3,0.1c0.1,0,0.1-0.2,0.1,0c0.1,0,0-0.1,0-0.2 c0.2,0.1,0.4,0,0.4,0.2c0.1,0,0.1-0.1,0.3-0.1c0,0.1,0,0.1,0,0.2c0.1,0,0-0.1,0-0.2c0.3,0.2,0.9-0.1,1.1,0.3c0.1,0,0-0.2,0.1-0.2 s0.2,0.2,0.2,0c0.1,0,0.1,0.1,0.1,0.2c0.1-0.2,0.4,0,0.5-0.1c0.1,0,0,0.1,0,0.2c0.3-0.1,1.2-0.1,1.7,0l-0.1,0.1 c0.1,0,0.2-0.1,0.3-0.1c-0.1,0.2,0.1,0.1,0.1,0.3c0.1,0,0-0.1,0.1-0.1c0.3,0.2,0.8,0.3,1,0.6c0.2-0.1,0.6,0.3,0.6,0.6 c0.2,0.1,0.1-0.1,0.3-0.1c0.3,0.4,0.7,0.7,1,1.3c0,0,0.1-0.1,0.2-0.1c0.1,0.6,0.4,1.1,0.8,1.5c0.1,0.7,0,1,0.3,1.6 c0,0.1,0,0.2-0.2,0.2c0.1,0.1,0.1,0.1,0.2,0.2c-0.2,0.3-0.3,1.1-0.3,1.4c0,0.1-0.1,0-0.2,0c0,0.2,0,0.4-0.3,0.5 c0,0.6-0.2,1-0.6,1.3c0.1,0.2-0.2,0.2-0.2,0.5c-0.3-0.1-0.4,0.3-0.5,0.5c-0.7,0.2-1.2,1-2,1c-0.1,0.1-0.3,0.3-0.6,0.3 c0,0.2-0.3,0.2-0.3,0.4c0.1,0.1,0.2,0.2,0.3,0.2c0.1,0,0-0.1,0.1-0.1c0.2-0.1,0.1,0.1,0.2,0.2c0.2,0,0.2,0,0.4-0.1 c0.2,0.4,0.9,0.1,1.1,0.6c0.5-0.2,1.1,0.5,1.4,0.9c0.5-0.1,0.5,0.7,1.1,0.9c0.3,0.7,0.7,0.8,0.9,1.6c0.2,0,0.1,0.5,0.4,0.6 c0,0-0.1,0-0.1,0.1c0.6,1.7,0.2,3.4-0.3,5c-0.1,0-0.1-0.1-0.2,0c-0.2,0.7-0.8,1.2-1.2,1.9c-0.1,0-0.2,0-0.2,0 c-0.5,0.3-0.6,1-1.2,1c0,0.1,0,0.1,0.1,0.1c-0.1,0.2-0.3,0.1-0.5,0.3c-0.2,0.1-0.3,0.3-0.4,0.3s-0.4,0-0.5,0 c-0.2,0.1-0.3,0.2-0.5,0.3c-0.3,0.1-0.8-0.1-1,0.2c-0.3-0.1-0.5,0-0.8,0c0,0.1,0.1,0,0.1,0.1c-0.2,0-0.7-0.1-0.7-0.2 C258.1,27.3,257.8,27.2,257.6,27.2"/><path d="M276.4,24.5c0.2,0.6,0.8,0.9,1.2,1.5c0.2,0-0.1-0.2,0.1-0.2c0,0.1,0.1,0.1,0.1,0.2c0.2-0.1,0.3,0.1,0.3,0.2 c0-0.1,0.1-0.1,0.2-0.1c0,0.2,0.3,0.2,0.3,0.3c0.4,0.1,0.8,0.2,1.5,0.2c0,0.1,0,0.2,0.1,0.2c0-0.1,0-0.2,0.2-0.2 c0,0.1,0.1,0.1,0,0.2c0.2-0.1,0.3,0,0.4-0.1c0,0.3,0.6,0,0.8,0.2c0.2,0.2-0.1,0,0.1-0.1s0.5,0,0.5-0.2c0.2,0.3,0.6-0.1,0.8,0.1 c0.2-0.2,0.6-0.1,0.7-0.4c0.1,0.1,0.8-0.1,0.8-0.4c0,0.1,0.1,0.1,0.1,0c-0.2-0.2,0.4,0,0.1-0.2c0.5-0.1,0.4-0.6,0.9-0.7 c0-0.2,0-0.4,0.3-0.3c0.2-0.5,0.4-1.1,0.7-1.5c-0.1,0-0.1,0-0.1-0.1c0.3,0,0-0.5,0.3-0.4c0-0.3,0-0.8,0.2-0.7 c-0.1-0.3,0.1-0.4,0.2-0.6c-0.2-0.1,0-0.6,0.2-0.7c0-0.1-0.1-0.1-0.1-0.2c0.2-1.1,0.2-2.8,0.2-3.9c0.1-0.3,0.2-0.5,0-0.7 c0.1-1.3-0.1-2.9,0-4.1c-0.1,0-0.2,0-0.2-0.1c0.1-0.6-0.3-1-0.2-1.5c-0.1-0.8-0.4-1.8-0.5-2.6c-0.2,0-0.2-0.3-0.2-0.5 c-0.2-0.7-0.2-1.2-0.5-1.6c-0.4-0.5-0.5-1.3-1-1.8c-0.5,0-0.4-0.5-0.7-0.6c0,0-0.3,0.1-0.2-0.2c-0.5,0-0.5-0.6-1-0.5 c0.1,0,0.2,0,0.2-0.1c-0.1,0-0.1,0.1-0.3,0.1c0-0.2-0.5,0-0.7-0.3c-0.2,0.2-0.8-0.1-1,0c0-0.1,0.1-0.1,0-0.2 C280.7,2,280.1,2,279.7,2c0.1,0,0.1,0.1,0,0.1c-0.1-0.1-0.3,0.1-0.5,0c-0.1,0.2-0.4,0.3-0.6,0.4c0-0.1,0-0.1,0.1-0.1 c-0.2,0.1-0.4,0.3-0.6,0.2c-0.1,0.2-0.5,0.6-0.6,0.4c-0.2,0.3-0.6,1.1-0.9,1.2c0.1,0,0.1,0.1,0.1,0.2c-0.8,1-1,3-1.6,4.1 c0.1,0.2,0,0.2,0,0.4C275,8.8,275,8.8,274.9,9c0.1,0.4-0.1,1.2-0.2,1.7c0,0,0-0.1,0.1,0c-0.1,0-0.2,0.1-0.2,0.2c0,0,0.1,0,0.1,0.1 c-0.1,1.4-0.2,2.8-0.1,4.2c-0.1,0-0.2,0-0.2,0.1c0.4,0.4,0,1,0.3,1.6c-0.2,0.5,0.1,0.8,0,1.3c0,0.1,0.1,0.1,0.1,0.1 c-0.1,0-0.1,0.1-0.2,0.1c0.4,0.4,0.2,0.7,0.2,1.1c0.4,0.3,0.3,1,0.5,1.6c0,0.1,0.1,0.1,0.2,0.2c0.2,0.5,0.2,1.4,0.3,1.5 c0,0.1,0.1,0,0,0.2c0.3,0.1,0.3,0.4,0.5,0.5c-0.1,0.4,0.1,0.5,0.2,0.7c0,0,0-0.1,0.1-0.1c0,0.2,0.2,0.2,0.2,0.4 c0,0.1-0.3,0.1-0.2,0.1C276.3,24.6,276.3,24.5,276.4,24.5 M270.7,22.1c-0.1,0-0.1,0-0.1,0.1c-0.2-0.4-0.4-0.9-0.5-1.3 c-0.1-0.3,0-0.7-0.3-0.8c0-0.2,0.1-0.4-0.2-0.5c0-1-0.4-2.3-0.4-3.3c0-0.2,0.1-0.6,0-0.6c0.4-1.4-0.1-2.1,0.3-3.4 c0-0.1-0.1,0-0.1,0c0.2-0.7,0.3-1.6,0.7-2.3c-0.1-0.5,0.2-0.6,0.2-1.1c0.2,0,0.1-0.2,0.2-0.4c0.2-0.5,0.6-0.8,0.6-1.3 c0.1,0,0,0.2,0.2,0.1c-0.1-0.2,0.3-0.7,0.5-0.9c0-0.1-0.1,0-0.2-0.1c0.4-0.2,0.4-0.9,0.8-0.9c0-0.4,0.5-0.8,0.8-0.8 c0.1-0.3,0.3-0.7,0.6-0.7c0.2-0.4,0.7-0.6,0.9-1.1c0.1,0,0.2,0,0.2,0.1c0.1-0.1,0.2-0.5,0.5-0.3c0.2-0.4,1-0.4,1.2-0.8 c0.2,0.2,0.3,0,0.4-0.1c0.2,0.2,0.5,0,0.6-0.2c0.1,0.2,0.2-0.1,0.3,0c0.1,0-0.1-0.1,0.1-0.2c0.2,0.2,1.1-0.2,1.3-0.1 c0.2-0.3,0.5-0.1,0.8-0.3c0.1,0,0,0.2,0.1,0.2s0.1-0.1,0.2-0.2c0.2,0.1,0.5,0,0.6,0.2c0.2-0.2,1.5,0.1,1.9,0 c0.1,0,0.2,0.1,0.3,0.2c0.1-0.2,0.8,0.2,1.2,0c0.1,0,0.2,0.3,0.3,0.1c0.6,0.4,1.7,0.6,2.5,1.2c0,0.1,0,0.1,0,0.2 c0.1,0,0-0.1,0.1-0.2c0.4,0.6,1.2,0.9,1.5,1.7c0.1,0,0.2,0,0.3,0c0.2,0.9,0.9,1.1,1.2,2.1c0.5,0.4,0.7,1.6,1.2,2.6 c0,0-0.1,0-0.1,0.1c0.3,0.6,0.5,1.2,0.4,1.5c0.1,0.2,0.2,0.4,0.1,0.6c0.1,0.1,0.4,0.6,0.1,0.8c0.3,0,0,0.4,0.3,0.5l-0.1,0.1 c0.4,1,0.2,1.9,0.4,2.7c0,0.1-0.1,0-0.2,0.1c0.4,0.8,0.1,1.4,0.2,2.5c0,0-0.1-0.1-0.2-0.1c0,0.1,0,0.2,0.1,0.2 c-0.5,0.8-0.3,1.7-0.8,2.3c0,0.3-0.3,0.8-0.5,1c0.1,0.3-0.3,1-0.7,1.2c0.1,0.3-0.6,0.5-0.5,0.9c-0.2,0-0.2,0.2-0.4,0.2 c0,0.1,0.1,0.1,0.1,0.2c-0.2,0.1-0.4,0.3-0.5,0.6c-0.3-0.2-0.2,0.4-0.5,0.3c0.1,0.3-0.2,0.2-0.2,0.5c-0.2,0-0.4,0.2-0.6,0.6 c-0.3,0.1-0.4,0.1-0.5,0.3c-0.1,0,0-0.1-0.1-0.1c-0.3,0.3-0.6,0.4-1.1,0.6c-0.3,0.4-0.8,0.6-1.2,0.9c0,0-0.1,0-0.1-0.1 c-0.1,0.2-0.4,0.3-0.4,0.1c-0.1,0.1-0.3,0-0.3,0.2c-0.2,0-0.1-0.1,0-0.2c-0.1,0.1-0.2,0.1-0.2,0.3c-0.7,0-0.9,0.2-1.4,0.1 c-0.1,0,0,0.1-0.1,0.2c-0.4-0.1-1.3,0.3-1.9,0.2c-0.1,0-0.2-0.1-0.4-0.2c-0.1,0-1,0.1-1.1,0.1c0,0,0-0.1,0-0.2 c0,0-0.2,0.3-0.2-0.1c-0.5,0.4-1.2-0.1-1.7-0.1c0-0.2-0.2,0.1-0.2-0.2c-0.1,0-0.2,0.1-0.3,0c0-0.2-0.1-0.2-0.2-0.3 c-0.5,0.2-0.8-0.5-1.6-0.5c0.1-0.2-0.1-0.1-0.1-0.3c0,0-0.1,0.1-0.2,0.1c0-0.1,0-0.1,0-0.2c-0.1,0.1-0.2-0.1-0.4-0.1 c-0.2-0.4-0.3-0.4-0.8-0.6c-0.1-0.5-0.8-0.6-0.9-1.2c-0.1,0,0,0.1-0.1,0.2c-0.5-0.6-1.1-0.9-1.3-1.7c-0.1,0-0.2-0.2-0.4-0.3 c0-0.1,0-0.2,0-0.3C270.6,22.4,270.8,22.2,270.7,22.1"/><path d="M330.8,13.1c0,0.1,0.1,0.1,0.1,0.2c0.2-0.2,0.5-0.4,0.7-0.6c0.1,0,0.1,0.2,0.2,0.2c0.1-0.3,0.4-0.1,0.6-0.4 c0,0.2,0.2,0,0.3,0.1c0.3-0.3,0.7-0.7,1.1-0.8c0-0.1,0.2-0.3,0.4-0.2c-0.1-0.1,0-0.5,0.2-0.3c-0.3-0.7,0.7-1.3,0.4-1.9 c0.3-0.4,0.2-1,0.4-1.5c-0.2-0.1,0-0.8,0-0.8c0-0.3-0.5-0.6-0.3-1.2c-0.1,0-0.1,0.1-0.2,0c0.1-0.3-0.2-0.5-0.3-0.8 c-0.1,0-0.1,0.1-0.2,0.1c0-0.6-0.4-1-0.4-1.3c0,0,0,0.1,0.1,0c-0.2,0-0.5-0.3-0.5-0.5c-0.2-0.1-0.5-0.3-0.6-0.5 c-0.2,0-0.3-0.1-0.4,0c0-0.1,0-0.1,0-0.2c-0.9-0.3-1.4-0.2-2.5-0.6c0,0.3-0.4,0.2-0.5,0.2c0.1,0,0.2,0,0.2-0.1 c-0.3,0.2-0.7,0.1-1,0.2V2.3c-0.2,0-0.5,0.3-0.7,0.1c-0.1,0.4-0.5,0.1-0.8,0.3c0,0.3,0,0.5-0.1,0.6c0-0.1-0.1-0.1-0.1-0.2 c0,0.1,0,0.2,0,0.3c0.1,0,0.2,0,0.2,0.2c-0.1,0-0.1,0-0.2-0.1c-0.1,0.2,0.2,0,0.2,0.2c0,0.1-0.2,0-0.2,0.2c0,0.1,0.2,0.1,0.2,0.2 c0,0.2,0,0.4-0.2,0.2c-0.1,0.3,0.2,0.5,0.1,0.8c0-0.1,0-0.1-0.1-0.2c0.1,0.3,0,0.6,0.1,1c-0.4,0.6,0.1,1.5-0.3,2.2 c0.2,0.3,0.1,0.7,0,0.9c0,0.9,0.2,2.7,0.1,3.7c-0.1,0.6,0.5,0.4,0.7,0.4c0.3,0,1.3,0,1.4,0c0,0-0.1,0-0.1,0.1 C329.5,13.2,330,13.2,330.8,13.1 M295.7,2.3c-0.2,0.1-0.3,0-0.5,0c0-0.1,0-0.1,0-0.2c-0.1,0.1-0.3,0.1-0.3-0.1 c-0.2,0.3-0.7,0-1.1,0c-0.1,0.2-0.4,0-0.5,0c0-0.3,0-0.6,0.2-0.8c0.2,0.1,0.3,0.1,0.4-0.1c0.1,0.2,0.3,0.1,0.4,0 c0.1,0,0.1,0.1,0.1,0.2c0.1-0.1,0.4-0.2,0.5,0c0.2,0,0.1-0.2,0.3-0.2c0.4,0.1,0.7,0.1,1.1,0.1c0,0.2,0.2,0.1,0.1,0.3 c0.1,0,0-0.2,0.1-0.3c0.2,0.3,0.5-0.1,0.8,0.1c0.1,0,0-0.1,0-0.2c0.1,0.2,0.2,0,0.3,0.2c0.2-0.3,0.8,0,1-0.2 c0,0.4,0.4-0.1,0.7,0.2c0.2-0.2,0.1-0.1,0.4-0.1c-0.2-0.1,0.1-0.2,0,0.1c0.6-0.3,2,0.1,2.6-0.1c-0.1,0.1,0.2,0.1,0.1,0 c0.1,0,0.1,0.1,0.1,0.2c0.3-0.2,0.5-0.1,0.7-0.2c0,0.2,0.4,0,0.3,0.2c0.1,0,0-0.1,0-0.2c0.4,0,0.7,0.2,0.9,0c0,0,0.1,0.1,0.1,0.2 c0.2-0.2,0.4,0,0.5,0.1c0.1,0,0.1-0.2,0.2-0.2c0.2,0,0.2,0.2,0.4,0.2c0,0.2-0.1,0.4-0.1,0.7c-0.2,0-0.5,0.1-0.7,0.1 c-0.1,0,0-0.1-0.1-0.2c-0.2,0-0.5,0.2-0.6-0.1C304,2,304,2.1,304,2.2c-0.2-0.2-0.4,0-0.4-0.2c-0.1,0.1-0.2,0.1-0.2,0.2 c-0.1,0-0.3-0.2-0.3,0.1c-0.1-0.2-0.4-0.1-0.5,0.2c-0.2-0.1-0.3,0.1-0.5,0.1c0,0.2,0.1,0.2-0.2,0.3c0.1,0.1-0.3,0.5-0.5,0.8 c0,0.1,0.1,0.1,0.1,0.2c0,0.1-0.2,0.2-0.2,0.3s0.1,0.4-0.1,0.3c0,0.8,0.1,1.8-0.1,2.4c0.2,0,0.2,0.8,0,0.8 c0.2,0.1-0.1,0.6,0.2,0.7c0.1,0.2-0.3,0.2,0,0.3c0,0-0.1,0.1-0.2,0.1c0.1,0.9-0.1,2.3-0.1,3.4c0,0.1,0.1,0,0.1,0 c0.1,0.2,0,0.2,0,0.4c-0.1,0.7,0.2,2.3,0.2,3.3c0,0.2-0.2,0.4,0.1,0.5c0,0.1,0,0.1-0.1,0.1c0,0.2,0.1,0.2,0.2,0.3 c-0.2,0.4,0.1,0.6-0.1,0.9c0.3,0.9,0,2.1,0.3,3c0,0.1-0.1,0-0.1,0.1s0.1,0,0.2,0.1c0.1,0.8,0.4,1.2,0.2,2.1c0.5,0,0.4,1.2,0.7,1.4 c0.1,0,0,0.2,0,0.2c0.2,0.2,0.7,0.4,0.7,0.7c0.1,0,0.1,0,0.1-0.1c0.6,0.6,1.6,0.9,2.5,1c0.2,0,0.3,0.1,0.5,0c0,0.1,0,0.1,0,0.2 c0.1-0.1,0.3-0.2,0.4,0.1c0.1,0,0.1-0.1,0.1-0.2c0.1,0,0.1,0.1,0.1,0.2c0.1-0.1,0.1-0.1,0.2-0.2c0.2,0.1,0.6,0,0.8,0.2 c0.1-0.2,0.4-0.4,0.6-0.2c0-0.1,0.2-0.1,0.2-0.3c0.2,0,0.1,0.1,0.3,0.2c-0.1-0.2,0.2-0.3,0.5-0.2c-0.4-0.1,0.2-0.3,0.4-0.2 c0.2-0.3,0.6-0.6,0.9-0.5c0-0.1-0.1-0.1-0.2-0.1c0.1-0.2,0.4-0.2,0.4-0.4c0.2,0.1,0.3-0.1,0.5-0.1c-0.1-0.4,0.3-0.2,0.2-0.6 c0.4-0.1,0.3-0.6,0.6-0.9c0,0,0.1,0,0.2,0c0.1-0.2,0.2-0.7,0.6-0.7c0,0-0.1-0.1-0.2-0.1c0.4-1.1,0.6-2.2,0.6-3.5 c0-0.1,0.1-0.1,0.2-0.1c-0.1-0.6,0.1-1.6,0.2-2.1c-0.1,0-0.2-0.2,0-0.2c-0.2-1,0.3-2.2,0-3.2c0.2-0.8,0-2.9,0.4-3.8 c-0.2-0.9-0.3-2.5-0.1-3.3c-0.2-0.2,0-0.4-0.2-0.6c0-0.1,0,0,0.1,0c0-0.1-0.3-0.6-0.1-0.7c-0.1-0.1-0.1-0.2-0.2-0.3 c0.1-0.1,0.1-0.2-0.1-0.2c0-0.1,0.1,0,0.1-0.1c-0.3-0.7-0.7-1.5-1.5-1.6c-0.1,0,0-0.1-0.1-0.2c-0.2,0-0.3,0.1-0.4,0 c0,0.1,0.1,0.1,0.1,0.2c-0.3-0.2-0.9-0.2-1.1-0.4c0,0.2-0.5-0.1-0.6,0.1c-0.2-0.2,0.2-0.3-0.1-0.4c0-0.2,0.1-0.2,0.1-0.4 c0.2-0.1,0.8-0.2,1.1,0c0-0.2,0.5-0.4,0.7-0.1c0.1-0.3,0.2,0.1,0.3,0.1c0,0,0.2-0.3,0.5,0c0,0,0.1-0.1,0.1-0.2 c0.8,0.3,1.8-0.4,2.6,0.1c0.2-0.3,0.6,0.1,0.9-0.2c0.1,0,0,0.1,0.1,0.2c0.3-0.2,0.4,0.1,0.5-0.2c0.1,0,0.1,0.1,0.2,0.2 c0.1,0,0.1-0.1,0.1-0.2c0.1,0,0,0.1,0,0.2c0.1,0,0.1-0.1,0.1-0.2c0.6,0.2,0.5,0.2,1.1,0c-0.1,0.3,0,0,0.2,0c0.3,0.1,0.8,0,1.2,0.1 c-0.3-0.3,0.3,0.1,0.2-0.1c0.7,0.2,1.3,0.1,1.7,0.2c0.1,0,0.2-0.3,0.3,0c0-0.1,0.3-0.2,0.3,0c0.1,0,0.4-0.1,0.2-0.1 c0.1-0.2,0.1,0.2,0.2,0.3c-0.1-0.2,0.3-0.1,0.2-0.3c0.5,0.1,1-0.1,1.4,0.1c0.1-0.1,0.2-0.1,0.2-0.2c0.1,0.2,0.4,0,0.4,0.3 c0.1,0,0.1-0.1,0.1-0.2c0.1,0,0.2,0.1,0.2,0.2c0.2-0.1,0.4-0.2,0.6-0.2c-0.1,0,0.8,0.1,0.9,0c0.3,0,0.7-0.1,1,0.1 c0.2-0.3,0.7-0.2,1,0c0-0.1,0.3-0.1,0.5-0.2c0,0.1,0,0.1,0.1,0.2c0.1,0,0.1-0.1,0.1-0.2c0,0.1,0.2,0,0.2,0.2c0.1,0,0-0.1,0-0.2 c0.1,0.1,0.1,0,0.2,0L330,1.4c0.5-0.3,0.9,0.1,1.3-0.1c0.2,0.3,0.7-0.3,0.9,0.2c0.1,0,0-0.1,0.1-0.2c0.5,0.2,0.7,0.1,1.1,0.1 c0-0.1,0-0.1-0.1-0.1c0-0.1,0.2,0.1,0.2,0.2c0.4,0,0.6,0.1,0.7-0.2c0.4,0.4,1.1,0.1,1.4,0.4c0.1-0.3,0.7,0.2,0.7,0.3 c0,0,0.1-0.1,0.1-0.2c0.2,0.2,0.5,0,0.5,0.4c0.1,0,0-0.1,0-0.2c0.3,0,0.1,0.1,0.2,0.3c0.1,0,0-0.1,0-0.2c0.3,0.1,0.3,0.3,0.4,0.5 c0.1,0,0.1-0.1,0.3-0.1c0.1,0.3,0.3,0.5,0.5,0.6c0.1,0.7,0.8,0.9,0.7,1.5c0.4-0.1-0.2,0.2,0.2,0.2c-0.2,0.1,0.1,0.4-0.1,0.4 c0.3,0.4,0.4,1,0.2,1.5c0.1-0.3,0.2,1,0,1c0.2,0.3-0.2,0.8,0,1.3c-0.3,0.2,0,0.8-0.5,1c0,0.1,0,0.5-0.3,0.5 c0.2,0.4-0.5,0.5-0.3,0.7c-0.3,0.2-0.5,0.7-0.7,0.6c-0.1,0.1-0.1,0.2-0.1,0.3c-0.1-0.1-0.7,0.5-0.9,0.6c-0.2,0-0.3-0.1-0.3,0.2 c-0.2-0.1-0.4,0.2-0.5,0.4c-0.1,0-0.2,0-0.2-0.1c-0.1,0.3-0.4,0.1-0.5,0.3c-0.1,0,0-0.1-0.1-0.2c-0.2,0.3-0.4,0.1-0.6,0.4 c-0.1,0-0.1-0.1-0.2-0.1s0,0.2-0.2,0.2c0.1,0.4,0.6,0.5,1,0.7c0,0.1-0.1,0.1-0.1,0.2c0.3-0.3,0.3,0.4,0.7,0.3 c0.1,0.5,0.8,0.8,0.7,1.2c0.4,0.1,0.3,0.9,0.8,1c-0.1,0.3,0.2,0.4,0.3,0.7c0.1,0-0.1-0.2,0.1-0.2c0,0.2,0,0.6,0.1,0.4 c0.2,0.2,0,0.6,0.2,0.5c0.1,0.2,0,0.4,0.2,0.5c0,0.4,0.1,0.8,0.4,0.8c-0.1,0.2,0.1,0.5,0.2,0.6c0,0.1,0,0.1-0.1,0.2 c0.3,0.4,0.3,1,0.7,1.2c0.1,0.4,0.2,0.7,0.5,0.9c0,0.1,0,0.1-0.1,0.1c0.1,0.1,0.4,0.2,0.3,0.4c0.4,0,0.2,0.5,0.5,0.5 c0,0.5,0.5,1.1,0.9,1.2c0.1,0.7,1,0.8,1.3,1.4c0.5,0.2,1.1,0.5,1.7,0.6c0-0.1-0.1,0-0.1-0.1c0.4-0.3,0.8,0,1.2-0.4 c0.4,0.2,0.6-0.4,1.1-0.4c0.2-0.5,0.3-1.1,0.7-1.2c0.2-0.9,0.3-1.6,0.4-2.2c0-0.1-0.1-0.1-0.2-0.1c0.5-0.7,0-1.7,0.5-2.7 c-0.3-0.1,0.2-0.4-0.1-0.5c0-0.1,0,0,0.1,0c-0.1-0.2,0-0.3,0-0.5c-0.1-0.2-0.1-1.4,0.2-1.5c-0.3-0.4,0-1.2-0.2-1.7 c-0.2-0.5,0.1-1.2-0.1-1.7c-0.1-0.2,0-0.1,0-0.3c0-0.1,0-0.3-0.1-0.1c0.1-0.3,0-0.8,0.2-0.9c-0.1-0.3-0.1-1-0.1-1.3 c0-0.1-0.1-0.1-0.2-0.1c0-0.9,0-1.9,0-2.4c-0.1-0.8,0.1-1.8-0.2-2.4c0.1,0,0,0.1,0.1,0.1c0-0.2-0.1-0.6-0.1-0.8h0.1 c0-0.2-0.2-0.6-0.3-0.9c-0.1-0.4-0.2-0.8-0.3-1.2c-0.1,0.2-0.2-0.1-0.3-0.3c-0.1,0,0,0.1-0.1,0.1c0,0-0.2-0.2-0.1-0.2 c-0.1-0.1-0.2-0.2-0.4-0.2c0.1-0.1,0-0.1,0-0.2c-0.3,0-0.8-0.2-1.2-0.2c-0.1,0,0,0.1,0,0.1c-0.6,0-1.1,0.1-1.8-0.2 c0.1-0.1,0.1-0.4,0.1-0.7c0.3,0,0.4-0.1,0.6,0.1c0.1-0.1,0-0.1,0.2-0.1c-0.2,0.3,0.2-0.1,0.1-0.1c0.1,0,0.4,0.2,0.6,0.2 c0.1,0,0-0.1,0.1-0.1c0.6,0.1,1.2,0.3,2.1,0c0.1,0,0.1,0.1,0.1,0.2c0.3-0.4,1,0.1,0.9-0.3c0.1,0,0.1,0.1,0.1,0.2 c0.1,0,0.2,0,0.2-0.2c0.3,0.1,0.6,0.1,1,0c-0.1,0.2,0.3,0.1,0.5,0.1c0,0.3,0.2-0.2,0.2,0.2c0.2,0,0.4-0.1,0.5,0.1 c0.2-0.1,0.3-0.1,0.6-0.2c-0.2,0.1,0.1,0.2,0.1,0c0.2,0.2,0.7,0,0.6,0.4c0.2,0,0.2,0.2,0.4,0.3c0.2,0.5,0.5,1.2,0.9,1.5 c-0.1,0.1,0,0.3,0.1,0.1c0,0.1,0.3,1,0.5,0.9c0,0.1,0.1,0.1,0,0.2c0.3,0,0.3,0.4,0.4,0.5c0,0.1,0.4,0.6,0.5,0.7c0,0,0.1,0,0.2,0 c0-0.1,0.1,0.8,0.4,0.7c0.3,0.9,1.4,1.8,1.5,2.6c0.2,0.1,0.3,0.2,0.5,0.4c0.1,0.7,0.6,0.8,0.6,1.3c0.3,0,0.5,0.6,0.6,0.8 c0.4,0.4,0.9,1.4,1.2,1.9c0.3,0,0.3,0.6,0.6,0.7c0,0.1-0.1,0-0.2,0.1c0.5,0.4,0.4,0.8,1,1.3c0.5,1.2,1.2,1.6,2,2.4 c0.2-0.8,0.1-1.8,0.1-3.1c0-1.1-0.2-2.2,0-2.7l0.1,0.1c0-0.3-0.3-1,0.1-1.1c-0.3-0.4-0.1-1.2-0.1-1.7c-0.1-1.2-0.2-2.4-0.3-3.4 c0-0.1,0.1-0.1,0.1-0.2c-0.2-0.1,0-1-0.2-1.3c0.2-0.1,0-0.4-0.2-0.5c0-0.1,0.1,0,0.1-0.1s-0.2,0-0.1-0.2c-0.4-0.3-0.3-1.4-1-1.5 c0,0-0.1-0.1-0.1-0.2c-0.1,0.1-0.3,0-0.2-0.1c-0.2,0.1-0.3,0-0.3-0.2c-0.2,0.3-0.5-0.2-0.8,0c-0.1,0,0,0,0-0.1 c-0.2,0.1-0.3,0.1-0.7,0.1c0.2-0.2,0-0.5,0.2-0.7c0.1,0.1,0.4,0,0.4,0.2c0.3,0,0.8-0.3,0.9,0.1c0.1,0,0-0.1,0.1-0.2 c0.1,0.1,0.2,0,0.2,0.2c0.3-0.3,0.9,0,1-0.2c0.1-0.1,0.2,0.1,0.2,0c0.2,0,0.1,0.1,0.1,0.2c0.2-0.1,0.3-0.2,0.5-0.2 c0,0.1,0,0.1,0,0.2c0.2-0.1,0.3-0.1,0.5,0.1c0.1-0.2,0.3-0.1,0.5,0c0.2-0.1,0.6-0.3,0.7,0c0.4-0.2,0.9,0,1.4-0.1 c0.4,0,0.8-0.3,1.1,0c0.1-0.1,0.3-0.1,0.4,0.1c0-0.2,0.3-0.1,0.4-0.3c0.1,0.2,0.2,0.1,0.3,0.2c1-0.3,1.6,0.1,2.4-0.3 c0.2,0.4,0.7-0.1,1.1,0.3c-0.1-0.3,0.5,0,0.7,0s0.2-0.2,0.4-0.2c0.4-0.1,0.9,0.3,1.2,0.1c-0.1,0.1,0,0.1,0,0.2 c0.2-0.4,0.7,0.1,0.9-0.2c0.8,0.2,1.5-0.1,2.1,0.1c0.2-0.1,0.7,0.1,1-0.2c0.2,0.2,0.6,0.2,0.7,0c0,0.2,0,0,0.2,0.3 c0.2-0.2,0.9-0.3,1.2,0c0.2-0.1,0-0.1,0.1-0.2c0.4,0.2,1.1-0.2,1.3,0.1c0.1,0,0.1-0.1,0.1-0.2c0.4,0.2,0.7,0.2,1.1,0.1 c0.2,0.1,0.6,0.1,0.8,0c0.1,0.1,0.2,0,0.2,0.2c0.6-0.4,1.6,0.1,2.2-0.3c0.5,0.1,0.7,0,1.2-0.1c0,0.1,0.1,0,0.1,0.1 c-0.1,0.3,0,0,0.2,0.2c-0.5,1-0.1,2-0.4,2.8c0.1,0,0-0.1,0.1-0.2c0.1,0.4-0.2,0.7,0.1,1.1c-0.2,0.8-0.2,1.4,0,2 c0,1.2,0.1,1.8-0.4,2.3c-0.1-0.2-0.3-0.3-0.4-0.4c0-0.1,0-0.1,0.1-0.1c-0.4-0.7-0.6-1.6-1-2.5c-0.7-0.3-0.5-1.3-1.3-1.6 c0-0.1,0-0.3-0.2-0.2c0,0,0.1-0.1,0.1-0.2c-0.2,0.1-0.5-0.3-0.6-0.6c-0.2,0.1-0.3-0.2-0.5-0.2c0.1-0.2-0.3-0.4-0.4-0.2 c0-0.3-0.6-0.1-0.5-0.4c-0.7,0.1-1-0.2-1.8-0.3c-0.1-0.1,0-0.1,0-0.2c-0.1,0.1-0.3,0.1-0.5,0.2c0-0.1-0.1-0.1-0.1-0.2 c-0.4,0.2-0.7-0.1-0.9,0.1c-0.1,0-0.1-0.1-0.2-0.2c-0.2,0.2-1.1,0.2-1.2,0c-0.6,0.2-0.6,1-0.6,2c0,0.3,0.1,0.6-0.1,0.7 c0.2,0.1,0.2,0.6,0,0.7c0.1,0.2,0.2,0.6,0,0.6c0.2,0.4,0,0.7,0,1c0,0.4,0.4,1.3,0,1.9c0.2,1.3-0.1,2.2,0.1,3.3 c-0.2-0.2,0,0.1,0,0.3c0.7,0.3,1.6-0.2,2.3-0.8c0.3,0.1,0.5-0.3,0.7-0.6l0.1,0.1c0.4-0.4,0.7-0.9,0.9-1.4c0-0.2,0-0.7,0.2-0.7 c0.1-0.3,0-0.8,0.1-1.1c0-0.1,0.2-0.1,0.2-0.2c0.1-0.4-0.2-0.9,0-1.3c0-0.1,0.3,0,0.1-0.1c0.2-0.2,0.3,0,0.7-0.1 c0.1,0.1,0,0.4,0.2,0.3C382,9,382,11,382.1,12c-0.3,2.7,0,6.2-0.2,9.3c-0.5-0.2-0.5,0.2-0.8,0.1c-0.1-0.7-0.2-1.3-0.1-1.6 c0-0.1-0.1-0.1-0.2-0.1c0-0.3,0.1-0.6-0.1-0.8c0,0,0.1,0,0.1-0.1c-0.1-0.3-0.3-1-0.4-1.2c-0.2-0.7-1-1.8-1.6-2.5 c-0.2,0-0.2-0.1-0.4,0c0,0,0-0.1,0-0.2c-0.2,0.2-0.3-0.2-0.3,0.1c0,0-0.1-0.1-0.2-0.1c0-0.1,0-0.1,0-0.2c-0.1,0,0,0.2-0.2,0.2 c0-0.2-0.3-0.1-0.3-0.3c-0.1,0-0.1,0.2,0,0.2c-0.4-0.1-0.9-0.2-0.9,0.5h-0.1c0,0,0.1,0.1,0.2,0.1c0,1.3-0.3,2.8-0.1,3.9 c-0.2,0.1,0,0.4-0.1,0.5c0.3,0.4,0.1,2,0.2,2.8c-0.2,0.1,0-0.1-0.2,0.4c0-0.1,0.1,0.6,0.1,0.4c0,0.5,0,1.1,0,1.7 c0,0.3,0,0.9,0,0.9c0,0.1,0.1,0.1,0.2,0.1c0,0.1-0.1,0-0.2,0c0.1,0.3,0.5,0.3,0.6,0.5c0.2,0,0.3-0.1,0.6-0.1c-0.1,0,0.4,0.1,0.5,0 c0.1,0,0.4,0,0.8-0.1c0.4,0,0.6-0.2,1.1-0.2c0.3,0,0.3,0,0.6-0.1v0.1c0.5,0,1.1-0.6,1.4-0.4c0.1,0,0-0.1,0-0.2 c0.8-0.1,1.6-0.6,1.9-1.3c0.1,0,0.1,0,0.2,0c-0.3-0.1,0.1-0.1,0.2-0.2c0-0.1,0-0.2,0.1-0.3c0,0,0.2-0.1,0.3-0.2 c0.3-0.4,0.5-0.8,0.6-1.2c0.3,0,0.2-0.5,0.5-0.5c0-0.8,0.6-1.8,0.5-2.6c0.3-0.2,0.3-0.5,0.3-1c0.1,0,0.2,0.1,0.4,0 c0,0.1,0,0.2,0.1,0.2c-0.1,0.1-0.1,0.5,0.1,0.8c-0.1,0.9,0.2,2.4-0.1,3.5c0.1,0.2,0.2,0.4,0,0.5c0,0,0.1-0.1,0.2-0.1 c0,1.4,0,2.7,0,4.4c-0.1,0-0.2-0.1-0.2,0.1c-0.5,0-0.9-0.1-1.4,0.1c-0.4-0.4-0.8,0.1-1.1-0.3c-0.1,0.2-0.5-0.2-0.5,0.1 c-0.4-0.2-0.5,0-0.8,0c0.1,0.1-0.9,0.2-1,0c-0.1,0.1-0.3,0.1-0.4,0.2c-0.1,0-0.1-0.1-0.1-0.2c-0.4,0.2-1,0-1.5,0.3 c-0.2-0.1-0.4-0.2-0.6,0c-0.1-0.2-0.2-0.1-0.2-0.2c-0.6,0.2-1-0.1-1.6,0.1c0.1-0.3-0.9,0.3-1.1-0.1c-0.5,0.3-1.5-0.1-2.1,0.1 c-0.2,0.2-0.4-0.1-0.6,0.1c0,0.1,0.1,0,0.1,0.1c-0.2,0.1-0.3-0.1-0.5,0.1c-0.1-0.1,0-0.1,0-0.2c-0.4,0-0.7,0.1-1.1,0 c0,0.2-0.5,0-0.7,0c-0.9,0-2,0.2-2.6,0c0-0.1,0-0.1,0-0.2c-0.1,0.1-0.1,0.1-0.1,0.3c-0.4,0-0.6,0-0.8,0.1c-0.1-0.1,0-0.2-0.2-0.1 c0.1-0.4,0-0.5,0.2-0.8c0.4,0.2,1,0.3,1.4-0.1c0.5,0.2,0.8-0.2,1.3-0.2c1.2-0.7,1.7-2.5,1.5-3.5c0.2-0.6,0.3-1.6,0.3-2.2 c0-0.4-0.2-0.9,0.1-1c-0.2-0.9,0-3,0.1-3.6c0-1-0.3-1.9,0-3.2c-0.3-1.7,0.1-5-0.2-6.6c0.1-0.9-0.4-2-0.8-2.6 c-0.2-0.4-0.3-0.8-0.9-0.9c0-0.2-0.2-0.2-0.2-0.4c-0.7,0.2-1.4-0.4-2.1-0.3c-0.5-0.1-1.3,0-1.8,0.3c-0.1,0,0-0.1-0.1-0.2 c-0.1,0,0,0.2-0.1,0.3c-0.2,0-0.4,0-0.4,0.2c-0.1,0-0.3-0.1-0.3,0.1c-0.1-0.1-0.1-0.1-0.2-0.2c-0.2,0.4-0.6,0.9-0.9,1.3 c-0.1,0.7-0.1,1.2-0.3,1.6c0,0.1,0,0.1,0.1,0.1c-0.2,0.6-0.3,1.1-0.2,1.7c-0.1,0.1,0,0.2-0.2,0.2c0,0.1,0,0.2,0.1,0.2 c-0.3,0.1,0,0.4-0.2,0.4c0.2,0.1,0.1,0.5,0,0.5c0.2,0.1,0,0.6,0.1,0.8l-0.1-0.1c0,0.3,0.1,0.5,0,0.7c0,0.1,0.1,0,0.1,0.1 c-0.3,2.4-0.2,5.4-0.1,7.8c-0.1,1.6-0.2,4.1-0.1,6c0,0.2,0.1,0.5-0.1,0.5c0.3,1.2,0,1.7,0.1,2.9c-0.2-0.1-0.2-0.1-0.2,0.2 c-0.2,0-0.4-0.2-0.5,0.1c-0.1-0.1-0.1-0.3-0.3-0.2c0-0.1,0.1-0.2,0-0.3v0.1c-0.3-0.4-0.6-0.5-0.7-0.9c-0.1,0.2-0.6-0.8-0.6-1 c-0.7-0.7-1-1.9-1.8-2.4c0-0.1,0-0.1,0.1-0.2c-0.4-0.1-0.6-1.2-1.1-1.8c-0.1-0.1-0.3-0.4-0.4-0.5c0-0.1-0.5-0.5-0.5-0.6 c-0.2-0.3-0.2-0.6-0.5-0.6c0.1-0.3-0.3-0.4-0.2-0.6c-0.3,0.1-0.3-0.5-0.5-0.6c0-0.1,0.1,0,0.1-0.1c-0.4-0.4-0.6-0.8-0.9-1.4 c-0.4-0.2-0.5-0.6-0.9-1.1c0-0.1,0-0.2,0-0.2c-0.7-0.5-0.7-1.5-1.3-2c-0.2-0.6-0.8-1.4-1.1-2c0-0.1-0.2-0.1-0.3-0.2 c0.1-0.3-0.4-0.6-0.3-0.7c-0.4-0.4-0.9-0.9-1-1.5c-0.2,0.1-0.3-0.2-0.3-0.4c-0.2,0.1-0.2-0.1-0.1,0c-0.2-0.4-0.7-0.7-0.9-1.4 c-0.1,0.2-0.2-0.2-0.2-0.3c-0.5,0.3,0,1.3-0.4,1.7c0.2,0.6-0.1,1.2,0,1.9l-0.1-0.1c0,0,0,0.1,0.1,0.1c0,0.1,0,0-0.1,0 c0.1,0.2,0.1,0.8-0.1,1.1c0.1,0.2,0.1,0.7,0,1c0.2,0.2-0.1,0.5,0.2,0.7c0,0.1-0.1,0-0.2,0.1c0.1,0.7,0.1,1.6,0.1,2.2 c0,0.1,0.1,0,0.1,0.1c0,0.1-0.1,0.3-0.2,0.4c0,0.2,0,0.2,0,0.4c-0.1,0.5,0.1,1.3,0,1.9c0,0.1,0.1,0,0.2,0.1 c-0.1,0.1-0.1,0.4,0,0.6c0,0-0.1,0.1-0.2,0.1c0.2,0.1-0.1,0.3,0.2,0.3c-0.1,1.2-0.1,2.6-0.1,3.9c0.1,0,0.3,0.4,0.1,0.6 c0.3,0.1,0.2,0.8,0.4,1.3c0.2,0.4,0.5,0.5,0.6,0.9c0.1,0.1,0.4,0.1,0.4,0.4c0-0.3,0.5,0,0.6,0.2c0.1-0.1,0.2-0.1,0.2-0.2 c0.4,0.2,0.9,0.4,1.3,0.2c-0.1,0.1,0,0.1,0.2,0.1c0,0.1,0,0.3,0,0.4c-0.3,0-0.2,0.1-0.3,0c-0.1-0.1-0.2,0.2-0.2,0.2s-0.2,0-0.4,0 c-0.3,0-1,0-1.1,0.1c-0.4,0.1-0.7,0.1-1-0.1c-0.1,0,0,0.1-0.1,0.2c-0.2-0.2-0.5,0.1-0.6-0.1c-0.1,0.2-0.5-0.1-0.6,0.2 c-0.1-0.2-0.5-0.1-0.6,0.1c0-0.1-0.2,0-0.2-0.2c-0.1,0-0.3,0.2-0.3,0c-0.4,0.2-0.8,0-1.2,0.2c-0.1,0-0.2,0-0.2-0.2 c-0.1,0.1-0.2,0-0.2,0.2c-0.4-0.1-0.7,0-1,0c-0.1,0,0,0,0-0.1c-0.3,0-0.3,0-0.5-0.1c-0.3,0.3-0.7-0.1-1,0.1 c-0.1,0-0.1-0.1-0.2-0.2c-0.7,0.2-0.9,0.3-1.4,0.1c-0.1,0,0,0.1-0.1,0.2c-0.4-0.2-0.8-0.3-1.2-0.2c-0.1,0,0,0,0-0.1 c-0.3,0.1-0.7,0.1-1-0.1c-0.1,0.1,0,0.1-0.2,0.2c0.2-0.2-0.2,0.1-0.1-0.2c-0.5,0.1-0.9-0.1-1.6,0.1c0-0.2-0.3,0-0.3-0.3 c-0.2-0.1,0,0.2-0.2,0.1c0-0.2-0.5-0.4-0.4-0.6c0-0.1-0.1,0-0.1,0.1c-0.5-0.7-0.7-1.7-1.1-2.2c-0.3-0.5-0.5-1.5-0.9-2.1 c0-0.8-0.5-0.9-0.5-1.5c-0.5-0.7-0.4-1.3-1-2c0-0.4-0.2-0.8-0.5-0.8c0-0.1,0.1-0.1,0.2-0.1c0-0.1-0.2,0-0.1-0.2 c-0.1,0,0,0.1-0.1,0.2c-0.2-0.2-0.2-0.5-0.5-0.6c0.1-0.3-0.2-0.1-0.1-0.5c-0.3,0.2-0.3-0.4-0.7-0.4c0.2-0.1-0.2-0.2,0-0.3 c-0.1-0.2-0.5-0.3-0.3-0.4c-0.1-0.1-0.4-0.1-0.3-0.3c-0.4-0.1-0.6-0.4-1-0.6c-0.3-0.1-0.8-0.1-0.8-0.3c-0.1,0-0.3-0.1-0.3,0.1 c-0.2-0.1-0.5-0.1-0.7-0.2c-0.1,0,0,0.1-0.1,0.2c-0.1-0.2-0.6,0-0.8,0c-0.4,0.9,0,2.1-0.2,3.3c-0.1,0,0-0.1-0.1-0.1 c-0.2,0.1,0,0.2,0.2,0.2c-0.2,0.7,0.1,2-0.2,2.7c0,0.1,0,0.2,0.1,0.3c-0.2,0.4-0.1,0.9,0.1,1.2c-0.2,0.1,0.2,0.6-0.2,0.8 c0.4,0.2,0,1.4,0.6,1.7c-0.1,0.5,0.5,0.6,0.3,0.9c0.9,0.4,1.7,0.7,2.7,0.5c0,0.2,0.2,0.6-0.1,0.7c0.1,0.1,0.2,0.1,0.2,0.4 c-0.5,0.2-0.8,0-1.2,0.1c0.1-0.3-0.5,0.1-0.4-0.2c-0.3,0.3-0.8,0-1.3,0.2v-0.2c-0.1,0-0.1,0.1-0.2,0.2c-0.1,0-0.1-0.1-0.1-0.2 c-0.1,0-0.1,0.1-0.1,0.2c0,0-0.1-0.1-0.1-0.2c-0.1,0.2-0.6,0.2-0.6,0c0,0.1-0.2,0.1-0.3,0.2c-0.1,0,0.1-0.1-0.1-0.2 c-0.1,0-0.2,0.2-0.1,0.2c-0.1,0.2-0.2-0.2-0.3-0.2c-0.1,0.2-0.6,0.2-0.5-0.1c-0.2,0,0,0.3-0.2,0.2s-0.7-0.2-1.1,0 c-0.1,0,0,0,0-0.1c-0.1,0-0.1,0.1-0.1,0.2c-0.1,0-0.1-0.2-0.2-0.2s0,0.1-0.1,0.2c-1-0.1-1.6,0.2-2.2-0.1c-0.1,0,0,0.1-0.1,0.2 c-0.3-0.2-0.7,0-1-0.2c-0.1,0.1-0.4,0.2-0.4,0.1c-0.1,0.1-0.2,0.1-0.2,0.2c-0.1-0.2-0.2,0-0.3,0.1c-0.1,0,0-0.2-0.1-0.2 c0,0.1-0.4,0.3-0.4,0.2c-0.1,0,0,0.2,0,0.3c-0.1,0.1-0.2-0.5-0.2-0.5c0-0.1,0.2-0.1,0.3-0.3c0.1-0.1,0-0.3,0-0.3 c0.1-0.2,0.5-0.4,0.5-0.3c0.1,0,0-0.2,0.1-0.2c0.2,0.3,0.7,0.1,0.9,0.4c0,0,0.1-0.1,0.1-0.2c0.1,0.1,0.3,0,0.3,0.2 c0-0.4,0.6,0.1,0.5-0.3c0.1,0,0.1,0,0.1,0.1c0.1-0.1,0.2-0.3,0.3-0.1c0.4-0.7,0.8-1.8,0.7-2.6c0.1,0,0.1,0.1,0.2,0.1 c0-0.2-0.3-0.1-0.2-0.3c0.2,0.3-0.2-0.6,0.1-0.6c-0.1-0.2-0.1-0.6,0.1-0.5c-0.2-0.4,0.1-0.8-0.1-1.1c0.2-0.1,0.1-0.4-0.1-0.5 c0.1-0.4,0.1-1.1,0-1.3c0-0.1,0,0,0.1,0c-0.2-0.4,0.2-1-0.2-1.2c0.3-0.1,0-0.3,0-0.4c0.3-0.1,0-0.9,0.2-1.1 c-0.2-0.5,0-1.4-0.2-1.7c0.2-0.4,0.2-0.9,0-1.4c0-0.1,0.1,0,0.2-0.1c-0.3-0.4,0-1-0.2-1.3c0,0,0.1-0.1,0.2-0.1 c0-0.2-0.3-0.5-0.1-0.7c-0.1-0.4-0.2-1.5,0-1.5c-0.1-1,0-2.1-0.2-2.8c0,0,0.1-0.1,0.2-0.1c-0.2-0.3-0.2-0.8-0.2-1.1 c0-0.1,0.1-0.1,0.1-0.1c0-0.9-0.6-1.8-0.6-2.7l-0.1,0.2c0,0-0.4-0.1-0.4-0.4c-0.1,0-0.2,0-0.3,0c0.1-0.2-0.2-0.1-0.2-0.3 c-0.1,0.1-0.3-0.1-0.2-0.2c-0.2,0-0.5,0.1-0.5-0.1c0,0.2-0.6,0.1-0.7-0.1c-0.2,0.1-0.3,0-0.5,0.2c-0.6-0.3-1,0.2-1.5,0.1 c-0.1,0-0.1,0.1-0.1,0.2c-0.2-0.1-0.6,0.1-0.7,0.4c-0.1,0,0-0.1-0.1-0.1c-0.2,0.3-0.4,0.5-0.6,0.6c0.1,0.2,0,0.2-0.2,0.3 c-0.1,0.8-0.3,1.9-0.4,3c-0.1,0.9,0,1.7,0.1,2.5c0,0.1,0,0.6-0.1,0.5c0.2,0.7,0,1.2,0,2c0,0-0.1,0-0.2,0c0.3,0,0.2,0.2,0.1,0.4 c0.2,0.2,0,0.2,0.1,0.5c-0.3,0,0.2,0.7-0.1,0.6c0.3,0.9-0.1,1.8,0.1,2.3c-0.3,0.1,0,0.2-0.2,0.3c0.1,0.1,0.1,0.2,0.2,0.2 c0,0.1-0.1,0.1-0.2,0.1c0.1,0.8-0.2,1.8-0.1,2.7c0,0.4,0.1,0.7,0,1c-0.1,0.5-0.2,1-0.4,1.5c-0.1,0.8-0.3,1.9-0.8,2.2 c0,0.4-0.5,0.8-0.5,1.2c-0.1,0-0.1,0-0.2,0c0,0.2,0,0.1,0,0.3c-0.2,0.2-0.5,0.1-0.5,0.4c-0.3-0.1-0.3,0.2-0.5,0.4 c-0.1,0-0.1,0-0.2-0.1c-0.2,0.5-0.8,0.7-1.2,1.1c-0.5,0-0.8,0.2-1.3,0.5c-0.1,0-0.2,0-0.2-0.2c-0.1,0.1-0.1,0.1-0.2,0.2 c0,0.2,0.1-0.1,0.1,0.1c-0.3-0.1-0.5,0-0.6,0.2c-0.3-0.2-0.8,0.3-1.2,0.4c-0.2,0-0.3-0.2-0.5-0.2c-0.1,0.3-0.4-0.1-0.4,0.2 c-0.1-0.1-0.2-0.1-0.3-0.2c-0.1,0,0,0.1,0,0.2c-0.3-0.2-1.2,0.1-1.6-0.3c0,0.2-0.7-0.1-0.6-0.3c-0.1,0-0.1,0-0.1,0.1 c-0.3-0.1-0.7-0.1-0.8-0.4c-0.1,0.1-0.4,0.2-0.4-0.1c-0.4,0.1-0.7-0.3-1.1-0.2c-0.3-0.5-0.9-0.4-1.1-0.9c-0.4,0-0.7-0.4-0.7-0.5 c-0.2,0-0.3-0.2-0.5-0.4c0-0.1,0.1,0,0.1-0.1c-0.7-0.4-1-1.9-1.6-2.9c0.1-0.3-0.2-1.2-0.1-1.6c-0.5-0.3-0.1-2-0.4-2.2 c0.1-0.8,0.2-1.8,0-2.6c0,0,0-0.1,0.1-0.1c-0.3-0.3-0.1-0.8-0.1-1.1c0.1-0.4-0.1-0.7-0.1-1.2c0-0.1,0.1-0.4,0-0.5 c0.1,0,0-0.2,0.2-0.2c0-0.1,0-0.1-0.1-0.1c0.2-2.2,0.1-3.6,0.1-5.4c0-0.1,0.1-0.1,0.2-0.1c-0.1-0.2-0.1-1.1,0-1.3 c0-0.1-0.1,0-0.2-0.1c0.3-0.6-0.4-1-0.2-1.8c-0.2,0.2-0.2-0.6-0.5-0.6C296.8,2.9,296.1,2.8,295.7,2.3"/><path d="M404,12.3c0.1-0.2-0.5-0.3-0.4-0.6c-0.1,0-0.1,0.1-0.2,0c0-0.2-0.2-0.6-0.5-0.7c0-0.3-0.3-0.7-0.6-0.9 c-0.1-0.6-0.3-0.7-0.2-1.2c-0.4-1.2,0.1-2.7,0.4-3.7c0.2,0,0.3-0.7,0.5-1.1c0.1-0.2,0.5-0.3,0.3-0.5c0.3-0.1,0.2-0.4,0.5-0.5 c0-0.2,0.1-0.2,0-0.3c0.5-0.1,0.7-0.3,0.9-0.7c0.1,0.1,0.3,0,0.3-0.2c0.3-0.1,0.5-0.1,0.6-0.4c0.1,0,0,0,0,0.1 c0.5-0.2,0.7-0.5,1.3-0.4c0.1-0.2,0.5-0.1,0.4-0.2c0-0.1,0.2,0,0.3,0.1c0.1,0,0-0.1,0-0.2c0.5,0.2,1-0.3,1.4,0.1 c0.2-0.1,0.5-0.4,0.5,0c0.2,0,0-0.1,0.1-0.2c0.1,0,0.2,0.1,0.2,0.2c0-0.1,0.2-0.1,0.3-0.2c0,0,0.4,0,0.3,0 c0.2,0.1-0.1,0.1,0.2,0.1c0.2,0,0.6,0.2,0.7,0.3c0.9,0,1.1,0.5,1.7,0.6c-0.1,0.1,0,0.1,0,0.2c0.9,0.2,1.5,0.8,2.3,0.2 c0.1,0,0.1,0,0.1,0.1c0-0.4,0.3-0.3,0.4-0.4s0.2-0.2,0.3-0.2v0.1c0.2-0.2,0.1-0.4,0.5-0.6c-0.1-0.1,0.1-0.3,0.1-0.4 c0.1,0,0.1,0,0.1-0.1c0.2,0,0.2,0.2,0.3,0.3c-0.2,0.1-0.1,0.2,0,0.4C417,2.2,417,2.9,417,3.7c0,0.1-0.1,0.1-0.1,0.1 c0,0.3,0.1,0.6,0.1,0.9c-0.1,1.3-0.3,2.7-0.2,3.9c0,0.2-0.2-0.1-0.2,0.1c-0.3-0.2-0.3-0.5-0.2-0.7c0-0.1-0.1,0-0.2-0.1 c-0.1-0.9-0.5-1.4-0.7-2.1c-0.1-0.1-0.4-0.3-0.2-0.4c0-0.1-0.1,0-0.2-0.1c0-0.1,0.1-0.1,0-0.3c-0.7-0.8-1.5-1.6-2.4-2.2 c-0.2,0-0.1-0.1,0-0.2c-0.2,0.1-0.2,0-0.4,0c0,0,0.1-0.1,0.1-0.2c-0.6,0.2-1.6-0.5-2-0.4c-0.2-0.2-0.5,0-0.6-0.3 c-0.3,0.1-0.8,0.1-1-0.1c-0.1,0.1-0.4,0.2-0.4-0.1c-0.3,0.1-1,0.3-1.5,0.3c-0.6,0.2-1.5,0.7-1.6,1.4c-0.3,0.2-0.2,0.7-0.5,0.8 c0.1,0,0.1,0.1,0.1,0.4c-0.2-0.2-0.1,0.4,0.1,0.4c-0.2,0.6,0.3,1.5,0.5,1.9c0,0,0,0.1-0.1,0.1c0.1,0.1,0.3,0.2,0.3,0.4 c0.1,0,0-0.1,0.1-0.1c0.1,0.4,0.5,0.9,0.8,1.4c0,0,0.1-0.1,0.2-0.1c-0.1,0.2,0.2,0.1,0.2,0.4c0.3-0.1,0.9,0.6,1.2,0.7 c0.1,0,0,0.2,0.1,0.3c0.1,0,0.1-0.1,0.1-0.1c0.5,0.4,1.6,1,2.2,1.1c-0.2,0.3,0.3,0,0.2,0.3c0.1,0,0-0.1,0.1-0.1 c0.4,0.2,0.7,0.7,1.1,0.6c1.6,0.7,2.8,1.5,3.8,2.6c0.2-0.1,0.6,0.5,0.4,0.5c0.4,0.1,0.4,0.7,0.7,0.6c0.1,0.2,0.1,0.5,0.3,0.6 c-0.1,0.2,0.2,0.2,0,0.3c0.6,0.4,0.5,2.2,0.7,2.8c-0.3,0.5,0,1.6-0.4,2.1c0.4,0.2-0.2,0.7,0.1,0.7c-0.2,0.5-0.5,0.9-0.7,1.4 c-0.1,0-0.1,0-0.2,0c0.1,0,0.3,0.2,0,0.2h0.1c-0.1,0.1-0.3,0.3-0.2,0.3c-0.4,0.2-0.4,0.8-0.8,0.9c0,0.1,0.1,0.2-0.1,0.2 c0,0.1,0,0.2,0,0.3c-0.2,0.1-0.3,0.1-0.3,0.4c-0.4-0.1-0.4,0.6-0.8,0.5c0,0,0.1,0.1,0.1,0.2c-0.2-0.1-0.4,0.1-0.5,0.3 c-0.2,0.1-0.5,0-0.5,0.3c-0.2-0.1-0.3,0-0.4,0.2c-0.1,0-0.1-0.1-0.1-0.2c-0.1,0,0,0.1-0.1,0.2c-0.1,0,0-0.2-0.2-0.2 c-0.1,0-0.1,0.2-0.1,0.3c-0.3,0-0.2-0.1-0.4,0c-0.1,0,0.1-0.1-0.1-0.2c0,0.2-0.2,0.2-0.3,0.4c-0.2-0.1-0.9,0-1.1,0.1 c0-0.5-0.8,0-1-0.3c-0.5,0.2-1.5-0.2-2.3-0.2c-0.1-0.1-0.1-0.2,0-0.3c-0.2,0.1-0.1,0.2-0.4,0.2c0.2-0.1-0.1-0.2-0.2-0.1 c-0.1-0.1,0.1-0.2-0.2-0.1c0,0,0.1-0.1,0-0.2c-0.2,0.2-0.5-0.1-0.8-0.3c-0.1,0.1-0.3,0.1-0.4-0.2c-0.1,0-0.2,0-0.2,0.1 c-0.1,0,0-0.1,0-0.2c-0.6,0-1.5-0.5-2,0.2c0.1,0.3-0.2,0.8-0.2,1.1c-0.3,0.1-0.3-0.1-0.4,0.1c-0.6-0.9-0.1-2.8-0.3-4.1 c0.1,0,0.1-0.1,0.2-0.2c0-0.5,0-1.6,0-2.1c-0.2-0.4,0.1-1,0-1.7c0.2,0.2,0.1,0,0.3-0.1c0.4,0.8,0.3,1.7,0.8,2.2 c-0.1,0.4,0.6,0.6,0.5,1c0,0.1,0.1,0,0.2,0.1c-0.1,0.4,0.5,0.4,0.4,0.8c0,0,0.1-0.1,0.2-0.1c0,0.2,0.2,0.2,0.2,0.4 c0.1-0.2,0.2,0.1,0.3,0.2v-0.1c0.1,0.1,0.3,0.2,0.3,0.5c0.2-0.3,0.3,0.2,0.7,0.2c0,0.3,0.5,0.3,0.4,0.5c0.5,0.2,0.7,0.2,1.1,0.6 c0.1-0.1,0.3-0.1,0.3,0.1c0.2,0,0.3,0,0.4,0.1c0.1,0,0-0.1,0.1-0.1c0.1,0.1,0.4,0.2,0.5,0.2c0.4,0.1,0.6,0.2,1,0.2 c0.2,0,0.3,0,0.5,0.1c0,0,0.5,0,0.4-0.2c0.3,0.4,0.6-0.3,1.1-0.2c0.1-0.1,0.4-0.3,0.6-0.3c0-0.1,0.1-0.1,0.2-0.3 c0.2,0.3,0.3-0.3,0.5-0.1c0.2,0,0.1-0.1,0.1-0.2c0.5-0.3,0.8-0.8,1.2-1.3c0-0.1,0-0.2,0-0.3c0.6-0.7,0.2-2.4,0.2-3.3 c-0.1,0-0.1,0-0.1,0.1c-0.4-1.3-1.1-1.8-1.9-2.7c-0.3,0-0.6-0.3-0.7-0.5c-0.1,0-0.1,0.1-0.3,0.1c0-0.1-0.1-0.1-0.1-0.3 c0,0-0.1,0.1-0.2,0.1c-0.1-0.2-0.3-0.5-0.6-0.4c-0.2-0.4-0.5-0.3-0.8-0.5l0.1-0.1c-0.2-0.1-0.6-0.1-0.6-0.4 c-0.3,0-0.7-0.2-0.8-0.5c-0.5,0.1-0.7-0.3-1.1-0.5c-0.1,0-0.1,0.1-0.2,0.1c0-0.1-0.1-0.1,0-0.3c-0.5,0-0.9-0.3-1.2-0.7 c-0.1,0.1-0.3,0.1-0.2-0.1c-0.1,0-0.1,0.1-0.2,0.1c0,0-0.1-0.1-0.1-0.2c-0.1,0-0.1,0.1-0.2,0.1c0-0.2-0.2-0.2-0.2-0.4 c-0.4,0-0.7-0.3-0.9-0.6c-0.2,0-0.2,0.1-0.3,0C404.2,12.4,404.3,12.3,404,12.3"/><path d="M423,4.2C422.9,4.2,423,4.2,423,4.2c-0.2-0.2-0.1,0-0.1,0.1c-0.3,0-0.5,0.5-0.7,0.7c0,0-0.1,0-0.1-0.1 C422,5,422,5.1,422,5.3c-0.1,0-0.1,0-0.1-0.1c-0.1,0.5-0.5,0.7-0.7,1.1c0,0.1,0,0.3,0,0.4c0,0-0.1,0-0.2,0.1c0,0.1,0,0.2,0,0.3 c-0.1,0.2-0.3,0.3-0.3,0.4c-0.1,0.2,0.1,0.8-0.2,0.7c0.1,0.4,0,0.6,0,1.2c-0.2,0-0.4,0.2-0.6,0.1c-0.1,0,0-0.2,0.1-0.2 c-0.2-0.4-0.2-0.8-0.1-1.2c0-0.1-0.1-0.1-0.1-0.2c0.1-0.2,0.1-0.6,0.1-1S420,6,420,5.7c0-0.1-0.1,0-0.1-0.1c0-1.2,0.1-2.6-0.1-3.9 c0.4-0.7,1.7-0.2,2.2-0.3c0.9-0.1,1.7,0.2,2.5,0c0.5,0.1,1.3,0.1,2,0c0,0.2,0.2-0.2,0.2,0.2c0.3-0.5,0.9,0.1,1.2-0.3 c0.1,0.1,0.2,0,0.3,0.2c0.1,0,0-0.1,0.1-0.2c0.3,0.1,0.4,0.1,0.6,0.2c0.1,0,0-0.1,0.1-0.2c0.2,0.3,0.5-0.2,0.5,0.2 c0.1,0,0.2-0.1,0.2-0.2c0.1,0.1,0.1,0.2,0.2,0.2c0-0.2,0.3,0.1,0.4-0.2c0.1,0.1,0.2,0.1,0.3,0.2c0.1-0.1,0.2-0.2,0.4-0.2l-0.1,0.1 c0,0,0.1,0,0.1-0.1c0.1,0,0,0,0,0.1c0.2-0.1,0.4-0.1,0.6,0.1c0.1-0.2,0.4-0.2,0.6-0.1c0.2-0.2,1,0,1-0.1c0.2,0.2,0.4-0.1,0.5,0.2 c0.3-0.2,0.5,0,0.7-0.2c0.1,0-0.1,0.1,0.1,0.2c0.3-0.1,1-0.1,1.1,0.1c0.1-0.1,0.5-0.2,0.4,0.1c0.3-0.3,0.3,0.1,0.5-0.2 c0.2,0.2,0.6-0.1,0.5,0.2c0.1-0.1,0.3-0.1,0.4,0c0.1,0,0-0.1-0.1-0.1c0-0.1,0.2,0.1,0.3,0.1c0.1,0,0.1-0.1,0.2-0.2 c0.1,0,0.1,0.1,0.1,0.2c0.3-0.3,0.9-0.1,1.2,0c0.1-0.3,0.4,0,0.5-0.3c0.3,0.1,0.6,0.1,1,0c-0.1,0.2,0.1,0.2,0.3,0.2 c-0.2,0.3,0,0.9-0.3,1.1c0,0.1,0.2,0.3,0,0.2c0.3,0.3-0.1,0.7,0.1,0.9c-0.1,0.3-0.1,0.7,0,1.1c-0.5,1.7,0.1,3-0.3,4.4 c-0.2-0.3-0.1,0.2-0.4,0.1c0.2-0.4-0.5-0.8-0.1-1.1c0-0.1-0.1,0-0.2-0.1c-0.1-0.5-0.1-0.8-0.4-1.2c-0.1-0.4-0.1-1-0.5-1.2 c-0.1-0.5-0.3-0.6-0.4-1.1c0-0.1-0.3,0-0.2-0.2c-0.1,0.2-0.4-0.5-0.6-0.7c-0.1-0.1-0.2-0.2-0.4-0.2c0-0.1,0.1,0,0.2-0.1 c-0.2,0-0.5-0.2-0.5-0.2c-0.3-0.5-0.8-0.4-1-0.8c-0.1,0-0.1,0.1-0.2,0.1c0-0.2,0,0-0.2-0.1c-0.1-0.3-0.3-0.1-0.4-0.4 c-0.6,0-1.2,0.1-1.4,0c-0.1,0.1-0.2,0.1-0.4,0c-0.1,0,0,0.2-0.2,0.2c-0.1-0.2-0.5,0.1-0.6-0.2c-0.1,0-0.1,0.3-0.3,0.1 c0,0.1,0.1,0.2-0.1,0.2c-0.1,0.9,0.1,1.6,0,2.6c0,0-0.1,0.2,0,0.4c0,0.7-0.2,1.6-0.2,2.3c0,0.6,0.1,1.4,0,2.2c0,0.1-0.3,0.3,0,0.4 c-0.1,0.4-0.2,1.2,0,1.6c0,0.1-0.2,0.3,0,0.3c-0.1,0.3-0.1,0.6,0,0.8c-0.3,0.9,0.3,2.4-0.1,3.9c0,0.1,0.1,0.1,0.2,0.1 c0.1,1.1,0,2.4,0,3.7c0.1,0.3,0.1,0.6,0.1,0.8c0.1,0.7,0.3,2,0.2,2.4c0.4,0.4,0.2,1.5,1,1.5c-0.1,0.2,0.2,0.1,0.2,0.3 c0.1,0,0.1-0.1,0.3-0.1c0,0.2,0.3,0.5,0.7,0.3c-0.2,0.2,0.3,0.1,0.4,0.1s0,0.1,0.1,0.2c0.3-0.1,0.5,0,0.7-0.3 c0.1,0,0.1,0.2,0.2,0.3c0.5,0,0.9-0.1,1.2,0.2c0.2-0.3,0.4-0.1,0.7-0.3c0.1,0.3,0.1,0.6,0,1c-0.9-0.1-1.4-0.2-2.3-0.1 c0-0.1,0-0.1,0-0.2c-0.2,0.4-0.6,0-0.8,0.3c-0.1,0-0.1-0.2-0.2-0.3c-0.1,0,0.1,0.1,0,0.2c-0.3-0.1-0.8,0.2-1-0.2 c-0.2,0-0.2,0.1-0.3,0.2c-1-0.2-1.9-0.1-2.5,0c-0.1-0.1,0-0.1-0.1-0.2c0,0.1-0.2,0.1-0.3,0c0,0,0.1,0.1,0.1,0.2 c-0.1,0-0.1-0.1-0.1-0.2c-0.4,0.2-0.9,0-1.1,0.2c-0.1,0.1-0.3,0-0.3-0.1c-0.2,0.1-0.4-0.1-0.5,0.2c-0.4-0.3-1.1,0-1.4-0.2 c-0.2,0.2-0.8-0.2-1,0.2c-0.4-0.2-0.8,0.1-1.1-0.2c-0.4,0.3-0.9-0.2-1.1,0.2c-0.5,0-1-0.1-1.6,0.1c0-0.2,0.2-0.5,0-0.7 c0.6-0.1,1.1,0.3,1.4-0.1c0.3,0.1,0.3,0.1,0.5-0.1l-0.1,0.1c0.4,0,0.7-0.2,1-0.1c0-0.2,0.4-0.1,0.6-0.4c0.1,0,0.1,0.1,0.1,0.2 c0.1-0.3,0.6-0.4,0.6-0.6c0.4,0.1,0.5-0.7,0.8-0.7c0-0.3,0.2-0.4,0.3-0.7c0.1,0,0.1,0,0.2,0.1c0-0.1-0.2-0.2,0-0.2 c0,0-0.1,0-0.1-0.1c0.4-0.6,0.3-2,0.5-2.5c-0.1-0.2-0.1-0.4,0-0.5c0-0.1-0.1-0.1-0.1,0c-0.1-0.5,0-1,0-1.6c0.3-0.4-0.2-1,0.1-1.3 c-0.4-0.7,0.1-1.6-0.1-2.2c0-0.1,0.1-0.1,0.1-0.2c-0.2,0,0-0.1-0.2-0.2c0.1-0.2,0-0.3,0.2-0.4c-0.2-0.3,0.1-1.2-0.1-1.7 c0-0.1,0.1,0,0.2-0.1c-0.2-0.8-0.1-1.7-0.1-2.5c0-0.1-0.1-0.1-0.1,0c-0.1-0.7-0.2-1.7,0-2.3c-0.3-0.4-0.1-0.9-0.3-1.4 c0.1,0,0.2-0.3,0-0.3c0-0.8,0-2-0.2-3.2c0.2-0.1-0.2-0.2,0.1-0.3c0-0.1-0.1,0-0.2-0.1c0-0.1,0.1-0.4-0.1-0.5c0-0.1,0.1,0,0.2-0.1 c0,0-0.1-0.1,0-0.1c-0.1,0-0.8-0.2-0.8,0.1c-0.1-0.2-0.3,0-0.4-0.2c-0.1,0,0.1,0.1-0.1,0.2c-0.1,0-0.4-0.2-0.5,0.1 c0,0-0.1,0-0.2-0.1c-0.6,0.2-1.5,0.2-1.8,0.7c-0.1,0-0.1,0-0.2,0c0,0.1-0.2,0.1-0.2,0.4C423.5,3.7,423.2,3.9,423,4.2"/><path d="M449.6,13.6c0.2,0,0.9,0,1.2,0.2c0.1-0.5,0.7,0.1,0.8-0.2c0,0.1,0,0.2-0.1,0.2c0.2,0.1,0-0.2,0.2-0.2s0.2,0.1,0.3,0 c0.3-0.3,0.9,0,1.3-0.1c0.3,0,0.5-0.3,0.8-0.3c0.4,0,0.6-0.1,0.8-0.2c0,0,0.1,0.1,0.2,0c0.7-0.3,0.7-0.6,1.3-0.8 c0-0.2,0.3-0.6,0.4-0.4c0.1-0.2,0.1-0.4,0.2-0.6c0.4-0.1,0.3-1,0.7-1.1c0-0.3,0.1-0.9,0-1.3c0.1,0,0.1,0,0.2,0 c-0.1-0.7-0.1-2-0.5-3.1c-0.1-0.2-0.3-0.7-0.3-0.7s0,0.2-0.1,0.1c-0.1-0.4-0.5-0.6-0.7-0.9c-0.1-0.2-0.2-0.7-0.6-0.5 c-0.1-0.3-0.4-0.5-0.7-0.4c0.1-0.1-0.1,0-0.1-0.2c-0.4,0-0.6-0.1-0.8-0.4c-0.9,0.2-1.4-0.3-2.1-0.4c-0.6,0-1.2,0.1-2.1,0.1 c-0.6,0.7-0.1,1.7-0.5,2.5c0.2,0.3,0.2,0.9,0,1c0.1,0,0.1,0.1,0.2,0.1c0,0.1,0,0.2-0.1,0.2c0-0.1,0-0.2-0.1-0.2 c0,0.5,0.4,1.3,0,1.7c0.2,0.1,0-0.2,0.2-0.1c-0.1,0.5-0.1,1.3,0,2c-0.1,0-0.3-0.1-0.2,0.1c0.1,0,0.1-0.1,0.2,0 c0,0.5,0,1.2,0.1,1.6c0,0,0-0.1-0.1,0C449.7,12.1,449.3,13.6,449.6,13.6 M442.1,26.3c0,0.1,0.2,0.1,0.2,0.3c0.3,0,0.5,0,0.7-0.2 c0.1,0.3,0.3-0.1,0.5,0.1c0.1,0,0-0.1,0-0.2c0.3,0.1,0.4-0.1,0.6-0.1c0-0.1,0.2-0.2,0.3-0.3c0,0.3,0.1-0.1,0.3,0 c0-0.2,0-0.4,0.3-0.4c0-0.2,0.1-0.6,0.4-0.8c0-0.7,0.2-1.4,0.2-1.7c0-0.1-0.1,0-0.2-0.1c0.2-1.1,0.2-2.3,0.2-3.6 c0-0.5,0.1-1,0.1-1.5c0-0.4-0.1-1,0.1-1.2c0-0.1,0-0.1-0.1-0.1c-0.1-0.7,0-1.8,0-2.8c0-0.8-0.2-1.8,0-2.2c-0.3-1.3,0-3.5-0.2-5.4 c-0.5-0.5,0.1-1.4-0.4-1.8c0.1-0.2-0.1-0.6,0.1-0.6c-0.5-0.3-0.6-0.9-1-1.2c-0.2-0.2-1.3-0.4-1.5-0.3c-0.1-0.1-0.3,0-0.3-0.2 c0,0.2-0.3,0.1-0.4,0.1c-0.2,0.1-0.1,0.3-0.3-0.1c0.2-0.1,0.2-0.3,0.1-0.5c0.2-0.1,0.4-0.1,0.6-0.2c1.3,0.1,3,0.1,4.5,0 c0,0.2-0.1,0-0.1,0.1s0.2,0,0.2-0.2c0.3,0.1,0.2,0.1,0.6,0.1c0.8-0.1,1.8,0,2.6,0c0,0,0.1-0.1,0.1-0.2c0.1,0.1,0.3,0.1,0.4-0.1 c0.2,0,0.2,0.2,0.2,0.3c0-0.1,0.2-0.1,0.2-0.3c0.7,0,1.4-0.1,1.8,0c0.1,0,0.1-0.1,0.1-0.2c0.2,0,0.1,0.1,0.3,0.2 c0.2-0.3,0.5,0.1,0.7-0.2c0.4,0,1,0.1,1.2-0.1c0.7,0.1,1.4,0.2,2,0.1c0.1,0,0.2,0.2,0.1,0.3c0.1,0,0.1-0.1,0.1-0.2 c0.8,0.1,1,0.5,1.6,0.5c0.2,0.2,0.3,0.3,0.6,0.3c0.3,0.3,0.7,0.6,0.9,0.8c0.1,0.2,0.2,0.5,0.4,0.4c0.2,0.2,0.2,0.6,0.3,0.8 c0,0.1,0.2,0.2,0.2,0.2c0,0.1-0.1,0.1-0.1,0.1c0.2,0.3,0.4,0.7,0.3,1.1c0.1,0,0-0.1,0.1-0.1c0.5,0.9,0.2,2.9,0.2,4 c-0.1,0-0.1,0-0.2,0.1c0,0.1,0.1,0,0.1,0.1c-0.3,0.3-0.2,1-0.7,1.2c0,0.2-0.1,0.3-0.1,0.4c-0.2-0.2-0.2,0.4-0.4,0.3 c0,0.5-0.6,0.4-0.5,1c-0.1,0-0.3,0-0.3,0.3c-0.4,0-0.4,0.4-0.8,0.4c-0.3,0.6-1.3,0.7-1.9,1.1c1.4,0.5,2.4,1.6,2.8,3.2 c0.3,0.3,0.6,1,0.9,1.5c0.1,0.1,0.2,0.5,0,0.4c0.4,0,0.3,0.8,0.6,1c0,0.5,0.6,1.2,0.6,2c0,0.1,0.2,0,0.2,0.1 c0.4,1.4,1.2,2.5,1.8,3.6c0.3-0.1,0.3,0.4,0.5,0.6c0.1-0.1,0.6,0.3,0.6,0.1c0.1,0.1,0.2,0.1,0.1,0.1c0.4-0.1,1.5,0.5,1.9,0.2 c0.1,0,0,0.1,0.1,0.2c0.1,0,0.2,0,0.2-0.2c0.1,0,0.3,0.2,0.3-0.1c0.4,0.2,0.6-0.3,1-0.3c-0.1,0.1,0,0.1,0,0.2c0.1,0,0-0.2-0.1-0.2 c0.2,0,0.4-0.3,0.6-0.4c-0.1-0.3,0.7-0.7,0.6-1.5c0.1,0.1,0.1,0,0.2,0c0.4-2.5,0.1-5.4,0.3-7.9c0.1,0,0.1-0.1,0.2-0.1 c-0.2-0.3,0-0.5-0.2-0.9c0.4-1.2,0-3.3,0.1-5c0-0.4,0.1-0.7,0-1.1c-0.1-1.1,0.2-2.1-0.2-2.8c-0.1-0.9-0.2-1.7-0.3-2.5 c-0.1,0-0.1,0.1-0.2,0.1c-0.2-0.5-0.5-0.7-0.6-1.2c-0.1,0-0.2,0-0.2-0.1c-0.2,0.2-0.2,0.2-0.3,0.2c-0.8-1.1-2.3-1.1-3.5-0.9 c-0.6-0.9,0.9-1.1,1.2-0.8c0.3-0.1,0.4,0,0.6-0.2c0,0.1,0,0.1,0.1,0.2c0.5-0.1,0.8-0.2,1.4,0.2c0.5-0.3,1.1,0,1.6-0.2 c0,0,0,0.1,0,0.2c0.1,0,0.1-0.2,0.1,0c0.1,0,0.1-0.1,0.1-0.2c0.1,0,0.1,0.1,0.2,0.2c0.1-0.1,0.2-0.2,0.3-0.1c0.1,0,0-0.1,0-0.2 c0.6,0.2,0.9-0.1,1.4,0.1c0.1-0.2,0.4-0.1,0.5,0.1c0.4-0.3,1.1-0.2,1.4-0.1c0-0.2,0.4,0,0.4-0.2c0.1,0,0.1,0.1,0.1,0.2 c0.1-0.1,0.3-0.3,0.4-0.1c0.1,0,0-0.1,0.1-0.1c0.7,0.1,1.3,0.1,1.9,0c0.1,0.3,0.2-0.1,0.4,0c0.4,0.1,1.1,0.3,1.4,0.1 c0,0.1,0.2,0,0.2,0.2c0.1-0.2,0.2,0,0.2-0.2c0.3,0.2,0.7-0.2,0.8,0.2c0.6-0.3,1.7-0.2,2.3-0.2c0-0.1-0.1,0-0.1-0.1 c0.8,0,1.4-0.1,2.3,0c0.1,0.1,0,0.2,0,0.3c-0.2,0.8,0,1.7,0,2.5c-0.1,0-0.2,0.4,0,0.4c-0.1,1,0.2,1.6-0.1,2.4c0.1,0.3,0.1,0.8,0,1 c0,0,0.1-0.1,0.2-0.1c-0.2,0.2,0.3,0.6-0.1,0.7c0.2,0.3,0,0.4,0.1,0.8c0,0,0-0.1-0.1-0.1c-0.5,1.1-1.2-0.3-1.1-1.2 c-0.1-0.2-0.1-0.1-0.2-0.2c-0.3-1.1-0.6-1.9-1.1-2.5c0-0.1,0.1-0.1,0.1-0.2c0,0.4-0.6-0.6-0.6-0.6c-0.1,0-0.1,0-0.2,0 c-0.1-0.3-0.3-0.8-0.5-0.8c0.1-0.1,0.1-0.2-0.1-0.2c-0.1,0,0,0.1,0,0.2c-0.6-0.5-1.2-0.9-2.1-0.9c0,0-0.1-0.1-0.1-0.2 c-0.5,0-0.9,0-1.5,0c-0.3,0-0.6-0.1-1-0.1c-0.2,0-0.5,0.1-0.6,0.1c-0.3-0.1-0.7,0.1-0.9,0.2c0,2.5-0.4,4.8-0.1,6.8 c-0.3,0.7,0,2.1,0,2.7c0.9,0.3,2.6,0.1,3.2-0.8c0.4,0.1,0.1-0.5,0.5-0.5c0.3-1.2,0.7-2.2,0.7-3.5c0.1,0,0.1,0.1,0.2,0.1 c-0.2-0.2-0.1-0.3,0-0.5c0.2-0.1,0.3,0.2,0.3-0.1c0.1,0,0,0.1,0.1,0.1s0-0.1,0-0.2c0.3,0.1,0.3-0.2,0.6-0.2 c-0.3,0.9,0.1,2.4-0.3,3c0,0.4,0.3,0.2,0.1,0.5c0.1,0.1,0.1,0.2,0.2,0.4c0,0.1-0.3,0.2,0,0.2c-0.3,0.2-0.1,0.7-0.3,1.1 c0.2,0.3-0.2,1.4,0.3,1.9c-0.2,0.1-0.2,0.4,0,0.5c-0.3,0.5,0.3,1.1-0.1,1.6c0.2-0.1-0.2,0.4,0.1,0.5c-0.1,0.1-0.1,0.1-0.2,0.2 c0.2,1.2-0.2,2.2,0,3.4c-0.1-0.2-0.2-0.1-0.2,0.2c-0.4,0.1-0.5,0.2-0.9,0.1c-0.1,0,0-0.3-0.2-0.3c0.1-0.2,0-0.5,0.2-0.6 c-0.2-0.6-0.1-1.5-0.1-2c-0.3-0.2-0.1-0.5-0.4-0.7c0-0.1,0.1-0.1,0.1-0.2c-0.2,0.1-0.3-0.6-0.5-0.8c-0.2-0.3-0.4-0.4-0.5-0.7 c-0.2-0.3-0.5-0.2-0.6-0.5c-0.2,0.2-0.6-0.1-0.8-0.3c-0.3,0.1-0.8,0-1.2,0c-0.2,0.1-0.4,0.4-0.2,0.6c-0.2,0.7-0.2,1.4-0.1,2.2 s0.1,1.5,0.1,2.4c0,0.5-0.1,1.1-0.1,1.6c0,1.6,0.4,3.1,0.1,4.7c0.2-0.1,0.4,0.1,0.4,0.4c0.1,0,0-0.1,0.1-0.2 c0.4,0.1,0.8-0.1,0.9,0.2c0-0.3,0.8,0.2,0.5-0.1c0.1-0.1,0.4-0.1,0.4,0.1c0.1,0,0.1-0.1,0.1-0.2c0.1,0,0.1,0.1,0.1,0.2 c0.2-0.1,0.4-0.1,0.6,0c0.2-0.1,0.1-0.1,0.1-0.2c0.3,0.2,0.6,0.2,0.8,0.1c0.1,0,0.1,0.1,0.2,0.2c0.1,0,0.6-0.4,0.7-0.2 c0.6-0.3,1.7-0.6,2.1-1.4c0.1,0,0.1,0,0.1,0.1c0.3-0.5,0.6-0.9,0.8-1.3c0,0,0.1,0,0.1,0.1c0-0.6,0.8-1.1,0.7-1.7 c0.1,0,0.2,0,0.3-0.1c0-0.2-0.1,0-0.2,0c0-0.1,0.1-0.2,0-0.3c0.3,0.2,0.1-0.2,0.2-0.4c0.1-0.4,0.3-0.6,0.3-1 c0.1,0,0.1,0.1,0.2,0.1c0-0.4,0.2-0.5,0.2-1c0.1,0,0.1,0,0.2-0.1c-0.1-0.1,0.1-1.3,0.7-0.9c-0.2,0.2,0.1,0.4,0.1,0.7 c-0.1,0.1-0.1,0-0.2,0.1c0.2,0.1,0.1,0.2,0.2,0.4c-0.1,0-0.1,0-0.1-0.1c-0.2,0.1,0.2,0.3-0.1,0.2c0.1,0.2,0.2,0.2,0.2,0.5 c0,0-0.1,0.1-0.2,0.1c0.2,0,0,0.4,0.2,0.5c-0.1,0.2-0.1-0.1-0.2-0.1c-0.1,0.5,0.2,0.9,0,1.1c0,0.1,0.1,0,0.2,0.1 c0,0.1-0.1,0.2,0,0.3c0,0.1-0.1-0.1-0.2,0.1c0.1,0.1,0.1,0.2,0.2,0.3c-0.2,1.5-0.3,3.5-0.1,4.8c0.1,0.3-0.2,0.8-0.6,0.8 c-0.6-0.2-1.3-0.3-1.8-0.1c-0.1,0,0,0,0-0.1c-0.1,0-0.2,0-0.2,0.2c0-0.1-0.2,0-0.2-0.2c-0.3,0.1-0.9,0-1.3,0s-0.9,0.2-1.4,0 c-0.1,0-0.1,0.1,0,0.1c-0.7,0.1-1.1,0.2-1.7,0.1c-0.4,0.1-0.3,0.1-0.7,0.2c0-0.1,0.1-0.1,0.1-0.1c-0.1,0.1-0.3-0.1-0.3,0.1 c-0.2-0.1-0.3,0-0.4-0.2c0,0.1-0.5,0.1-0.8,0.2c-0.4-0.3-1,0-1.7,0c-0.5,0-1.1-0.2-1.5-0.1c0,0,0,0.1-0.1,0.1s-0.3-0.3-0.4,0 c-0.6-0.1-1.9-0.1-2.8,0.2c-0.1,0-0.1-0.2-0.2-0.2c-0.1,0.3-0.5-0.2-0.7,0.1c-0.4-0.2-1-0.1-1.1,0.1c-0.1,0-0.1-0.1-0.1-0.2 c-0.1,0,0,0.1-0.1,0.2c-0.1,0-0.3,0-0.3-0.2c-0.6,0.2-1,0.3-1.4,0c0,0,0.1,0.1,0.1,0.2c-0.1-0.1-0.4-0.1-0.4,0.1 c-0.1-0.1-0.3-0.1-0.2-0.3c-0.2,0.1-0.5,0.1-0.5-0.1c-0.2,0.2-0.5-0.1-0.7,0.2c-0.1-0.1-0.4,0-0.2-0.2c-0.3,0.2-0.4,0.2-0.7,0.1 c0,0-0.3,0.4-0.3,0c-0.4,0.2-1.1,0-1.4,0.2c-0.5-0.4-0.9-0.7-1.2-1.2c0-0.1,0-0.1,0.1-0.1c-0.2-0.2-0.4-0.6-0.4-0.8 c-0.2,0-0.3-0.5-0.3-0.8c-0.4-0.1-0.4-1.1-0.8-1.5c0-0.1,0.1-0.1,0.1-0.2c-0.5-0.5-0.4-1.4-0.9-1.8c0,0,0-0.1,0.1-0.2 c-0.2-0.1-0.1-0.4-0.3-0.4c-0.1-0.9-0.4-1.3-0.8-2.2c0-0.1-0.5-0.5-0.2-0.4c-0.3-0.2-0.4-0.7-0.7-0.7c0-0.3-0.3-0.3-0.3-0.6 c-0.1,0-0.1,0.1-0.2,0.1c0-0.1,0-0.2,0-0.3c-0.5-0.1-0.6-1.1-1.1-1.1c-0.2,0-0.5,0-0.7-0.2c-0.1,0,0,0.1,0,0 c-0.6-0.3-1.7-0.1-2.4-0.1v-0.1c-0.1,0.1-0.2,0.2-0.5,0.1c-0.1,0.2,0,0.1-0.4,0.1c0,1.1,0.2,2,0,3c0,0,0.2,0.1,0,0.1 c0.1,0.8,0.1,1.8,0.1,2.7c0,0.4,0.1,1,0,1.2c0.4,0.5,0.1,1.6,0.3,2.2c-0.1,0.7,0.2,1.2,0.5,1.7c0.1,0,0.1-0.1,0.3-0.1 c0,0.3,0.2,0.1,0.4,0.1c0.4,0.1,1.2,0.4,1.5,0.1c0.1,0,0,0.1,0,0.2c0.3-0.2,0.7,0,1.1,0c-0.1,0.3-0.2,0.6-0.2,0.9 c-0.3,0-0.4-0.1-0.6-0.2c-0.5,0.3-1.5,0-2.2,0.2c-0.5-0.2-0.7,0-1.2-0.1c0.1,0.1,0,0.1,0,0.2c0-0.2-0.2,0.2-0.2-0.2 c-0.6,0.3-1.4,0.1-2,0.2c-0.1-0.1,0-0.1,0-0.2c-0.1,0-0.2,0.2-0.2,0c0,0.1-0.2,0.1-0.3-0.1c-0.1,0,0.1,0.1-0.1,0.2 c-0.6,0-1.1-0.1-1.4,0c-0.1,0-0.6-0.1-0.6,0.1c-0.1-0.1-0.3,0-0.4-0.1c-0.1,0.1,0,0.1-0.1,0.2c-0.3-0.2-1.1-0.1-1.5,0 c-0.1,0,0-0.1,0-0.2c-0.1,0.3-0.5-0.1-0.8,0.1c0-0.2-0.1-0.2-0.2-0.2C441.6,26.6,441.7,26.7,442.1,26.3"/><path d="M488.4,2c-0.1,0-0.1,0.1-0.1,0.2c-0.1-0.1-0.1,0-0.3,0c0,0-0.1-0.1-0.1-0.2c-0.4,0.3-1.1-0.1-1.5,0.3 c0-0.9,0.2-0.9,0.8-0.9c0.2,0,0.7-0.2,0.7,0.1c0.1-0.1,0.1-0.2,0.3-0.2c0,0.1,0,0.1,0,0.2c0.1,0,0.1-0.1,0.1-0.2 c0.1,0,0,0.1,0.1,0.2c0.1,0,0.1-0.1,0.1-0.2c0.1,0,0.1,0.1,0.2,0.1c0.2-0.3,0.3,0,0.4-0.2c0.1,0,0,0.1,0.1,0.2 c0.1-0.2,0.4-0.1,0.4,0.2c0.1,0,0-0.1,0-0.2c0.2,0.1,0.3,0,0.5,0.2c0-0.3,0.4,0,0.4-0.2c0.4,0.1,1,0.1,1.5,0c0.1,0,0,0.1,0.1,0.2 c0.9-0.2,1.8-0.3,2.6-0.1c0.1,0,0-0.2,0.2-0.2c0,0.1-0.1,0.1-0.1,0.2c0.1,0,0.1-0.1,0.2-0.2c0.4,0.1,1,0.1,1.5,0.1 c0,0-0.1,0.1-0.1,0.2c0.1-0.2,0.3,0,0.3-0.3c0.1,0,0.1,0.2,0.2,0.3c0.1,0,0-0.1,0.1-0.2c1.8,0,3.1,0.2,5.1,0c-0.2,0.2,0,0.1,0.1,0 c0.1,0.1,0.2,0.1,0.3,0.2c0.1-0.3,0.7,0.1,0.7-0.2c0.7,0.3,1.3-0.1,2,0c0,0-0.1,0.1,0,0.1c0.2-0.1,0.4-0.2,0.4,0.1 c0.2-0.2,0.3-0.2,0.5-0.3c0.2,0.5,0.1,1.7,0,2.3c0.1,0.7,0.1,1.8,0,2.8c0.2,0.4-0.1,2,0,2.8c-0.1,0.2-0.3,0.2-0.5,0.3 c0-0.1,0-0.1,0-0.2c-0.2,0.4-0.4,0-0.6-0.1c0-0.6-0.4-1.3-0.3-1.7c-0.2-0.2-0.5-0.5-0.5-0.8c-0.1,0,0,0.1-0.1,0.1 c-0.2,0,0-0.3-0.3-0.3c0-0.8-0.9-1-0.9-1.6c-0.3,0-0.4-0.2-0.5-0.4c-0.1,0.3-0.2-0.1-0.4-0.3c-0.3-0.3-0.8-0.5-1-0.5 c0.2-0.5-0.3-0.3-0.3-0.6c0,0.1-0.3,0-0.3-0.2c-0.2,0-0.6,0-0.7-0.2c-0.3,0.2-0.4-0.3-0.6,0c-0.2,0,0.1-0.1,0-0.2 c-0.2,0-0.5,0.4-0.6,0.1c-0.5,0.3-1.2,0-1.9,0c-0.1,0.1-0.2,0.4-0.3,0.4c0.1,0.2,0.2,0.7,0,0.7c0.2,1.6-0.1,3.3-0.1,5 c0,0.5,0.2,1.1,0.2,1.6c0.1,0.7-0.2,1.4,0.1,2c-0.4,0.6,1.2,0.8,1.4,0.5c0.7,0.1,0.8-0.5,1.2-0.6c0,0-0.1-0.1-0.1-0.2 c0.5-0.3,0.8-0.5,0.9-1.2c0.1,0,0.1,0,0.2,0c0.1-0.5,0.1-1.2,0.4-1.6c-0.1-0.3,0-0.9,0.2-1.1c-0.2-0.2,0-0.2-0.1-0.4 c0.1,0,0.1,0,0.2-0.1c0-0.1-0.1,0-0.2-0.1c0.1-0.4,0.1-0.9,0.2-1.2c0.4,0,0.7,0.1,0.8,0c0.1,1.5,0.2,3,0,4.3c0,0.1,0.1,0,0.1,0.1 c-0.3,0.4,0.1,1.3-0.3,1.4c0,0.1,0.1,0.1,0.1,0.2c-0.2,1-0.2,2.9,0.1,3.6c0,0.1-0.1,0-0.2,0.1c0.1,0.7-0.1,1.3,0.1,2.1l-0.1-0.1 c0,0.1,0,0.2,0.1,0.2c-0.3,0.9,0.2,2-0.2,3.2c-0.1,0-0.1-0.1-0.2-0.1c0-0.2,0.1-0.2,0.2-0.3c-0.1-0.2-0.1,0.1-0.2-0.1 c-0.1,0.1-0.2,0.2-0.2,0.4c-0.1,0-0.1,0-0.1,0.1c-0.1,0-0.3-0.3-0.1-0.3c0-0.6-0.4-1.6-0.3-2.1c0,0-0.1-0.3-0.1-0.1 c-0.1-0.2,0-0.5-0.3-0.6c0.1-0.4-0.3-0.9-0.2-1.1c-0.3,0,0-0.2-0.3-0.2c0.1-0.8-0.7-1.2-0.7-1.7c-0.1-0.1-0.3-0.1-0.3-0.4 c-0.1,0,0,0.1,0,0.1c-0.5,0-1.1-0.6-1.5-0.3c-0.2-0.2-0.3,0-0.5,0c-0.3,1.3,0.2,3.8-0.1,5.3c0,0.1,0.1,0,0.1,0 c0,0.7,0.1,1.5,0,2.3c0,0.1-0.1,0.1-0.1,0.1c0,0.1,0.1,0.2,0.2,0.3c0.1,0.7,0,1.6-0.1,2.3c0,0.1,0.1,0.1,0.2,0.1 c-0.5,0.9,0.8,0.9,1.9,0.8c-0.1,0.2,0.4,0.2,0.5-0.1c0.5,0.1,0.5,0,1,0.2c0,0,0.1-0.1,0.1-0.2c0.1,0.2,0.1,0,0.2,0.1 c0-0.3,0.5,0,0.6-0.3c0,0.2,0.2-0.1,0.3,0.1c0.2-0.3,0.2-0.2,0.6-0.2c0.4-0.5,0.9-0.8,1.4-1.1c0.1-0.2,0.3-0.5,0.6-0.5 c0-0.1-0.1-0.1-0.1-0.2c0.1,0.1,0.2-0.2,0.2-0.2c0.1-0.1,0.4-0.2,0.5-0.3c0.2-0.2,0-0.8,0.5-0.8c-0.1-0.2,0.2-0.4,0.1-0.5 c0.5-0.1,0.2-0.8,0.6-1c0-0.1-0.1,0-0.1-0.1c0.3-0.5,0-1.4,0.5-1.6c-0.3-0.2-0.1-0.3-0.1-0.5c-0.3-0.2,0-0.6,0.3-0.8 c0.1,0,0.1,0,0.2,0.1c0.1-0.1,0.2-0.1,0.3-0.3c0,0.3,0.1,0.8,0,1.1c0.2,0.1,0,0.2,0.2,0.3c-0.3,0.2,0.2,0.3-0.1,0.4 c0.2,0.5,0,1.2,0.2,1.7c-0.1,0-0.1,0-0.2,0c0.4,0.5,0.1,1.5,0.2,2.2c0,0.1-0.1,0-0.2,0c0.2,0.2,0.2,1.2,0.2,1.7c0,0-0.1-0.1-0.1,0 c0,0.5,0.1,1.2,0.2,1.9c-0.2,0-0.3,0.3-0.7,0.3c-0.1-0.1-0.1-0.2-0.2-0.3c-0.2,0,0,0.2,0,0.3c-0.2-0.1-0.7-0.2-0.8,0 c-0.3-0.2-0.8,0.2-1-0.2c-0.5,0.4-1-0.2-1.4,0.2c-0.5-0.2-1.3-0.1-1.6-0.1c-0.1,0-0.1,0.2-0.1-0.1c-0.2,0.2-0.2,0-0.5,0.1 c0-0.1-0.1-0.1-0.4-0.1c0-0.1-0.1-0.1-0.1-0.2c-0.1,0.1-0.7,0.1-0.6,0c-0.1,0-0.2,0.1-0.3,0.2c-0.2-0.2-0.7,0-0.9,0.1 c-1.2-0.3-1.9,0.1-2.9-0.2c-0.1,0-0.1,0.1-0.1,0.2c-0.2-0.2-0.5,0-0.9-0.2c-0.1,0-0.1,0.1-0.1,0.2c-0.2-0.1-0.6,0-0.9,0 c-0.6,0.1-1.3,0.1-2,0.2c-0.1,0-0.1-0.1-0.2-0.1s-0.2,0.1-0.3,0.1c-0.5,0-0.8,0-1.4,0c0,0,0.1,0.1,0.1,0.2c-0.1-0.2-0.3-0.1-0.5,0 c0-0.1-0.2,0-0.1-0.2c-0.1,0.2-0.4-0.1-0.6,0c-0.1,0-0.1,0.2-0.1-0.1c-0.6,0.2-0.8,0-1.4,0.2c0.1-0.4,0-0.7,0-1 c0.3,0.1,0,0,0.2-0.2c0.7,0.1,1.4-0.1,1.9,0c0.1-0.1,0-0.1,0.1-0.2c0.1,0,0,0.1,0.1,0.2c0.5-0.3,1.3-0.3,1.6-1.1 c0.1,0,0.1,0,0.2,0.1c-0.1-0.3,0.2-0.8,0.4-0.9c0.4-1.5,0.4-2.5,0.6-4.1c0,0,0.1-0.1,0.2-0.1c-0.3-1.2,0-2.8-0.1-3.8 c0-1.4,0-2.7-0.1-4.2c0.3-0.4-0.1-0.8,0.2-1.3c0-0.1-0.1,0-0.1,0c0-0.2,0-0.7,0.1-0.8c0-0.1-0.1,0-0.1-0.1 c0.1-0.3-0.1-0.5-0.1-0.8c0-0.2,0-0.3,0-0.5c0-0.3,0-0.7,0-1.1c0-0.6,0-1.2-0.1-1.8c-0.1-0.4-0.2-0.8-0.3-1.1 c-0.1-0.2-0.1-0.3-0.2-0.4c-0.1-0.3-0.4-0.3-0.6-0.6c0-0.1,0.1-0.3-0.2-0.3c0-0.4-0.3-0.5-0.4-0.8c-0.1,0.1-0.1,0-0.1,0 c-0.4,0.2-0.7-0.4-0.9-0.5C488.9,2.2,488.4,2.3,488.4,2"/><path d="M513.7,1.5c0.2-0.1-0.2,0,0-0.2c0.1-0.1,0.2,0,0.2,0.1c0.2-0.3,0.7,0,0.9-0.2c0.9-0.1,2.3,0.2,3.2,0.1c0.1,0,0,0.1,0,0.2 c0.2,0.1,0.1-0.2,0.3-0.2c0,0-0.1,0.1-0.1,0.2c0.1,0,0.1-0.1,0.1-0.2c0.1,0.2,0.7,0,1,0c0.1,0,0.4,0.3,0.3-0.1 c0.3,0.2,0.6,0,0.8,0.2c0.2-0.1,0.4-0.2,0.7,0c0.1-0.1,0.3-0.1,0.4-0.2c0.1,0.3,0.3,0.1,0.5,0c0.3,0,0.6,0.1,0.7,0.1 c0.1,0,0.1-0.2,0.1,0.1c0.1,0,0.1-0.1,0.1-0.2c0,0.1,0.3,0.1,0.3,0.2c0.1-0.2,0.3,0.1,0.8,0c-0.1,0.3,0.3-0.1,0.3,0.1 c0.1-0.2,0.7,0,1-0.2c0,0.2,0.4,0,0.3,0.2c0.1-0.1,0.2,0,0.2-0.2c0.1,0,0.1,0.1,0.1,0.2c0.1-0.1,0.2-0.1,0.3-0.2 c0,0,0.2,0.2,0.2,0c0.1,0,0.1,0.1,0.1,0.2c0.2-0.2,0.3,0.1,0.5-0.2c0.2,0.2,0.5,0.1,0.8,0.1c0.1,0.1,0.2,0.1,0.2,0.3 c0-0.1,0.1-0.2,0.2-0.3c1.1,0,2.4,0.1,3.2-0.1c0,1.9-0.3,2.6-0.1,4.2c-0.3,0.9,0,1.7,0,2.4c0,0.6-0.1,1.2,0,1.8 c-0.1-0.1-0.2,0.2-0.3,0.3c-0.4,0-0.5,0-0.8-0.1c0-0.2,0.1-0.3,0.2-0.3c-0.1-0.2,0.1-0.6-0.2-0.5c0.2-0.3-0.2-1.4,0-1.6 c-0.6-0.4-0.2-0.9-0.8-1.4c0-0.7-0.6-1.3-0.7-1.7c0-0.1-0.1-0.1-0.3-0.1c-0.1-0.3-0.5-0.4-0.8-0.5c0,0-0.1-0.1-0.1-0.2 c-0.5,0-1.1-0.8-1.6-0.4c-0.2-0.2-0.4-0.2-0.7-0.3c0.1,0-0.2-0.2-0.4-0.2c-0.1,0,0,0.1-0.1,0.1s-0.3-0.1-0.5,0 c-0.1-0.3-0.3,0.1-0.4-0.2c-0.7,0.1-1.1,0.3-1.3,0.9c0.2,0.2-0.1,1.1-0.1,1.5c0,0.1,0.1,0,0.1,0.1s-0.1,0.2-0.1,0.2 c0,0.1,0.1,0,0.1,0.1c0,0.8,0,1.4,0,2.4c0,0.1-0.1,0.2-0.1,0.3s0.1,0.1,0.1,0.2c0,0.8-0.2,1.6-0.3,2.4c0,0.1,0,0.1,0.1,0.2 c-0.1,0-0.2,0.3,0,0.3c-0.1,0,0.1,0.7,0.1,1.1c0,0.8-0.1,1.6,0,2.3c0,0.2,0.1,0.5,0.1,0.7c0,0.3-0.2,0.7-0.2,1 c0,0.1,0.1,0.1,0.2,0.3c0.1,0.3-0.1,0.8-0.1,1.1c0,1.1,0,2.3,0.1,3.4c0,0.3,0,0.6,0,0.9c0,0.1,0.1,0.7,0.1,0.8 c0.2,0.8,0.5,1.6,0.4,2.5c0,0.1,0.1,0.1,0.2,0.1c0.3,1.2,1.3,0.9,2.4,1.2l-0.1,0.1c0.5,0.1,1,0.2,1.5,0.2c0.1,0,0-0.1,0.1-0.2 c0.1,0.3,0.3-0.1,0.3,0.2c0.1,0,0.1-0.2,0-0.2c0.7-0.3,0.5,0.7,0.2,0.8c-0.9,0.1-1.9-0.4-2.6-0.1c-0.1,0,0-0.1-0.1-0.2 c-1.4,0.3-3,0.1-3.9,0.2c-0.2,0-0.2-0.1-0.3-0.2c-0.1,0,0,0.1-0.1,0.2c-0.1,0-0.2-0.1-0.2-0.2c-0.7,0.3-2-0.2-2.9,0.2 c-0.4-0.2-1.2-0.1-2,0c0-0.1,0-0.1-0.1-0.2c-0.5,0.4-1.2-0.1-2,0.1c0-0.1,0.2-0.1,0.1-0.2c-0.1,0-0.1,0.1-0.2,0.1 c0,0,0.1,0.1,0.1,0.2c-0.2-0.2-0.3-0.2-0.5-0.2c-0.1-0.2,0.1-0.3,0.1-0.5c0.1,0,0.1,0.1,0.2,0.1c0-0.2,0.2-0.3,0.4-0.4 c0.2,0.2,0.6-0.1,0.6,0.2c0.1,0,0.1-0.1,0.2-0.2c0.6,0.1,1.3,0,2-0.2c0.1,0,0-0.1,0.1-0.2c0.8-0.2,1.2-0.4,1.4-0.9 c0-0.1-0.1-0.3,0-0.4c0.2-0.4,0.4-0.9,0.4-1.3c-0.1-0.6,0.2-1.6-0.1-2.3c0-0.9,0.2-1.7,0-2.3c0.2-1.6-0.1-2.1-0.1-3.8 c0-0.4,0-0.6,0-1c0-0.1,0-0.2,0-0.3c0-1.4,0-3.3,0-4.8c-0.1,0-0.1,0-0.1,0.1c0-0.2,0.1-0.6-0.1-0.7c0.1-0.2,0.1-0.2,0.2-0.4 c0-0.1-0.1,0-0.1-0.1c0.2-0.3,0-1.4,0.3-1.7c-0.2-0.9,0-1.7-0.2-2.8c0-0.1,0-0.1,0.1-0.2c-0.2-0.2-0.3-0.5-0.5-0.6 c-0.1,0-0.1,0.1-0.1,0.2c-0.1,0,0-0.2-0.1-0.2s0,0.1-0.1,0.2c-0.8-0.1-1.7-0.1-2.3,0.4c-0.1,0-0.2,0-0.2-0.1 c-0.1,0.1-0.3,0.1-0.3,0.3c-0.1,0,0-0.1-0.1-0.2c-0.1,0.1-0.2,0.2-0.3,0.1c0,0.4-0.8,0.5-0.8,1c-0.1,0-0.1,0-0.1-0.1 c-0.6,0.7-1.6,1.5-1.7,2.7c-0.2,0.1-0.2,0.2-0.2,0.3c-0.2-0.1-0.1,0.1-0.3,0.1c0,0.2,0.2-0.1,0.2,0.1c0.1,0.2-0.2,0-0.2,0.2 c0.3,0-0.2,0.2,0,0.3c0,0.1-0.1,0.1-0.2,0.1c0,0.1,0.1,0.1,0.2,0.1c-0.2,0.5-0.3,1-0.3,1.5c-0.1-0.1-0.1-0.2-0.2,0.2 c-0.3-0.1-0.3,0.1-0.7,0.1c0-0.2-0.1-0.7,0.1-0.9c0-0.1-0.1,0-0.1-0.1c0.2-2.2,0.4-4.8,0.2-7.2c0.4-0.3,0.9,0.1,1.1-0.1 c0.2,0.2,0.2,0.1,0.4-0.1c0.2,0,0.7,0.1,1.1,0c0,0.2-0.1,0-0.1,0.1s0.2,0,0.2-0.1C513.2,1.4,513.4,1.3,513.7,1.5"/><path d="M202.7,20.5c0.4-0.2,0.5,0.2,0.9,0c0.2-0.3,0.1-0.7-0.3-0.8C203.2,20,203,20.2,202.7,20.5 M214.8,18.9 c0.5-0.4,0.6-1.1,0.7-1.8c-0.2-0.1-0.3-0.4-0.6-0.3C214.9,17.6,214.8,18.2,214.8,18.9 M215.1,15.7c0-0.1,0-0.3,0-0.4 c-0.1,0-0.1,0-0.2,0C214.8,15.5,214.7,15.8,215.1,15.7 M215.7,13.3c0.2,0,0,0.3,0.2,0.3c0.4-0.2,0.5-0.8,0.6-1.1 C216.2,12.6,216,13,215.7,13.3 M214.9,12.1c-0.3-0.1-0.7-0.2-0.9-0.5c0,0.7,0.3,1.1,0.5,1.6c0.2-0.1,0.3,0,0.5-0.2 c0-0.3,0.1-0.7,0.5-0.8c0-0.6,0.5-0.9,0.1-1.4c-0.1,0-0.2,0-0.2,0.1C215.2,11,215.6,11.9,214.9,12.1 M213.7,9.7 c-0.4,0.1-0.4,0.1-0.6,0.1c0.3,0.4,0.5,0.9,0.7,1.3c0.4-0.2,0.7-0.8,0.6-1.1C214.3,10,213.8,9.9,213.7,9.7 M212.9,3.2 c0.8,0,0.4,0.9,0.9,1.2c0.1-0.5,0.1-1.1-0.2-1.6c-0.4,0-0.4-0.4-0.8-0.4C212.8,2.7,212.9,2.9,212.9,3.2 M211.2,1 c1.4-0.1,2.8,0.6,3.6,2c-0.1,0.2,0,0.5-0.2,0.7c0,0.1,0.2,0,0.2,0.2c-0.3,2-1.5,3.4-2.5,4.6c1.5,0.2,4.3,0.8,4.6,2.5 c0.3-0.1,0.1,0.3,0.4,0.3c0.1,1.1,0.4,2,0.3,2.9c-0.1,1.6-0.9,2.8-1.3,4.5c-0.1,0.1-0.2,0.1-0.3,0.1c-0.1,1-1.1,1.6-1.3,2.3 c-0.7,0.2-0.6,1.1-1.3,1.3c0,0.2,0,0.4,0,0.6c-0.5,0-0.1,0.7-0.6,0.7c-0.1,1-0.7,1.6-1.8,1.3c-0.4,0.2-0.4,0.7-0.7,1.1 c-0.4,0.1-0.5-0.1-0.6-0.3c-0.3,0.2-0.5,0.2-0.9,0.2c-0.1,0,0,0.2-0.1,0.3c-0.8,0.1-1.7,0.7-2.4,0.5c-0.1,0.3-0.7,0.1-1.1,0.3 c0-0.1,0-0.1,0-0.1c-0.2,0.1-0.5,0.1-0.7,0.2c-0.4-0.2-1.1-0.1-1.6-0.2c-0.1-0.4-0.4-0.1-0.5-0.1c-0.7-0.2-1.1-0.7-1.8-1.1 c-0.3-0.9-0.7-1.9,0-2.7c-0.2-0.5,0.4-0.8,0.3-1.5c0.6-0.1,0.3-1,0.9-1.1c-0.1-0.2-0.1-0.1,0-0.4c0.1,0,0.1,0.1,0.2,0.1 c0.1-0.4,0.4-0.6,0.6-1c0.6-0.1,0.7-0.9,1.5-0.7c0.5,0.1,0.9,1.6,0.7,2.4s-0.6,1.3-0.8,1.6c-0.3,0-0.4-0.2-0.6-0.2 c-0.2,0.3-0.9,0.4-0.9,0.9c-0.2-0.1-1,0.3-1.2-0.2c-0.6,1.1,0.2,3,1.8,2.7c0.1,0,0.1,0.1,0.2,0.3c0.7,0,1.2-0.2,1.5,0.1 c0.1,0,0-0.2,0.2-0.2c1.7,0.1,3.5-0.7,4.9-1.4c0-0.1,0-0.2-0.1-0.2c0.5-0.3,0.8-0.9,1.1-1.3c0.5-0.7,1.1-1.2,1.4-1.8 c0.1-0.2,0-0.3,0-0.4c0.4-0.6,0.9-1.4,0.7-2.6c0.3-0.6,0.3-1.1,0.4-1.7c0.1,0,0.1,0,0.2,0c-0.2-0.1-0.1-0.2-0.1-0.5 c0.4,0.1,0-0.3,0.3-0.2c-0.4-1.3-0.3-2.9-1.1-4.1c0-0.1-0.1-0.4,0-0.4c-0.1-0.1-0.3-0.1-0.4-0.2c0.2-0.5-0.6-0.7-0.9-0.9 c-0.1-0.1-0.1-0.4-0.3-0.5c-0.3-0.1-0.9,0.2-1,0.6c-0.6,0.2-0.9,0.5-1.2,0.9c-0.7,0-1,0.6-1.4,0.2c-0.8,0.5-2.3,0.4-1.6-0.7 c0.4,0,0.5-0.1,0.5-0.5c0.5-0.1,1-0.7,1.5-0.6c0.1,0,0-0.3,0.1-0.4c0.5,0,1-0.7,1.3-0.2c0.5-0.5,2-0.2,1.8-1.7 c0.1-0.1,0.2-0.2,0.3-0.2c-0.2-0.6,0.6-1.4,0.5-1.9c0.8-0.9-0.5-2-0.3-2.8c0-0.1,0.2-0.1,0.3-0.1c-0.2-0.4-0.9-0.2-1.2-0.5 c-0.8,0.2-2.1,0-2.4,0.9c-0.4,0.1-0.4,0.4-1,0.4c0,0.3-0.5,0.5-0.7,0.9c0.4,0.8,0,1.8-0.8,2.1c0,0.1-0.3,0.3-0.1,0.4 c-0.6,0.2-1.6,1.4-2.5,0.7c0.1-0.2,0-0.4-0.1-0.6c-0.2,0,0.1,0.1,0,0.3c-0.4-1-0.1-2.2,0.6-2.5c0-0.1,0-0.2,0-0.4 c0.4-0.2,0.7-0.4,1-0.7c0.3,0.1,0.3,0,0.5,0.1c0.4-0.3,1-0.5,1.5-0.8c0.1-0.5,1.1-0.7,1.5-1.2C209.3,1.2,210.4,0.3,211.2,1"/><path d="M222.8,21.6c-0.4,0-0.8,0.3-1.2-0.1c0,0.3,0.3,0.5,0.4,1c0.1,0,0.3,0,0.3,0.1c-0.2-0.1-0.2,0.3-0.1,0.3 C222.4,22.4,222.8,22.2,222.8,21.6 M222.2,19.2c0.3,0.2-0.2,0.6,0.3,0.7c-0.3,0-0.3,0.1-0.3,0.4c0.2,0,0.2-0.1,0.5-0.1 c0.2-0.7,0-1.9,0-2.4C222.3,18.2,222.5,18.8,222.2,19.2 M235.8,17.2c-0.1-0.1,0.1-0.5-0.1-0.5C235.6,16.9,235.6,17.1,235.8,17.2 M220.9,17.1c0.3,0.5,0,1.1,0.3,1.6c0.2-0.7,0.6-1.4,0.9-2.1C221.5,16.7,221,16.8,220.9,17.1 M233,16.6c0.4-0.2-0.1-0.5,0.1-0.9 c-0.2,0.1-0.1-0.1-0.2-0.3C232.5,15.7,233.1,16.3,233,16.6 M221.5,15.3c0.7,0,1.2-0.3,1.2-1.1c-0.1,0-0.2,0-0.3,0 C222.4,14.8,221.7,14.8,221.5,15.3 M228.9,11.9c-1.7-0.5-3.7-0.2-4.4,1c-0.1,0.2-0.3,0.7-0.4,1.1c0.4,0.1,0.3,0.9-0.2,0.9 c0,0.4-0.1,0.6-0.4,0.7c0.2,1.2,0.1,2.3,0.2,3.9c0.3,0,0.4,0.3,0.7,0.2c-0.1,0.3,0.1,0.7,0.2,1.1c-0.4,0.5-0.3,1.3-0.7,1.8 c0.3,0.2-0.1,0.4,0,0.6c0.1,0.4,0.7,0.9,0.2,1.3c-0.1-0.1,0-0.3-0.2-0.2c-0.2,0.2,0.1,0.5,0.4,0.4c0.8,1.2,2.6,0.8,3.7,1.2 c0.9-0.2,1.9-0.8,2.2-1.8c1.1-0.1,1-1.3,1.7-1.7c-0.2-0.7,0.6-1.1,0.2-1.5c0.9-1.4-0.2-3.1-0.2-4.4c-0.3-0.1-0.5-0.4-0.3-0.7 c-0.1-0.9-0.7-1.6-0.8-2.5c-0.4-0.7-0.8-0.8-1.3-1.4c0.1,0,0.1,0.1,0.1,0c-0.3,0.1-0.5-0.3-0.8-0.4 C228.9,11.8,229,11.9,228.9,11.9 M225.6,6.2c0.1,0.2,0.1,0.5,0.1,0.8c-0.5,0.3-0.5,1-1.1,1.3c0,0.3-0.1,0.8-0.4,0.8 c-0.1,0.6-0.1,1-0.6,1.1c0.3,0.3,0,0.7-0.2,0.8c0.1,0.4-0.4,0.8-0.3,1.3c1-0.8,0.8-2.2,1.7-3.1c0.2-0.7,1-1.5,1.2-2.4 c0.4-0.2,0.5-0.7,0.9-0.9c0-0.1,0-0.2,0-0.3c0.3-0.2,0.6-0.3,0.6-0.7C226.8,5.1,226.2,5.9,225.6,6.2 M232.6,0.6 c0-0.1,0.1-0.3,0.2-0.4c0.3,0.1,0.2,0.1,0.5,0c0.1,0.2,0.1,0.1,0,0.4c0.1-0.1,0.1-0.2,0.2-0.2c0.1,0.1,0.1,0.2,0.2,0.2 c-0.2,0.5-0.3,0.8-1,0.7c-1,0.7-1.9,0.7-2.3,1.7c-0.2,0,0.1-0.1-0.1-0.2c0,0.3-0.3,0.3-0.2,0.5c-0.5,0.2-0.6,0.8-0.9,1.2 c-0.1,0-0.2,0-0.3,0c0,0.5-0.8,0.9-1,1.4c-0.4-0.2-0.2,0.3-0.4,0.1c-0.1,0.1-0.1,0.4-0.2,0.5c0.2,0,0.1-0.2,0.2-0.3 c0.2,0.2,0,0.5-0.3,0.5c-0.1,0.4-0.4,0.6-0.5,1c-0.1,0.1-0.2,0-0.4,0.2c-0.1,0.8-0.5,1.6-1.1,2.1c0.2,0.3,0,0.5-0.1,0.8 c1.3-0.4,2.8-0.5,4.8-0.4c0.3,0.5,1.1,0,1.2,0.6c0.3-0.4,0.4,0.3,0.9,0.1c0.8,0.8,1.9,1.3,2.6,2.3c0.6,0.3,0.8,0.9,1,1.6 c0.3,0.2,0.9,1,0.5,1.5c0.1,0.2,0.1-0.1,0.2,0.1c-0.1,0.9-0.1,1.5-0.4,2.2c0.2,0.5,0.4,0.9-0.2,1.1c0.1,1.8-0.8,2.6-1.5,4 c-0.1,0-0.2,0-0.4,0c0.2,0.3-0.3,0.5-0.5,0.5s0,0.3,0,0.5c-0.1,0-0.5,0.3-0.2,0.4c-0.5,0.1-1,0.6-0.6,1c0.2,0.1-0.3,0.1-0.2-0.1 c-0.1,0.1-0.2,0.2-0.3,0.1c-0.4,0.2-0.3,0.8-0.9,0.8c-0.1-0.3,0.1-0.3,0.1-0.5c-0.2-0.1-0.9,0-1,0.4c-0.8,0.4-1.2,0.3-1.8,0.5 c-0.5-0.4-1.7,0.2-2-0.4c-0.3,0-0.4,0.1-0.6,0.2c-1.5-0.4-2.8-1.2-3.8-2.2c-0.6-0.9-1.5-1.4-1.6-2.8c-0.7-0.7-0.5-1.6-0.7-2.5 c0.1,0,0.1,0,0.2,0c-0.3-0.3,0-0.6-0.3-0.9c0.1,0,0.1,0.2,0.3,0.1c-0.5-0.2,0-0.7-0.4-1c-0.2,0.6-0.1,1.6-0.9,1.7 c-0.4-0.4-0.3-1.2-0.3-1.9c0.4-0.4,0.7-0.8,0.8-1.4c0.6-0.1,0.5-0.8,0.9-1.1c-0.2-1.1,0.7-1.8,0.7-2.8c0.1,0,0.1,0.1,0.2,0.1 c-0.3-0.5,0.4-0.7,0.3-1.3c0.5,0,0.1-0.7,0.6-0.8c0-0.2-0.1-0.2-0.1-0.3c0.7-0.5,0.8-1.5,1.4-2.1c0.4-1.4,1.7-1.9,2.3-3 c0.1,0,0.2,0,0.2,0.1c0.1-0.1,0.2-0.3,0.3-0.4c0.1,0,0.1,0.1,0.2,0.1c0.5-0.9,1.7-1,2.1-1.9c0.5-0.1,1,0,1.1-0.7 c0.5,0.1,0.7-0.6,1.1-0.3c0-0.9,0.9-0.4,1.1-1C232.4,0.6,232.3,0.3,232.6,0.6"/></g></g></svg>