<svg version="1.1" id="Layer_1" xmlns="http://www.w3.org/2000/svg" xmlns:xlink="http://www.w3.org/1999/xlink" x="0" y="0" viewBox="0 0 150.2 28.2" xml:space="preserve" enable-background="new 0 0 150.2 28.2"><path d="M132.2,0.4v27.5h18v-4.1h-12.7V16h11.9v-4.2h-11.9V4.6h12.4V0.4H132.2z M77.5,0.4l11.3,27.8h1.7l8.7-20.4l8.7,20.4h1.8	L121,0.4h-5.4l-6.8,17l-7.2-17h-4.5l-7.2,16.9L83,0.4H77.5z M44.5,9.2c0.8-1.4,1.9-2.6,3.4-3.4s3.2-1.2,5-1.2c1.9,0,3.5,0.4,5,1.2	s2.6,1.9,3.5,3.4c0.8,1.5,1.2,3.1,1.2,4.9c0,2.8-0.9,5.1-2.7,6.8c-1.8,1.8-4.1,2.7-6.9,2.7c-1.9,0-3.5-0.4-5-1.2s-2.6-1.9-3.5-3.4	c-0.8-1.5-1.2-3.1-1.2-4.9S43.7,10.6,44.5,9.2 M45.1,1.9c-2.3,1.2-4.1,2.9-5.4,5.2c-1.3,2.2-1.9,4.6-1.9,7.1c0,2.6,0.6,5,1.9,7.1	c1.3,2.2,3.1,3.8,5.4,5.1c2.3,1.2,4.9,1.8,7.8,1.8s5.5-0.6,7.8-1.8s4.1-2.9,5.4-5.1s2-4.6,2-7.1c0-2.6-0.7-5.1-2-7.3	S62.9,3,60.7,1.8C58.4,0.6,55.9,0,53,0C50,0,47.4,0.6,45.1,1.9 M0,0.4v27.5h5.3V16.2h14.3v11.6h5.3V0.4h-5.3V12H5.3V0.4H0z"/></svg>