<svg xmlns="http://www.w3.org/2000/svg" width="24" height="24"><path fill="#fff" d="M21.23 10.152h-2.088c.15.59.24 1.208.24 1.847A7.384 7.384 0 014.614 12c0-.64.09-1.256.243-1.848H2.77v10.155c0 .51.412.924.923.924h16.614a.924.924 0 00.926-.923V10.152h-.003zm0-6.46a.923.923 0 00-.924-.924h-2.77a.923.923 0 00-.923.923v2.77c0 .51.413.924.924.924h2.77c.51 0 .923-.414.923-.923V3.69zM12 7.383a4.617 4.617 0 10.001 9.233A4.617 4.617 0 0012 7.383M21.23 24H2.77A2.77 2.77 0 010 21.23V2.77A2.77 2.77 0 012.77 0h18.46C22.762 0 24 1.24 24 2.77v18.46A2.77 2.77 0 0121.23 24"/></svg>