<svg xmlns="http://www.w3.org/2000/svg" width="25" height="20"><path fill="#fff" d="M24.588 2.42c-.877.38-1.818.64-2.803.76l-.023-.053A5.089 5.089 0 0024.008.383c-.303.186-1.76 1.007-3.182 1.272A5.063 5.063 0 0017.08 0c-3.14 0-5.07 2.575-5.07 5.07 0 .195.092 1 .108 1.046A13.447 13.447 0 011.758.886c-1.726 3.137.08 5.86 1.32 6.83a5.285 5.285 0 01-2.027-.438 5.306 5.306 0 004.178 4.892c-.92.26-2.026.06-2.452-.05a5.302 5.302 0 004.763 3.604C4.137 18.222.47 17.967.41 17.966 2.567 19.258 5.09 20.02 7.784 20c9.876-.062 14.948-8.83 14.345-15.12a5.093 5.093 0 002.458-2.46"/></svg>