<?xml version="1.0" encoding="utf-8"?>
<!-- Generator: Adobe Illustrator 24.0.0, SVG Export Plug-In . SVG Version: 6.00 Build 0)  -->
<svg version="1.1" id="Layer_1" xmlns="http://www.w3.org/2000/svg" xmlns:xlink="http://www.w3.org/1999/xlink" x="0px" y="0px"
	 width="132px" height="36px" fill="#999" viewBox="0 0 132 36" style="enable-background:new 0 0 132 36;" xml:space="preserve">
<g id="logo">
	<g id="bournestreet">
		<path d="M125.6,7.2c0.3,0,0.5,0,0.7-0.1c0.7-0.3,1.4-0.7,1.6-1.5c0.2-0.5,0.2-1,0.3-1.5c0.1-0.4,0.1-0.5,0.7-0.4
			c0,0.2,0,0.5,0,0.7c0,0.7,0,1.5,0,2.3c0,1.5,0,2.9-0.1,4.5c0,0.3-0.2,0.5-0.5,0.4c-0.1-0.3-0.1-0.7-0.2-1.1c0-0.7-0.3-1.4-0.7-2
			s-1-0.7-1.7-0.7c0,2.3,0,4.5,0,6.7c0.1,0,0.2,0.1,0.2,0.1c1.2,0.1,2.4,0,3.5-0.6c0.3-0.2,0.7-0.6,0.9-0.9c0.5-0.7,0.8-1.5,1-2.3
			c0.1-0.3,0.2-0.6,0.3-0.9c0.1,0.1,0.2,0.2,0.2,0.2c0,0.2,0,0.3,0,0.6c0,1.4,0,2.8,0,4.2c0,0.1,0,0.2-0.1,0.4
			c-3.7,0.1-7.2,0.1-10.8,0.2c0-0.2-0.1-0.3-0.1-0.4c0.1-0.1,0.1-0.1,0.2-0.1c0.4-0.1,0.8-0.1,1.2-0.2c0.7-0.2,1.1-0.7,1.1-1.5
			c0.2-1.9,0.2-3.7,0.2-5.6c-0.1-1.4,0-2.8,0-4.2c0-0.7-0.2-1.2-0.5-1.8c-0.2-0.3-0.5-0.6-0.9-0.7c-0.7-0.2-1.5-0.3-2.2,0.1
			c-0.5,0.2-0.8,0.7-0.9,1.2c-0.1,0.7-0.2,1.4-0.2,2.1c-0.1,2.3,0,4.6-0.1,6.8c0,0.8-0.1,1.7-0.1,2.5c0,0.6,0,1.1,0,1.7
			c-0.3,0.2-0.5,0.1-0.6-0.1c-0.3-0.4-0.7-0.8-0.9-1.2c-0.7-1.1-1.5-2.3-2.3-3.5c-0.7-1.1-1.4-2.2-2.1-3.3c-0.7-1.2-1.5-2.4-2.3-3.6
			c-0.1,0-0.1,0-0.2,0c0,0.2-0.1,0.2-0.1,0.4C110,5.3,110,6.6,110,7.7c0,1.4,0,2.8,0,4.2c0,0.4,0.1,0.9,0.2,1.3
			c0.2,1.1,0.6,1.4,1.6,1.5c0.2,0,0.4,0,0.4,0.2c-0.1,0-0.2,0.1-0.3,0.1c-1.4,0.1-2.8,0.1-4.1,0.2c-0.5,0-1,0-1.5,0
			c-0.9,0-1.8-0.1-2.8-0.2c-0.4,0-0.6-0.2-0.7-0.6c-0.3-0.7-0.7-1.3-0.9-2c-0.4-0.9-0.7-1.9-1.2-2.7c-0.2-0.5-0.7-1-1-1.4
			c-0.6-0.7-1.4-0.7-2.2-0.7c0,0.2-0.1,0.3-0.1,0.4c0,1.1-0.1,2.1-0.1,3.3c0,0.6,0,1.1,0.1,1.6c0.2,1,0.5,1.2,1.5,1.3
			c0.2,0,0.2,0,0.5,0c0,0.2,0,0.4,0.1,0.7c-2.2-0.1-4.4-0.2-6.5,0c0-0.7,0.2-0.8,0.8-0.7c0.7,0.1,1.1-0.1,1.1-0.7
			c0.2-0.7,0.2-1.4,0.2-2c0-2.1,0-4.2-0.1-6.3c0-0.8,0-1.6,0-2.4c0-0.4-0.1-0.8-0.2-1.2c-0.2-0.7-0.6-1.1-1.3-1.1
			c-0.4,0-0.7,0-1.1,0.1c-0.8,0.2-1.2,0.7-1.2,1.5c0.1,0.7,0.1,1.5,0.1,2.2c0,2,0,3.8-0.2,5.8c-0.1,0.7-0.2,1.3-0.3,1.9
			c-0.3,1.4-1.2,2.4-2.6,2.9c-0.7,0.2-1.3,0.6-2.1,0.6c-0.6,0-1.1,0-1.5-0.2c-0.7-0.2-1.5-0.5-2.1-1c-0.4-0.3-0.7-0.7-1-1.2
			c-0.7-1.4-0.7-2.8-0.7-4.2c0-1.5,0-3,0.1-4.5c0-0.5,0.1-1,0-1.4c0-0.4-0.1-0.8-0.2-1.2c-0.2-0.7-0.6-1-1.1-1.1
			c-0.3-0.1-0.7-0.1-1.1-0.2C78.4,0,78.4,0,78.8,0c0.7,0,1.2,0,1.9,0c1.5,0,2.8,0,4.3,0.1c0.2,0,0.3,0,0.5,0
			c0.1,0.3-0.1,0.5-0.4,0.5c-0.1,0-0.2,0-0.3,0c-1-0.1-1.5,0.3-1.7,1.5C83,2.8,83,3.5,83,4.1c0,0.9-0.1,1.7-0.1,2.6
			c0,1.1,0.1,2.1,0.2,3.2c0.1,0.8,0.2,1.6,0.3,2.4c0.2,1,0.8,1.7,1.9,2c0.7,0.2,1.5,0.2,2.2,0s1.2-0.7,1.7-1.3
			c0.5-0.7,0.7-1.5,0.8-2.4c0.1-1.6,0.2-3.2,0.2-4.8c0.1-0.9,0.1-1.8,0-2.8c0-0.5-0.1-0.9-0.2-1.4s-0.5-0.8-1-1
			c-0.3-0.1-0.7-0.1-1-0.2C87.9,0.1,88,0,88.3,0c0.9,0.1,1.8,0.1,2.6,0.1c1.5,0,3.1,0,4.6,0c1,0,1.9,0,2.8,0c1.1,0,2.1,0,3.2,0
			c0.9,0,1.7,0.2,2.4,0.9c0.6,0.7,0.8,1.4,0.8,2.3c0,1.2-0.4,2.3-1.4,3c-0.6,0.4-1.1,0.7-1.8,1c0,0,0.1,0.1,0.1,0.2
			c1.1,0.6,1.5,1.6,2,2.7s0.9,2.1,1.5,3.1c0.4,0.7,1,1.1,1.7,1.5c0.7,0.2,1.6-0.2,2-0.8c0.2-0.5,0.3-1.1,0.3-1.5
			c0-0.9,0.2-1.8,0.2-2.7c0-0.4,0.1-0.7,0-1.1c0-1.5-0.1-3.1-0.1-4.7c0-0.7-0.1-1.5-0.3-2.1s-0.5-0.8-1.1-0.9c-0.3,0-0.7,0-1.1-0.1
			c-0.1-0.3,0-0.5,0.2-0.5c0.1,0,0.1,0,0.2,0c1.3,0,2.6,0.1,4,0.1c0.3,0,0.6,0.2,0.7,0.5c0.4,0.6,0.7,1.2,1.1,1.8c1.3,2,2.5,4,3.8,6
			c0.3,0.5,0.7,0.8,1.1,1.4c0.1-0.2,0.2-0.3,0.2-0.4c0-1.7,0.2-3.3,0-5c-0.1-0.7-0.1-1.3-0.2-2c0-0.3-0.2-0.7-0.2-0.9
			c-0.3-0.8-0.7-1.1-1.6-1c0-0.1,0-0.2,0-0.3c5.3,0,10.5,0.1,15.8,0c0,0.2-0.1,0.6-0.1,0.8c0,1,0,2,0,2.9c0,0.3,0.1,0.7-0.3,0.9
			c-0.2-0.4-0.3-0.7-0.5-1.1c-0.3-0.8-0.8-1.5-1.5-2.1c-0.5-0.3-1-0.4-1.5-0.6c-0.7-0.2-1.4-0.2-2.1-0.1
			C125.6,3.2,125.7,5.1,125.6,7.2z M97.7,1.3c-0.1,2-0.2,3.9-0.2,5.9c0.7,0,1.3,0.1,1.9,0s1.1-0.2,1.5-0.4c0.1,0,0.2-0.2,0.3-0.2
			c1-0.8,1.3-2.5,0.8-3.7c-0.2-0.4-0.4-0.7-0.7-1.1s-0.6-0.5-0.9-0.6C99.7,1,98.8,1,97.7,1.3z M64.9,8c-0.1-0.7,0.2-1.6,0.4-2.5
			c0.5-1.7,1.5-3,2.8-4.1c0.4-0.3,0.9-0.6,1.3-0.7c1.1-0.4,2.1-0.5,3.2-0.3c0.6,0.1,1.1,0.2,1.7,0.3c0.9,0.2,1.5,0.9,2,1.6
			c1,1.3,1.5,2.8,1.6,4.3c0,0.7,0.1,1.5,0.1,2.3c0.1,0.9-0.2,1.6-0.5,2.4c-0.3,1.1-1.1,2-2,2.9c-0.2,0.2-0.5,0.4-0.8,0.6
			C74.5,15,74.3,15,74,15.2c-0.2,0.1-0.3,0.2-0.6,0.2c-1,0.2-2,0.4-3.1,0.3c-0.8-0.1-1.5-0.2-2.3-0.7c-1.3-0.7-2.3-1.7-2.9-3
			c-0.2-0.3-0.2-0.7-0.3-1.1c-0.1-0.5-0.2-0.9-0.2-1.4C64.9,9.2,64.9,8.7,64.9,8z M75.2,8c-0.1-0.8-0.2-1.6-0.3-2.5
			c-0.2-0.8-0.2-1.6-0.6-2.4c-0.4-1.1-1.1-2-2.5-2.3c-1.5-0.2-2.8,0.6-3.3,2c-0.5,1.5-1,3.1-0.9,4.7c0,2,0.2,3.8,1,5.6
			c0.3,0.8,0.9,1.4,1.8,1.6c0.8,0.2,1.6,0.2,2.4,0c0.7-0.2,1.3-0.7,1.6-1.2c0.4-0.7,0.7-1.5,0.8-2.4C75.2,10.2,75.2,9.2,75.2,8z
			 M59.5,7.3c0.2,0.1,0.4,0.2,0.6,0.2c1.3,0.3,2.2,1.2,2.8,2.4c0.4,0.9,0.3,1.9-0.1,2.7c-0.2,0.7-0.7,1.2-1.1,1.7
			c-0.9,0.8-1.9,1.1-3.1,1.1c-1.5-0.1-3.2-0.1-4.7-0.1c-0.7,0-1.5,0-2.3,0c0-0.2,0.1-0.4,0.1-0.6c0.1,0,0.2-0.1,0.2,0
			c1.1,0.2,1.8-0.2,2-1.3C54,13,54,12.6,54,12.2c0-2.4,0-4.8,0-7.2c0-0.7,0.1-1.4,0-2s-0.2-1.1-0.4-1.5c-0.1-0.2-0.3-0.4-0.5-0.5
			s-0.5-0.2-0.7-0.2S52,0.8,52,0.5c0-0.2,0.2-0.2,0.5-0.2c1.1,0,2.1-0.1,3.2-0.1c0.7,0,1.4,0,2.1,0c0.5,0,1,0.1,1.5,0.1
			c1.6,0.1,3.3,1.5,3.3,3.3c0,0.9-0.3,1.8-1.1,2.4c-0.3,0.3-0.8,0.6-1.2,0.8C59.9,7.1,59.7,7.2,59.5,7.3z M56.2,7.8
			c0,2.3,0,4.5,0,6.7c0.2,0,0.2,0.1,0.4,0.1c0.5,0,1,0,1.5,0c1.8-0.1,2.7-1.5,2.7-3c0-0.6-0.1-1.1-0.2-1.7C60.2,9,59.8,8.4,59.1,8
			C58.2,7.6,57.2,7.6,56.2,7.8z M56.2,7.1c1.2,0.2,2.2-0.1,3.2-0.7c0.4-0.2,0.7-0.7,0.8-1.1c0.2-1,0.2-1.9-0.2-2.8
			c-0.2-0.3-0.4-0.6-0.7-0.8c-0.6-0.4-1.3-0.6-2-0.7c-0.9,0-1,0.1-1.1,1c0,0.2,0,0.3,0,0.6c0,0.9,0,1.8,0,2.7
			C56.2,5.9,56.2,6.4,56.2,7.1z"/>
		<path d="M129.8,35c0.1,0.3-0.2,0.4-0.4,0.4c-0.4,0-0.8-0.1-1.2-0.1c-2,0-4,0-6,0c-0.6,0-1.1,0-1.7-0.1c0.1-0.5,0.3-0.5,0.7-0.5
			c0.5,0,0.9-0.1,1.4-0.2c0.8-0.2,1.1-0.8,1.2-1.5c0.1-1.1,0.1-2.4,0.1-3.5c0-1.3,0-2.5,0-3.8c0-1.1,0-2.1,0-3.2
			c0-0.7,0-1.5-0.1-2.3c0-0.1-0.1-0.2-0.1-0.3c-1.8-0.4-3.4,0.9-3.9,2.1c-0.2,0.6-0.4,1.1-0.6,1.7c-0.1,0.3-0.1,0.3-0.6,0.4
			c0.1-1.7,0.1-3.3,0.2-5.1c4.3-0.2,8.6,0,13.1-0.1c0,0.2,0,0.3,0,0.5c0,1.5-0.1,2.9-0.1,4.4c0,0.4-0.1,0.5-0.7,0.4
			c0.1-1.1-0.3-2-0.7-2.9c-0.2-0.4-0.5-0.7-1-1c-0.7-0.3-1.5-0.5-2.2-0.6c-0.6,0-0.7,0.1-0.8,0.7c-0.1,0.7-0.1,1.4-0.1,2.1
			c0,0.2,0,0.3,0,0.5c0,1.5-0.1,2.8-0.1,4.3c0,1.4,0,2.8,0.1,4.1c0,0.7,0.2,1.5,0.3,2.2c0.1,0.5,0.4,0.8,0.9,0.9
			C128.4,34.8,129.1,34.9,129.8,35z M113.3,22.3c-0.2,0-0.3,0-0.5,0c0,0.2-0.1,0.3-0.1,0.5c-0.2,0.7-0.2,1.5-0.4,2.1
			c-0.2,1-1.2,1.5-2.2,1.3c-0.3-1.1-0.2-5.5,0.1-6.3c0.3,0,0.6,0,0.9,0c1.5,0,2.8,0.7,3.7,2c0.3,0.5,0.6,1,0.7,1.5
			c0.1,0.2,0,0.7,0.5,0.7c0.5-0.1,0.3-0.5,0.3-0.7c0-1.1,0-2,0-3.1c0-0.4,0-0.8,0-1.2c-4.1,0.2-8.1-0.2-12.2,0.1
			c0,0.2-0.1,0.3-0.1,0.5c0.2,0,0.5,0,0.7,0c0.4,0,0.8,0.1,1.2,0.3c0.7,0.4,1.1,1.1,1.2,1.9c0.2,1,0.2,2,0.2,2.9
			c0,1.9,0,3.8-0.1,5.7c0,1.1-0.1,2.2-0.5,3.3c-0.2,0.7-0.7,1.1-1.5,1.1c-0.4,0-0.7,0.1-1.1,0.1c0,0.2-0.1,0.5-0.1,0.7
			c0.9,0,1.7,0,2.5-0.1c0.8,0,1.5-0.2,2.4-0.2c2.3,0,4.6,0.1,6.9,0.1c0.2,0,0.4-0.1,0.5-0.2c0-2-0.1-3.8-0.1-5.7
			c-0.5,0.1-0.5,0.1-0.6,0.3c0,0.2-0.1,0.4-0.1,0.7c-0.2,1.2-0.7,2.2-1.7,3c-1.2,1.1-2.6,0.8-4.1,0.8c0-2.4,0-4.6,0-6.9
			c0.8-0.2,1.3,0.1,1.6,0.7c0.5,1,0.9,2,1,3.1c0,0.3,0.2,0.3,0.5,0.3C113.3,31,113.5,22.8,113.3,22.3z M81.2,27.8c0,1.6,0,3.2,0,4.7
			c0,0.5,0.1,0.9,0.1,1.4c0.1,0.6,0.2,0.7,0.7,0.7c0.5,0.1,1,0.1,1.5,0.1c0,0.2-0.1,0.4-0.1,0.6c-1.4,0.1-2.7,0.1-3.9,0.2
			c-0.9,0-1.8,0-2.7,0.1c-0.1,0-0.2,0-0.3,0c-0.2,0-0.4,0-0.4-0.3c0-0.2,0.2-0.3,0.5-0.3c0.1,0,0.2,0,0.3,0c0.9,0,1.3-0.4,1.5-1.2
			c0.1-0.5,0.2-0.9,0.2-1.4c0.1-1.1,0.1-2.2,0.1-3.3c0-1.4-0.1-2.7-0.1-4.1c0-0.5,0.1-1,0-1.5c-0.1-0.7-0.1-1.5-0.2-2.3
			c-0.2-0.9-0.9-1.5-1.8-1.5c-0.2,0-0.2,0-0.4,0c-0.2-0.4,0.1-0.5,0.3-0.5c0.6,0,1.2,0,1.8,0c1.9-0.1,3.7-0.1,5.5-0.2
			c1.1,0,2.1,0,3.1,0.5c0.7,0.3,1.2,0.7,1.4,1.5c0.2,0.7,0.3,1.2,0.3,2c0.1,1.8-0.9,3-2.3,3.8c-0.2,0.1-0.4,0.2-0.6,0.2
			c0,0.1,0.1,0.2,0.1,0.2c0.7,0.2,1.1,0.9,1.5,1.6c0.6,1.3,1.1,2.5,1.6,3.8c0.2,0.6,0.6,1.1,0.9,1.6c0.5,0.7,1.2,0.7,2,0.7
			s1.3-0.6,1.5-1.3s0.2-1.5,0.3-2.4c0.1-1.5,0.1-3,0.1-4.6c0-1.8,0.1-3.5-0.2-5.3c-0.2-1.2-1-2-2.2-2c-0.2,0-0.6,0-0.8-0.1
			c0-0.4,0.2-0.5,0.4-0.5c0.2,0,0.3,0,0.5,0c2.1,0,4.2,0,6.3,0c1.3,0,2.7,0,4,0c0.2,0,0.5,0,0.8,0c0,0.5,0,1,0,1.4c0,1,0,2,0,2.9
			c0,0.2,0,0.4-0.1,0.6c-0.1,0.1-0.2,0.2-0.3,0.2c-0.1,0-0.2-0.2-0.3-0.2c-0.1-0.2-0.1-0.3-0.1-0.4c-0.2-1.1-0.8-2-1.5-2.8
			c-0.3-0.3-0.9-0.6-1.4-0.7c-0.8-0.1-1.6,0-2.5,0c-0.2,2-0.2,4-0.2,5.9c1.4,0.2,2.2-0.2,2.5-1.5c0.2-0.6,0.2-1.1,0.3-1.8
			c0.2-0.1,0.4-0.1,0.7-0.2c0,0.7,0,1.5,0,2.2c0,1.3,0,2.6,0,3.9c0,0.6-0.1,1.1-0.1,1.7c0,0.5-0.1,0.6-0.7,0.5c0-0.2,0-0.6,0-0.8
			c0.1-0.7-0.2-1.4-0.6-2c-0.5-0.8-1-1-2-0.8c0,0.5,0,0.9,0,1.4c0,0.9,0,1.8,0,2.6c0,0.9,0.1,1.9,0.1,2.8c0,0.1,0.2,0.3,0.2,0.3
			c1.1,0.1,2,0.2,3.1-0.2c1.1-0.5,1.5-1.3,2-2.3c0.3-0.7,0.5-1.4,0.7-2.1c0.1-0.2,0.1-0.3,0.4-0.3c0,0.4,0.1,0.9,0,1.3
			c0,1.4,0,2.8,0,4.1c0,0.5-0.2,0.6-0.6,0.6c-0.9-0.1-1.8-0.1-2.7-0.1c-1.9,0-3.7,0.1-5.5,0.1c-1.2,0-2.4,0-3.6,0.1
			c-0.7,0-1.5,0-2.2,0.1c-0.5,0-0.8-0.2-1.1-0.5c-0.2-0.3-0.3-0.7-0.5-1c-0.5-1.3-1.1-2.6-1.5-3.9c-0.3-0.8-0.8-1.5-1.4-2
			c-0.2,0.1-0.4,0.1-0.6,0.1C82.6,27.7,81.9,27.6,81.2,27.8z M81.2,26.8c1.1,0.2,2.2,0.1,3.3-0.2c0.5-0.2,0.9-0.5,1.2-0.9
			c0.7-1.1,0.9-2.4,0.3-3.7c-0.2-0.5-0.7-1.1-1.2-1.4C84,20.2,83,20,82,20c-0.7,0.1-0.9,0.2-0.9,0.9c0,1.8,0,3.7,0,5.4
			C81.1,26.6,81.2,26.6,81.2,26.8z M75.3,24.3c-0.1-0.2-0.1-0.3-0.2-0.6c-0.2-0.9-0.6-1.8-1.1-2.5c-0.7-0.7-1.5-1.3-2.5-1.2
			c-0.2,0-0.6,0-0.9,0c0,0.2-0.1,0.5-0.1,0.7c-0.1,2-0.2,4-0.2,6c0,2.2,0.2,4.3,0.3,6.5c0.1,1.3,0.7,1.7,2,1.7
			c0.4,0,0.8,0.1,1.3,0.1c0,0.1,0.1,0.3,0.1,0.5c-3.3,0-6.5,0-9.7,0c0-0.1,0-0.2,0.1-0.4c0.4,0,0.8-0.1,1.2-0.1
			c1.3-0.1,2.2-0.9,2.4-2.2c0.1-0.9,0.2-1.8,0.2-2.6c0-1.1,0-2.3,0-3.3c0-0.8-0.1-1.6-0.1-2.4c0-1.1-0.1-2.1-0.1-3.3
			c0-0.3-0.1-0.7-0.2-1.1c-1.4-0.2-2.5,0.3-3.4,1.3c-0.6,0.7-1.1,1.5-1.1,2.4c0,0.2-0.1,0.3-0.2,0.6c-0.3-0.3-0.2-0.6-0.2-0.8
			c0-1.3,0-2.5,0-3.8c0-0.3,0.2-0.5,0.6-0.5c0.6,0,1.1,0.1,1.7,0.1c0.7,0,1.3,0,2,0c1.8,0,3.6,0,5.4,0c0.9,0,1.9,0,2.8,0
			c0.2,0,0.4,0,0.7,0c0,0.7,0,1.3,0,1.9c0,0.8,0,1.6-0.1,2.4C75.7,23.9,75.8,24.2,75.3,24.3z M52.3,30.7c-0.1,0.2-0.2,0.2-0.2,0.4
			c-0.1,1.4-0.1,2.8-0.2,4.2c0,0.2,0.1,0.3,0.2,0.5c0.1,0,0.1,0,0.2,0c0.1-0.2,0.2-0.3,0.2-0.5c0.2-0.5,0.3-0.6,0.8-0.5
			c0.2,0.1,0.4,0.1,0.7,0.2c0.7,0.4,1.5,0.6,2.4,0.7c1.7,0.2,3-0.4,4-1.8c0.8-1.1,1.1-2.4,1-3.7c-0.1-0.8-0.2-1.5-0.8-2.2
			c-0.7-0.9-1.5-1.5-2.6-2c-1-0.5-2-1-2.8-1.6c-1-0.7-1.5-1.6-1.6-2.8c-0.1-0.8,0.4-1.6,1.1-1.9c1.4-0.3,2.7-0.2,3.8,0.6
			c1.1,0.7,1.9,1.7,2.1,3c0,0.2,0.1,0.2,0.2,0.5c0.1-0.2,0.2-0.2,0.2-0.3c0.1-1.5,0.1-2.9,0.2-4.4c0-0.1-0.1-0.2-0.1-0.3
			c-0.2,0.2-0.2,0.3-0.3,0.4c-0.6,0.7-1.1,0.8-1.9,0.4c-0.2-0.1-0.5-0.2-0.8-0.3c-2.1-0.9-5-0.2-6,2.4c-0.7,1.9-0.4,3,0.9,4.1
			c0.9,0.8,2,1.5,3.1,2.1c1,0.5,1.9,1.1,2.8,1.7c0.7,0.5,1.1,1.2,1.1,2.1c0.3,2.1-2,3.5-3.4,3c-1.1-0.3-2-0.9-2.8-1.7
			c-0.7-0.7-1.1-1.5-1.2-2.4C52.4,30.7,52.3,30.7,52.3,30.7z"/>
	</g>
	<g id="_x33_6">
		<path d="M3.5,26.6c0.5-0.2,0.7,0.3,1.2,0c0.2-0.4,0.1-0.9-0.3-1C4.2,26.1,3.8,26.4,3.5,26.6 M19.3,24.6c0.6-0.6,0.7-1.5,1-2.3
			c-0.4-0.1-0.4-0.5-0.9-0.4C19.3,22.9,19.2,23.7,19.3,24.6 M19.7,20.6c0-0.2,0-0.4,0-0.6c-0.1,0-0.2,0-0.3,0
			C19.3,20.3,19.2,20.6,19.7,20.6 M20.5,17.3c0.2,0,0.1,0.4,0.3,0.3c0.6-0.3,0.7-1,0.7-1.5C21,16.5,20.8,17,20.5,17.3 M19.4,15.8
			c-0.4-0.2-0.9-0.3-1.1-0.7c0.1,0.9,0.4,1.4,0.7,2.1c0.3-0.1,0.3,0,0.7-0.2c0-0.4,0.2-0.9,0.7-1.1c0-0.8,0.7-1.1,0.2-1.9
			c-0.1,0-0.2,0-0.2,0.1C19.8,14.4,20.3,15.5,19.4,15.8 M17.8,12.7c-0.5,0.2-0.6,0.1-0.8,0.2c0.4,0.5,0.7,1.1,1,1.7
			c0.5-0.2,0.9-1.1,0.8-1.5C18.6,13.1,17.9,13,17.8,12.7 M16.7,4.3c1.1,0.1,0.6,1.2,1.1,1.6c0.1-0.7,0.2-1.5-0.2-2.1
			c-0.5,0-0.6-0.6-1.1-0.6C16.6,3.6,16.7,3.8,16.7,4.3 M14.5,1.4c1.9-0.1,3.6,0.7,4.8,2.6c-0.2,0.2,0,0.7-0.2,0.9
			c0,0.2,0.3,0.1,0.3,0.2c-0.3,2.7-1.9,4.5-3.3,6c2,0.3,5.6,1,6,3.3c0.3-0.1,0.1,0.3,0.5,0.4c0.2,1.5,0.5,2.6,0.3,3.8
			c-0.2,2.1-1.2,3.7-1.6,5.9c-0.1,0.1-0.2,0.1-0.4,0.2c-0.2,1.3-1.4,2.1-1.8,3c-0.9,0.3-0.8,1.5-1.8,1.7c0.1,0.3,0,0.5,0,0.7
			c-0.6,0-0.2,1-0.8,1c-0.2,1.3-1,2.1-2.4,1.8c-0.6,0.2-0.6,1-1,1.4c-0.5,0.1-0.6-0.2-0.8-0.4c-0.4,0.2-0.7,0.2-1.3,0.2
			c-0.2,0-0.1,0.2-0.1,0.4c-1.1,0.2-2.2,0.9-3.2,0.6c-0.1,0.3-0.8,0-1.3,0.3c0-0.1,0-0.2,0-0.2c-0.2,0.1-0.7,0.2-0.9,0.2
			c-0.4-0.5-1.3-0.4-2-0.4c-0.1-0.4-0.5,0-0.6-0.1c-1-0.2-1.5-1-2.4-1.5c-0.3-1.2-0.9-2.4-0.1-3.5c-0.2-0.7,0.6-1.1,0.4-2
			c0.8-0.2,0.4-1.3,1.2-1.4c0-0.2,0-0.1,0-0.4c0.2,0,0.2,0.1,0.3,0.1c0.1-0.5,0.6-0.8,0.8-1.4c0.9-0.1,1-1.2,1.9-0.9
			c0.7,0.2,1.1,2,0.9,3.1c0.1,1.1-0.4,1.8-0.7,2.2c-0.3,0-0.6-0.2-0.8-0.3c-0.3,0.5-1.1,0.5-1.1,1.2c-0.4-0.2-1.3,0.4-1.7-0.3
			c-0.8,1.4,0.2,3.9,2.4,3.6c0.2,0.1,0.2,0.2,0.2,0.3c0.9,0,1.6-0.2,2,0.2c0.2,0,0.1-0.3,0.2-0.3c2.2,0.2,4.6-1,6.4-1.9
			c0-0.2,0-0.2-0.1-0.2c0.7-0.3,1.1-1.2,1.5-1.7c0.7-0.9,1.5-1.5,1.9-2.4c0.1-0.2-0.1-0.4,0.1-0.6c0.6-0.7,1.1-1.9,0.9-3.3
			c0.4-0.7,0.3-1.4,0.5-2.2c0.1,0,0.2,0,0.2,0c-0.2-0.2-0.2-0.3-0.2-0.7c0.6,0.1-0.1-0.3,0.3-0.3c-0.5-1.8-0.3-3.7-1.5-5.4
			c0.1-0.2-0.2-0.6,0.1-0.6c-0.2-0.2-0.3-0.1-0.5-0.2c0.2-0.7-0.7-0.9-1.1-1.2c-0.2-0.2-0.2-0.6-0.4-0.7c-0.5,0-1.2,0.3-1.5,0.8
			c-0.7,0.2-1.2,0.7-1.6,1.2c-0.9,0-1.2,0.7-1.9,0.3c-1,0.7-3.1,0.6-2-0.9C8,13.7,8.2,13.4,8.2,13c0.7-0.2,1.3-0.9,2-0.8
			c0.2,0,0-0.4,0.2-0.5c0.7,0,1.3-0.9,1.6-0.3c0.6-0.7,2.6-0.3,2.4-2.2c0.2-0.1,0.3-0.2,0.4-0.3c-0.1-0.7,0.9-1.7,0.8-2.4
			c1.1-1.2-0.7-2.5-0.4-3.6c0-0.2,0.2-0.1,0.4-0.2c-0.2-0.5-1.1-0.3-1.5-0.7c-1,0.3-2.8,0-3.1,1.1c-0.5,0.5-0.6,1-1.3,0.9
			c0,0.3-0.7,0.7-0.8,1.2c0.3,1-0.2,2.4-1.1,2.6c0,0.2-0.4,0.4-0.2,0.6c-0.6,0.1-2,1.8-3.2,0.8c0.1-0.2,0-0.5-0.2-0.7
			C4,8.6,4.4,8.7,4.2,8.9C3.6,7.6,4.1,6.1,5,5.7c0-0.2,0-0.3,0-0.5C5.6,5,6,4.7,6.3,4.3C6.6,4.5,6.6,4.4,7,4.5
			c0.5-0.5,1.3-0.7,1.9-1c0.2-0.6,1.5-0.9,2-1.5C12,1.6,13.6,0.5,14.5,1.4"/>
		<path d="M29.6,28.1c-0.6,0.1-1,0.3-1.6-0.1c0,0.4,0.4,0.7,0.5,1.3c0.2,0,0.3-0.1,0.4,0.1c-0.2-0.2-0.2,0.4-0.1,0.4
			C29,29.2,29.6,28.9,29.6,28.1 M28.7,25c0.5,0.3-0.2,0.7,0.3,0.9c-0.3-0.1-0.4,0.2-0.3,0.5c0.3,0,0.3-0.2,0.7-0.2
			c0.2-0.9-0.1-2.4,0-3.1C28.9,23.7,29.2,24.4,28.7,25 M46.5,22.3c-0.1-0.2,0.1-0.7-0.2-0.7C46.2,22,46.2,22.2,46.5,22.3 M27,22.3
			c0.5,0.7,0.1,1.5,0.3,2.1c0.3-1,0.7-1.9,1.1-2.8C27.9,21.9,27.3,21.9,27,22.3 M42.8,21.7c0.5-0.2-0.1-0.7,0.1-1.1
			c-0.2,0.1-0.2-0.2-0.2-0.3C42.1,20.6,42.9,21.4,42.8,21.7 M27.9,20c0.9,0,1.5-0.4,1.5-1.4c-0.2,0-0.2,0-0.4,0
			C29.1,19.3,28.2,19.4,27.9,20 M37.4,15.6c-2.2-0.7-4.8-0.3-5.7,1.3c-0.2,0.3-0.4,1-0.5,1.5c0.6,0.2,0.3,1.2-0.3,1.2
			c0.1,0.5-0.1,0.8-0.5,1c0.2,1.6,0.2,3,0.2,5.1c0.3,0.1,0.5,0.4,1,0.3c-0.1,0.5,0.1,1,0.3,1.4c-0.5,0.7-0.3,1.7-1,2.4
			c0.3,0.2-0.1,0.5,0,0.8c0.1,0.5,1,1.1,0.3,1.8c-0.1-0.1-0.1-0.3-0.3-0.2c-0.2,0.3,0.2,0.6,0.5,0.5c1.1,1.5,3.4,1,4.9,1.6
			c1.2-0.3,2.5-1,2.8-2.4c1.5-0.1,1.3-1.7,2.2-2.2c-0.2-0.8,0.7-1.5,0.3-2c1.1-1.8-0.3-4-0.2-5.8c-0.4-0.1-0.7-0.6-0.3-0.9
			c-0.2-1.2-1-2.1-1.1-3.3c-0.5-0.9-1-1.1-1.7-1.9c0.1,0,0.2,0.2,0.2,0c-0.4,0.2-0.7-0.3-1.1-0.5C37.5,15.4,37.5,15.6,37.4,15.6
			 M33.3,8.1c0.2,0.2,0.2,0.7,0.2,1.1c-0.7,0.4-0.7,1.3-1.4,1.7c0,0.4-0.2,1.1-0.6,1.1c-0.1,0.8-0.2,1.3-0.8,1.5
			c0.4,0.3,0.1,0.9-0.3,1.1c0.2,0.5-0.6,1-0.4,1.7c1.4-1,1.1-2.9,2.3-4.1c0.2-1,1.3-2,1.5-3.2c0.5-0.3,0.7-0.9,1.2-1.2
			c0-0.1,0-0.2,0-0.3c0.4-0.3,0.7-0.5,0.8-1C34.8,6.8,34,7.7,33.3,8.1 M42.3,0.8c0-0.2,0.1-0.3,0.2-0.6c0.3,0.1,0.2,0.2,0.7,0.1
			c0.1,0.2,0.1,0.2,0,0.5c0.1-0.1,0.1-0.2,0.2-0.2c0.1,0.1,0.1,0.2,0.2,0.2c-0.2,0.6-0.4,1-1.2,0.9c-1.3,0.9-2.4,1-3,2.3
			c-0.2,0,0.1-0.2-0.1-0.2c0,0.3-0.5,0.3-0.2,0.7c-0.7,0.2-0.8,1.1-1.2,1.6c-0.2,0-0.2,0-0.4,0c0,0.7-1,1.1-1.3,1.9
			c-0.4-0.4-0.2,0.2-0.5,0c-0.2,0.2-0.1,0.5-0.2,0.7c0.3,0.1,0.1-0.3,0.2-0.4c0.2,0.2-0.1,0.7-0.4,0.6c-0.2,0.5-0.6,0.8-0.7,1.4
			c-0.2,0.1-0.3,0-0.6,0.2c-0.2,1.1-0.7,2.1-1.5,2.7c0.2,0.4,0,0.7-0.1,1.1c1.6-0.5,3.7-0.7,6.3-0.6c0.4,0.6,1.4,0,1.5,0.7
			c0.3-0.6,0.5,0.4,1.1,0.1c1.1,1.1,2.5,1.7,3.4,2.9c0.7,0.4,1.1,1.1,1.4,2c0.5,0.3,1.1,1.2,0.7,2c0.1,0.2,0.2-0.2,0.3,0.1
			c-0.2,1.2-0.1,2-0.6,2.9c0.2,0.7,0.5,1.2-0.2,1.5c0.1,2.4-1,3.4-2,5.3c-0.2,0-0.3,0-0.5,0c0.2,0.5-0.4,0.7-0.6,0.7
			c-0.2,0.1,0,0.5-0.1,0.7c-0.2-0.1-0.7,0.4-0.2,0.5c-0.7,0.2-1.3,0.7-0.8,1.4c0.3,0.2-0.3,0.2-0.2-0.2c-0.1,0.2-0.2,0.3-0.5,0.2
			c-0.5,0.3-0.5,1-1.1,1.1c0.2-0.6,0.5-0.6,0.5-0.8c-0.3-0.2-1.2,0-1.3,0.6c-1.1,0.5-1.5,0.5-2.4,0.7c-0.7-0.6-2.2,0.2-2.6-0.6
			c-0.4-0.1-0.6,0.2-0.8,0.2c-2-0.6-3.6-1.6-5-2.9c-0.7-1.2-2-1.9-2.1-3.7c-0.8-0.9-0.6-2.1-0.8-3.3c0.1,0,0.2,0,0.3,0
			c-0.3-0.4,0-0.8-0.3-1.3c0.2,0,0.2,0.2,0.4,0.2c-0.7-0.2,0-1-0.5-1.3c-0.3,0.8-0.1,2.1-1.1,2.3c-0.6-0.6-0.4-1.5-0.5-2.5
			c0.5-0.6,0.9-1.1,1.1-1.9c0.7-0.2,0.7-1.1,1.2-1.4c-0.2-1.4,1-2.4,0.9-3.7c0.2-0.1,0.2,0.1,0.3,0.1c-0.4-0.7,0.6-0.9,0.3-1.7
			c0.7,0,0.2-1,0.8-1c0.1-0.2-0.2-0.2-0.2-0.5c0.9-0.7,1.1-2,1.9-2.8c0.5-1.8,2.2-2.4,3-4c0.2,0,0.2,0,0.3,0.1
			c0.2-0.2,0.2-0.3,0.3-0.6c0.2,0,0.2,0.1,0.3,0.1C35,4.8,36.6,4.7,37,3.6c0.7-0.2,1.3-0.1,1.5-1c0.7,0.1,0.9-0.8,1.4-0.4
			c0-1.1,1.2-0.5,1.4-1.3C42,0.9,41.9,0.5,42.3,0.8"/>
	</g>
</g>
</svg>
