<svg version="1.1" id="Layer_1" xmlns="http://www.w3.org/2000/svg" xmlns:xlink="http://www.w3.org/1999/xlink" x="0" y="0" width="140" height="4" viewBox="0 0 140 4" xml:space="preserve" enable-background="new 0 0 140 4"><path d="M28.2,1.5c-0.6-0.2-1.3-0.3-2-0.3C24.9,2.9,28.6,3.2,28.2,1.5 M25.1,2.7c0.2-0.4,0.2-0.9,0-1.3c-0.6-0.2-1.2-0.2-1.8-0.1	C22.7,2.7,24.1,2.7,25.1,2.7 M19.4,2.7c0.3-0.2,0-1,0.3-1.3c-0.7-0.2-1.4-0.2-2.2-0.1c-0.2,0.5-0.2,1-0.1,1.4	C18.1,2.6,18.8,2.6,19.4,2.7 M14.8,2.8h1.4c0.3-0.4,0.4-0.9,0.3-1.3c-0.3-0.3-1.8,0.1-1.1-0.7c-0.7,0.2-1.1,0.9-0.9,1.6	C14.6,2.5,14.7,2.6,14.8,2.8 M8,2.7C7.8,2,8.4,2,8.3,1.4C7.7,1,6.9,0.9,6.2,1.1c0.2,0.5,0.1,1-0.1,1.4C6.9,2.7,7.1,2.5,8,2.7 M5.3,2.6V1C4.6,1.2,4,1,3.3,1.2v1.4C4.1,2.5,5,2.8,5.3,2.6 M2.6,2.6c-0.1-0.4-0.1-0.9,0-1.4C1.9,1,1.1,1.1,0.5,1.3	C0.2,3,1.6,2.6,2.6,2.6 M20.8,2.7c1,0.2,1.4,0,1.4-1.1c-0.4-0.4-1.4-0.2-2-0.1v1.3C20.7,2.6,21.4,2,20.8,2.7 M13.5,2.7	c-0.1-0.6,0.3-0.6,0.1-1.3c-0.7-0.1-1.3-0.2-2-0.1c-0.1,0.5-0.1,1-0.1,1.4C12.2,2.9,12.9,2.9,13.5,2.7 M8.7,2.6	c0-0.4,0.1-0.8,0.1-1.3C9.5,1,10.4,1.1,11,1.6c-0.2,0.3-0.3,0.7-0.3,1.1C10,2.9,9.3,2.9,8.7,2.6 M53.8,1.5c-0.6-0.2-1.3-0.3-2-0.3	C50.6,2.9,54.2,3.2,53.8,1.5 M50.8,2.7c0.2-0.4,0.2-0.9,0-1.3c-0.6-0.2-1.2-0.2-1.8-0.1C48.4,2.7,49.8,2.7,50.8,2.7 M45.1,2.7	c0.3-0.2,0-1,0.3-1.3c-0.7-0.2-1.4-0.2-2.2-0.1c-0.2,0.5-0.2,1-0.1,1.4C43.8,2.6,44.5,2.6,45.1,2.7 M40.5,2.8h1.4	c0.3-0.4,0.4-0.9,0.3-1.3c-0.3-0.3-1.8,0.1-1.1-0.7C40.4,1,40,1.7,40.2,2.4C40.3,2.4,40.4,2.6,40.5,2.8 M33.7,2.7	C33.5,2,34.1,2,34,1.4c-0.6-0.4-1.4-0.5-2.1-0.3c0.2,0.5,0.1,1-0.1,1.4C32.6,2.7,32.8,2.5,33.7,2.7 M31,2.6V1c-0.7,0.2-1.3,0-2,0.2	v1.4C29.7,2.5,30.7,2.8,31,2.6 M46.5,2.7c1,0.2,1.4,0,1.4-1.1c-0.4-0.4-1.4-0.2-2-0.1v1.3C46.4,2.6,47.1,2,46.5,2.7 M39.2,2.6	C39.1,2,39.5,2,39.3,1.3c-0.7-0.1-1.3-0.2-2-0.1c-0.1,0.5-0.1,1-0.1,1.4C37.9,2.8,38.6,2.8,39.2,2.6 M34.4,2.6	c0-0.4,0.1-0.8,0.1-1.3c0.7-0.3,1.6-0.2,2.2,0.3c-0.2,0.3-0.3,0.7-0.3,1.1C35.7,2.8,35,2.8,34.4,2.6 M79.6,1.5	c-0.6-0.2-1.3-0.3-2-0.3C76.3,2.9,80,3.2,79.6,1.5 M76.5,2.7c0.2-0.4,0.2-0.9,0-1.3c-0.6-0.2-1.2-0.2-1.8-0.1	C74.1,2.7,75.5,2.7,76.5,2.7 M70.8,2.7c0.3-0.2,0-1,0.3-1.3c-0.7-0.2-1.4-0.2-2.2-0.1c-0.2,0.5-0.2,1-0.1,1.4	C69.5,2.6,70.2,2.6,70.8,2.7 M66.3,2.8h1.4C68,2.4,68.1,1.9,68,1.5c-0.3-0.3-1.8,0.1-1.1-0.7C66.2,1,65.8,1.7,66,2.4	C66.1,2.5,66.2,2.6,66.3,2.8 M59.4,2.7C59.2,2,59.8,2,59.7,1.4c-0.6-0.4-1.4-0.5-2.1-0.3c0.2,0.5,0.1,1-0.1,1.4	C58.3,2.7,58.5,2.5,59.4,2.7 M56.7,2.6V1c-0.7,0.2-1.3,0-2,0.2v1.4C55.5,2.5,56.4,2.8,56.7,2.6 M72.2,2.7c1,0.2,1.4,0,1.4-1.1	c-0.4-0.4-1.4-0.2-2-0.1v1.3C72.1,2.6,72.8,2,72.2,2.7 M64.9,2.7c-0.1-0.6,0.3-0.6,0.1-1.3c-0.7-0.1-1.3-0.2-2-0.1	c-0.1,0.5-0.1,1-0.1,1.4C63.6,2.9,64.3,2.9,64.9,2.7 M60.1,2.6c0-0.4,0.1-0.8,0.1-1.3c0.7-0.3,1.6-0.2,2.2,0.3	c-0.2,0.3-0.3,0.7-0.3,1.1C61.4,2.8,60.7,2.8,60.1,2.6 M105.2,1.5c-0.6-0.2-1.3-0.3-2-0.3C102,2.9,105.6,3.2,105.2,1.5 M102.2,2.7	c0.2-0.4,0.2-0.9,0-1.3c-0.6-0.2-1.2-0.2-1.8-0.1C99.8,2.7,101.2,2.7,102.2,2.7 M96.5,2.7c0.3-0.2,0-1,0.3-1.3	c-0.7-0.2-1.4-0.2-2.2-0.1c-0.2,0.5-0.2,1-0.1,1.4C95.2,2.6,95.9,2.6,96.5,2.7 M91.9,2.7h1.4c0.3-0.4,0.4-0.9,0.3-1.3	c-0.3-0.3-1.8,0.1-1.1-0.7c-0.7,0.2-1.1,0.9-0.9,1.6C91.7,2.4,91.8,2.5,91.9,2.7 M85.1,2.7C84.9,2,85.5,2,85.4,1.4	C84.8,1,84,0.9,83.3,1.1c0.2,0.5,0.1,1-0.1,1.4C84,2.7,84.2,2.5,85.1,2.7 M82.4,2.6V1c-0.7,0.2-1.3,0-2,0.2v1.4	C81.2,2.5,82.1,2.8,82.4,2.6 M97.9,2.7c1,0.2,1.4,0,1.4-1.1c-0.4-0.4-1.4-0.2-2-0.1v1.3C97.8,2.6,98.5,2,97.9,2.7 M90.6,2.6	C90.5,2,90.9,2,90.7,1.3c-0.7-0.1-1.3-0.2-2-0.1c-0.1,0.5-0.1,1-0.1,1.4C89.3,2.8,90,2.8,90.6,2.6 M85.8,2.6c0-0.4,0.1-0.8,0.1-1.3	c0.7-0.3,1.6-0.2,2.2,0.3c-0.2,0.3-0.3,0.7-0.3,1.1C87.1,2.8,86.4,2.8,85.8,2.6 M131,1.5c-0.6-0.2-1.3-0.3-2-0.3	C127.7,2.9,131.4,3.2,131,1.5 M127.9,2.7c0.2-0.4,0.2-0.9,0-1.3c-0.6-0.2-1.2-0.2-1.8-0.1C125.5,2.7,126.9,2.7,127.9,2.7 M122.2,2.7	c0.3-0.2,0-1,0.3-1.3c-0.7-0.2-1.4-0.2-2.2-0.1c-0.2,0.5-0.2,1-0.1,1.4C120.9,2.6,121.6,2.6,122.2,2.7 M117.6,2.8h1.4	c0.3-0.4,0.4-0.9,0.3-1.3c-0.3-0.3-1.8,0.1-1.1-0.7c-0.7,0.2-1.1,0.9-0.9,1.6C117.4,2.5,117.5,2.6,117.6,2.8 M110.8,2.7	c-0.2-0.7,0.4-0.7,0.3-1.3c-0.6-0.4-1.4-0.5-2.1-0.3c0.2,0.5,0.1,1-0.1,1.4C109.7,2.7,109.9,2.5,110.8,2.7 M108.1,2.6V1	c-0.7,0.2-1.3,0-2,0.2v1.4C106.9,2.5,107.8,2.8,108.1,2.6 M123.6,2.7c1,0.2,1.4,0,1.4-1.1c-0.4-0.4-1.4-0.2-2-0.1v1.3	C123.5,2.6,124.2,2,123.6,2.7 M116.3,2.7c-0.1-0.6,0.3-0.6,0.1-1.3c-0.7-0.1-1.3-0.2-2-0.1c-0.1,0.5-0.1,1-0.1,1.4	C115,2.9,115.7,2.9,116.3,2.7 M111.5,2.6c0-0.4,0.1-0.8,0.1-1.3c0.7-0.3,1.6-0.2,2.2,0.3c-0.2,0.3-0.3,0.7-0.3,1.1	C112.8,2.9,112.1,2.9,111.5,2.6 M136.5,2.7c-0.2-0.7,0.4-0.7,0.3-1.3c-0.6-0.4-1.4-0.5-2.1-0.3c0.2,0.5,0.1,1-0.1,1.4	C135.4,2.7,135.6,2.5,136.5,2.7 M133.8,2.6V1c-0.7,0.2-1.3,0-2,0.2v1.4C132.5,2.5,133.4,2.8,133.8,2.6 M137.2,2.6	c0-0.4,0.1-0.8,0.1-1.3c0.7-0.3,1.6-0.2,2.2,0.3c-0.2,0.3-0.3,0.7-0.3,1.1C138.5,2.8,137.8,2.8,137.2,2.6"/></svg>